<?xml version="1.0" standalone="no"?>
<!DOCTYPE svg PUBLIC "-//W3C//DTD SVG 1.1//EN" "http://www.w3.org/Graphics/SVG/1.1/DTD/svg11.dtd" >
<svg>
<metadata>
Created by FontForge 20090914 at Thu Feb 23 19:17:44 2012
 By ffonts
created by Astigmatic One Eye Foundry&#194;&#169; 1999, All Rights Reserved.                                                           http://www.astigmatic.com/       mailto: astigma@astigmatic.com           ID#DRiver
</metadata>
<defs>
<font id="HandageAOEBold" horiz-adv-x="817" >
  <font-face 
    font-family="Handage AOE"
    font-weight="700"
    font-stretch="normal"
    units-per-em="2048"
    panose-1="0 0 7 0 0 0 0 0 0 0"
    ascent="1638"
    descent="-410"
    x-height="852"
    cap-height="1255"
    bbox="-349 -639 1726 1900"
    underline-thickness="20"
    underline-position="-123"
    unicode-range="U+0020-U+F002"
  />
<missing-glyph horiz-adv-x="1024" 
d="M128 0v1400h768v-1400h-768zM256 128h512v1144h-512v-1144z" />
    <glyph glyph-name=".notdef" horiz-adv-x="1024" 
d="M128 0v1400h768v-1400h-768zM256 128h512v1144h-512v-1144z" />
    <glyph glyph-name=".null" horiz-adv-x="0" 
 />
    <glyph glyph-name="nonmarkingreturn" horiz-adv-x="352" 
 />
    <glyph glyph-name="space" unicode=" " horiz-adv-x="352" 
 />
    <glyph glyph-name="exclam" unicode="!" horiz-adv-x="274" 
d="M184 332q-42 -35 -77 -35q-23 0 -129 44q-18 167 -18 641q0 183 -10 322q12 13 11 32q-1 31 0 35q7 42 45 55q23 13 50 13q57 0 112 -67q-15 -278 -15 -485q0 -288 31 -555zM179 76q0 -113 -103 -113q-48 0 -112 43q-10 35 -10 59q0 13 3 51q3 32 1 52q37 56 96 56
q125 0 125 -148z" />
    <glyph glyph-name="quotedbl" unicode="&#x22;" horiz-adv-x="490" 
d="M398 1303q0 -99 -44 -230q-46 -134 -130 -134q-14 0 -27 6q-24 84 -24 224q-12 -51 -27 -96q-46 -134 -130 -134q-14 0 -26 6q-24 83 -24 296q0 17 -3 51t-3 50q0 75 80 104q111 4 139 -55q19 37 69 55q119 4 148 -89q2 -29 2 -54z" />
    <glyph glyph-name="numbersign" unicode="#" horiz-adv-x="1050" 
d="M963 925q2 -39 -14 -71q-20 -39 -56 -39h-161q-25 -61 -65 -184q22 2 36 2q64 0 106 -38t42 -101q0 -1 -3 -31q-52 -40 -105 -40q-19 0 -57 7t-57 7q-9 0 -16 -1q-81 -212 -81 -349q0 -18 1 -37q-53 -45 -110 -45q-30 0 -101 60q-1 84 35 189q53 154 59 178q-61 3 -47 3
q-31 0 -34 -10q-12 -36 -14 -110q-2 -81 -10 -113q-12 -49 -72 -49q-42 0 -51 -2q-83 64 -83 111q0 46 25 141q-23 -3 -39 -3q-109 0 -129 143q44 66 111 66q18 0 51.5 -6t48.5 -7q26 93 30 148q-63 -7 -66 -7q-48 0 -84 23q-46 29 -46 83q0 22 10 48q41 43 115 47
q107 6 122 11l32 209q21 116 86 197q28 5 40 5q41 0 71 -27q11 -11 46 -58q-5 -46 -35 -148q-27 -95 -29 -146q82 0 93 29q56 148 102 358q25 36 60 36q9 0 28 -2t33 -2q5 -10 41 -53q24 -30 24 -55q0 -52 -24 -140l-40 -140l5 2q35 11 57 11q44 0 69 -38q20 -13 50 -62z
M511 797q-52 0 -93 -8q-11 -36 -30 -171q21 2 65 5q4 29 31 90q26 58 27 84z" />
    <glyph glyph-name="dollar" unicode="$" horiz-adv-x="578" 
d="M496 459q0 -79 -54 -140q-41 -35 -138 -88q-5 -16 -5 -34q0 -27 12 -80.5t12 -80.5q0 -39 -33 -62q-27 -19 -60 -19q-83 0 -125 103q12 105 23 160q-86 25 -102 35q-48 29 -48 95q0 72 80 72q18 0 51.5 -7.5t50.5 -7.5q15 0 36 14q65 2 118 45q1 6 1 13q0 21 -15 58
q-20 49 -23 58q-37 41 -139.5 98.5t-146.5 106.5l-22 59q-14 35 -14 61q0 30 23 67q63 101 198 159q-31 93 -31 174q0 38 8 84q37 42 89 42q111 0 111 -160q0 -55 -15 -118q141 -22 141 -108q0 -46 -46 -64l-85 -18q-148 -34 -209 -92l6 -4q12 -9 20 -20q165 -62 265 -190
q25 -32 46 -103q20 -67 20 -108z" />
    <glyph glyph-name="percent" unicode="%" horiz-adv-x="1083" 
d="M925 1300q-194 -374 -468 -845l-241 -411q-29 -52 -96 -52q-33 0 -62 27t-34 64l556 1043q-78 -12 -125 -13q4 -25 4 -51q0 -125 -70 -242q-84 -139 -213 -135q-35 1 -30 1q-95 0 -131 42q-55 64 -55 179q0 68 48 185t97 166q41 25 117 82q106 4 170 -29q23 -1 47 -1
q190 0 389 88q40 -14 60 -40zM1001 396q0 -88 -106 -206q-85 -94 -178 -153q-37 -8 -67 -8q-196 0 -196 200q0 105 72.5 230t171.5 186q17 1 49 14.5t52 13.5q42 0 105 -68q54 -57 75.5 -105t21.5 -104zM266 1046q0 33 -48 101q0 -9 -2 -22q-19 -27 -52 -92
q-45 -90 -45 -130q0 -17 10 -28q10 -2 18 -2q18 0 38 18q81 35 81 155zM795 434q0 39 -14 39q-43 0 -86 -84q-37 -73 -45 -139q114 64 142 142q3 9 3 42z" />
    <glyph glyph-name="ampersand" unicode="&#x26;" horiz-adv-x="628" 
d="M564 371q0 -27 -20 -51.5l-39 -46.5q-30 -5 -46 -5q-13 0 -89 13v-6v-24q-1 -15 -1 -23q0 -34 20 -70q-12 -21 -15 -41q-2 -14 0 -36q2 -31 2 -43q0 -37 -21 -70q-25 -41 -65 -41q-65 0 -135 90q7 99 34 294l-142 48q-87 38 -87 99q0 147 108 257q-50 31 -66 55
q-18 29 -18 89q0 84 69 155q60 62 146 94q-6 35 -6 76q0 34 7 111q6 74 5 117q27 68 123 73l57 -35q33 -24 33 -51q0 -186 -14 -248h15q125 0 122 -98q3 -9 3 -19q0 -36 -33 -65l-62 -45q-63 8 -106 8q-121 0 -196 -43q-2 -5 -5 -14q22 -42 180 -42q61 0 117 -24
q70 -31 70 -84q0 -104 -106 -104q-18 0 -54 7.5t-54 7.5q-73 0 -123 -112l235 -39q157 -31 157 -114z" />
    <glyph glyph-name="quotesingle" unicode="'" horiz-adv-x="282" 
d="M191 1303q0 -99 -45 -230q-46 -134 -130 -134q-14 0 -26 6q-24 83 -24 296q0 17 -3 51t-3 50q0 75 80 104q52 2 87 -23l61 -57q3 -41 3 -63z" />
    <glyph glyph-name="parenleft" unicode="(" horiz-adv-x="547" 
d="M455 1248q-145 -229 -169 -273q-82 -148 -120 -298q-10 -42 -10 -73q0 -34 48 -194q14 -48 73 -111l95 -101q38 -47 62 -116q-23 -21 -27 -27l-5 -7q-23 -31 -76 -31q-89 0 -159 97q-112 153 -146 218q-61 120 -61 250q0 68 28.5 204.5t56.5 196.5l52 91q32 72 108 211
q11 2 29 18l8 16q31 60 93 54q7 2 14 2q20 0 45 -20q-4 -2 -7 -4l31 -4q38 -40 38 -83q0 -8 -1 -16z" />
    <glyph glyph-name="parenright" unicode=")" horiz-adv-x="478" 
d="M392 754q0 -102 -116 -433q-120 -345 -181 -370q-29 -12 -48 -12q-26 0 -60 16l-56 29q-5 19 -11 26l-4 6q-15 18 -15 36t20 40q134 151 194 351l48 151q25 88 25 156q0 136 -65 307q-42 109 -143 303q5 48 49 93q107 -8 152 -69l68 -140q16 -27 46 -82q97 -196 97 -408z
" />
    <glyph glyph-name="asterisk" unicode="*" horiz-adv-x="803" 
d="M715 1090q0 -86 -183 -74l73 -36q39 -22 58 -54q24 -21 24 -55v-54q-55 -54 -97 -54q-61 0 -182 122q3 -20 3 -34q0 -32 -24 -64q-26 -37 -63 -37q-36 0 -68 23l-54 43q-11 31 -11 51q-96 -89 -144 -89q-59 0 -115 68q-1 7 -6.5 24t-5.5 27q0 37 94 89l28 15l-6 3
q-76 26 -76 84q0 39 39 78q27 3 40 3q28 0 80 -10.5t79 -10.5q11 0 21 1q0 18 -2 51.5t-2 48.5q0 77 50 132q163 10 163 -116q0 -18 -7 -51.5t-8 -49.5q22 3 87 24q54 16 90 16q27 0 64 -13l44 -42q17 -21 17 -59z" />
    <glyph glyph-name="plus" unicode="+" horiz-adv-x="722" 
d="M631 661q0 -14 -10 -35l-65 -51q-29 -5 -46 -5q-40 0 -111 24q-4 -1 -7 -1l-7 -1q28 -95 28 -103q0 -45 -47 -83q-28 -7 -48 -7q-85 0 -110 44q-17 31 -14 117q-39 -9 -76 -9q-125 0 -160 112l19 63q16 29 73 29q23 0 67 -8t66 -8q9 0 16 1q1 5 1 63q0 75 66 117
q41 -6 58 -4q82 -42 92 -146q34 8 65 8q45 0 97 -21q17 -22 33 -45q20 -26 20 -51z" />
    <glyph glyph-name="comma" unicode="," horiz-adv-x="223" 
d="M223 30q0 -68 -46 -108q-34 -31 -118 -60q-30 -11 -54 -11q-12 0 -55 8q0 48 19 74q3 4 56 52q-68 42 -68 97q0 21 44 73q62 13 73 13q55 0 104 -52q45 -47 45 -86z" />
    <glyph glyph-name="hyphen" unicode="-" horiz-adv-x="693" 
d="M602 648q0 -31 -65 -63q-77 0 -213 -7q-143 -7 -213 -7q-37 0 -93 2q-7 8 -37 28q-21 15 -21 31q0 45 77 74q55 -10 103 -10q51 0 132 10t132 10q100 0 176 -32q22 -18 22 -36z" />
    <glyph glyph-name="hyphen" unicode="&#x2010;" horiz-adv-x="693" 
d="M602 648q0 -31 -65 -63q-77 0 -213 -7q-143 -7 -213 -7q-37 0 -93 2q-7 8 -37 28q-21 15 -21 31q0 45 77 74q55 -10 103 -10q51 0 132 10t132 10q100 0 176 -32q22 -18 22 -36z" />
    <glyph glyph-name="period" unicode="." horiz-adv-x="327" 
d="M227 91q0 -25 -22 -44l-28 -11q-54 -20 -63 -20q-61 0 -107 41q-39 36 -48 79q27 56 131 90q57 0 100 -51q37 -44 37 -84z" />
    <glyph glyph-name="slash" unicode="/" horiz-adv-x="677" 
d="M628 1394l-350 -1027q-10 -38 -35 -111q-9 -16 -24 -50l-44 -105q-26 -50 -76 -90q-146 24 -138 117q125 218 258 645q145 463 239 652q36 21 69 21q52 0 101 -52z" />
    <glyph glyph-name="zero" unicode="0" horiz-adv-x="776" 
d="M688 769q0 -215 -55 -478q-34 -156 -195 -259q-54 -34 -114 -31q-235 38 -289 226q-6 21 -27 65q-50 205 -50 402q0 237 64 429q90 275 280 306q112 -31 149 -50q66 -34 113 -108q124 -192 124 -502zM474 807q0 85 -7 165q-14 25 -38 109q-21 71 -47 99l-63 68
q-23 -2 -67 -56q-93 -115 -93 -520q0 -475 128 -475q59 0 136 123q51 264 51 487z" />
    <glyph glyph-name="one" unicode="1" horiz-adv-x="503" 
d="M418 1356q-19 -95 -52 -461q-2 -19 -14 -106q-9 -66 -9 -107q0 -116 33 -325q36 -228 41 -332q-26 -55 -85 -55h-71q-55 44 -66 111q-1 9 -1 129q0 51 -14 85q4 73 4 147q0 86 -7.5 257t-7.5 256q0 38 1 73q-33 -35 -68 -35q-99 0 -150 113q56 47 169 180
q102 119 179 173q62 -30 72 -37q34 -24 46 -66z" />
    <glyph glyph-name="two" unicode="2" horiz-adv-x="805" 
d="M721 205q-2 -12 -4 -29q-10 -51 -56 -76q-48 1 -159 10q-97 7 -151 7q-153 0 -266 -59q-97 19 -134 114q164 224 392 636q118 214 118 324q0 4 -5 8q-80 -5 -210 -98q-12 -20 -49.5 -47t-49.5 -50q-36 -12 -53 -12q-14 0 -37 5q-27 5 -38 6l-21 19q-38 32 -38 64
q0 44 114 122l158 99q67 47 130 62q37 9 141 16q90 -67 103 -81q41 -47 41 -124q0 -129 -55 -220l-119 -220l-209 -389q68 6 156 6q30 0 94.5 -1t100.5 -1q79 -34 106 -91z" />
    <glyph glyph-name="three" unicode="3" horiz-adv-x="792" 
d="M707 569q0 -273 -250 -456l-270 -167q-25 -16 -50 -16q9 0 -71 13q-3 5 -41 41q-26 25 -26 49q0 56 90 102l137 63q275 160 275 351q0 3 -25 63q-14 5 -65 38q-43 27 -60 27q-7 0 -30 -6q-23 10 -34 10q-19 0 -57 -10t-58 -10q-55 0 -91 40l-55 83q72 77 200 140
q138 69 188 114q4 20 20 41l26 37v0q-80 13 -179 12q-55 -15 -163 -53q-115 11 -150 73q-8 56 -8 50q0 69 209 111q20 3 56 14l215 -4q33 -1 89 -26q51 -23 77 -45q58 -48 58 -118q0 -23 -12 -58q-54 -34 -117 -113q-72 -92 -107 -121q56 -34 175 -91l63 -87q41 -58 41 -91z
" />
    <glyph glyph-name="four" unicode="4" horiz-adv-x="822" 
d="M740 1314q0 5 -20 -312q-25 -401 -25 -649q0 -174 11 -346q-44 -43 -83 -43q-27 0 -67 20l-63 32v461q0 99 -3 175q-19 3 -39 3q-66 0 -188 -40q-135 -43 -194 -50q-109 43 -109 135q0 1 2 29q94 91 145 250l73 280q30 109 94 109q124 0 124 -92q0 -145 -150 -467l14 3
l123 18q72 14 115 41q0 6 18 495q3 1 44 26q27 17 47 17q12 0 40 -7q4 -5 56 -34q35 -20 35 -54z" />
    <glyph glyph-name="five" unicode="5" horiz-adv-x="771" 
d="M688 706q0 -17 -4 -34q2 -27 -9 -72t-11 -65q0 -14 3 -27q-30 -68 -107 -195q-164 -214 -464 -335q-50 0 -74 23q-13 13 -36 62q-4 9 -35 35q51 70 118.5 101.5l133.5 61.5q193 112 284 302q-1 20 0 53q2 42 2 54q0 38 -14 66q-28 21 -89 28l-96 8q-43 1 -112 -51
t-125 -52q-12 0 -40 4q-55 65 -53 150q29 25 39 57l14 68q-2 16 -2 34q0 23 7 111q5 67 0 110q25 65 35 78q26 36 80 38q44 -17 91 -17q41 0 121.5 13.5t121.5 13.5q47 0 117 -24q-5 -24 -5 -69q0 -71 -154 -97l-221 -32v-12q0 -30 -10 -78q-12 -58 -14 -78q99 24 179 24
q148 0 222 -71q107 -104 107 -186z" />
    <glyph glyph-name="six" unicode="6" horiz-adv-x="843" 
d="M758 467q0 -141 -89 -285q-107 -171 -261 -168q-193 3 -322 148q-61 67 -96 193q-30 108 -30 207q0 175 103 390q112 231 261 316q24 28 81 48t79 41q25 4 38 4q42 0 83 -24q47 -27 47 -67q0 -14 -5 -39q-7 -30 -9 -38q-250 -133 -402 -295q-28 -72 -75 -216
q114 169 252 169q56 0 122 -25q72 -26 107 -66q45 -50 80.5 -139.5t35.5 -153.5zM552 521q0 54 -17 87q-42 81 -69 81q-5 0 -80 -31q-79 -97 -111 -214l-12 -79q-12 -46 -52 -55q26 -28 32 -52q39 -35 130 -35q30 0 29 0q55 10 104 118q46 100 46 180z" />
    <glyph glyph-name="seven" unicode="7" horiz-adv-x="875" 
d="M777 1248q0 -21 -12 -39q-209 -314 -295 -485q-61 -119 -109 -342q-32 -144 -42 -185q-27 -107 -63 -199q-58 -3 -87 9q-10 4 -74 45q17 291 136 608l67 163q10 28 34 85q41 65 107 201l-199 -50q-115 -27 -203 -35l-50 48q-27 30 -27 59q0 16 12 46q106 53 277 83
q196 35 270 63q104 38 120 38q52 0 108 -41q30 -48 30 -72z" />
    <glyph glyph-name="eight" unicode="8" horiz-adv-x="898" 
d="M808 475q0 -132 -80 -250q-73 -109 -198 -183q-24 -13 -83 -49q-27 1 -63 -1q-42 -1 -53 -1q-93 0 -135 31q-63 14 -115 61l-89 88q-32 77 -32 152q0 105 59 212q57 103 147 169l6 4q-99 68 -99 189q0 168 150 303q31 31 99 89q112 80 175 80q26 0 119 -45
q97 -48 97 -144q0 -21 -7 -69q-6 -44 -4 -69l-146 -236q119 -31 185.5 -119.5t66.5 -211.5zM524 1111q0 69 2 32q-1 19 -17 19q2 0 -31 -17q-144 -75 -206 -246q2 -27 15 -65q59 -5 51 -5q10 0 23 22q61 10 114 102q49 86 49 158zM605 489q0 64 -28.5 107.5t-75.5 43.5
q-13 0 -93 -12q-204 -141 -231 -250q-10 -39 -10 -108q0 -72 67 -94q36 -12 134 -11q139 70 225 228q12 22 12 96z" />
    <glyph glyph-name="nine" unicode="9" horiz-adv-x="861" 
d="M774 901q0 -101 -5 -135q-32 -185 -147 -382q-106 -181 -395 -459q-58 0 -110 27q-59 31 -59 74q0 19 13 42l6 12q2 4 8 19q87 51 170 133l146 154q31 32 74 132q-17 -7 -34 -10q-64 -27 -124 -27q-85 0 -239 116q-118 90 -118 184q0 34 17 96.5t18 93.5q14 25 38 100
q20 59 54 99q26 32 168 135q28 20 70 61q35 -19 91 -19q60 0 161 -52q60 -32 81 -69q116 -103 116 -325zM572 902q0 43 -13 77q5 20 5 30q0 37 -73 131q-19 25 -66 25q-59 0 -107 -43q-20 -19 -64 -56q-19 -13 -37 -59q-24 -60 -30 -70q-2 -24 -16 -72.5t-14 -73.5
q0 -15 7 -30l64 -51q42 -31 73 -31q75 0 142 71q79 84 128 99q1 60 1 53z" />
    <glyph glyph-name="colon" unicode=":" horiz-adv-x="324" 
d="M227 599q0 -31 -22 -55l-28 -13q-54 -26 -63 -26q-61 0 -107 52q-39 44 -48 98q27 71 131 113q57 0 100 -64q37 -54 37 -105zM227 110q0 -32 -22 -56l-28 -13q-54 -25 -63 -25q-61 0 -107 52q-39 44 -48 98q27 70 131 112q57 0 100 -63q37 -55 37 -105z" />
    <glyph glyph-name="semicolon" unicode=";" horiz-adv-x="315" 
d="M227 596q0 -32 -22 -56l-28 -13q-54 -26 -63 -26q-61 0 -107 52q-39 45 -48 100q27 72 131 115q57 0 100 -65q37 -56 37 -107zM223 57q0 -78 -46 -124q-34 -36 -118 -70q-30 -12 -54 -12q-12 0 -55 10q0 54 19 84q3 5 56 60q-68 49 -68 112q0 24 44 84q62 15 73 15
q55 0 104 -60q45 -54 45 -99z" />
    <glyph glyph-name="less" unicode="&#x3c;" horiz-adv-x="832" 
d="M750 871q-275 -193 -429 -255l12 -5l151 -69q84 -36 163 -47q65 -91 65 -113q0 -43 -64 -81q-135 11 -326.5 120t-326.5 117q-3 12 -19 41q-20 26 -20 47q0 30 34 49q47 28 301 151q184 90 285 174q11 -2 46 -2t51 -21q28 -12 51 -66q3 -9 26 -40z" />
    <glyph glyph-name="equal" unicode="=" horiz-adv-x="741" 
d="M638 755q0 -39 -64 -81q-79 1 -232 -8q-156 -10 -231 -10q-38 0 -93 3q-7 10 -37 36q-21 19 -21 40q0 57 77 95q55 -13 103 -13q51 0 150 12.5t150 12.5q100 0 176 -40q22 -24 22 -47zM658 545q-9 -20 -33 -57q-24 -30 -65 -30q-14 0 -104 13q-51 8 -275 8q-13 0 -71 7
q-41 5 -73 -2q-52 25 -91 84l13.5 43t29.5 43q41 1 149 -20q16 -3 28 -3q16 0 42 9q34 -3 61 -3q44 0 132.5 7t132.5 7q49 0 81 -36q5 -6 43 -70z" />
    <glyph glyph-name="greater" unicode="&#x3e;" horiz-adv-x="736" 
d="M654 736q0 -27 -10 -47q-21 -42 -86 -62q-83 -25 -96 -35q-52 -39 -148 -137q-92 -94 -151 -136q-34 -24 -63 -24q-23 0 -55 17q-5 6 -42 35q-27 20 -27 49q0 46 189 200q50 39 147 122q-88 40 -272 103q-1 2 -53 52q-32 30 -32 63q0 17 13 49q3 1 43 25q24 13 49 13
q38 0 79.5 -31.5t66.5 -31.5q140 -71 291 -79l82 -37q43 -22 60 -62q15 -19 15 -46z" />
    <glyph glyph-name="question" unicode="?" horiz-adv-x="762" 
d="M674 1162q0 -155 -98 -256q-34 -35 -93 -80l-98 -73q-5 -26 -5 -56q0 -66 24 -175q30 -133 35 -174q-40 -49 -117 -55q-27 13 -80 47q-72 169 -72 348q0 84 9 115q15 49 71 99l148 118q70 70 70 174q0 18 -3 37q-8 14 -29 40q-15 2 -30 2q-47 0 -104 -23t-77 -52
q-11 -17 -32 -81q-23 -72 -68 -131q-9 2 -77 2q-64 0 -88 57q7 168 114 281q130 139 297 139q75 0 111 -19l84 -43q108 -95 108 -241zM452 90q0 -46 -36.5 -81t-91.5 -41q-70 36 -89 55q-32 33 -32 99q0 43 35 71q68 24 91 24q37 0 67 -25q56 -28 56 -102z" />
    <glyph glyph-name="at" unicode="@" horiz-adv-x="912" 
d="M828 797q0 -136 -47 -262q-63 -171 -180 -171q-14 0 -29 4q-48 11 -154 17q-99 4 -148 20q-78 24 -130 89q-9 11 -16 24q24 -113 66 -220q23 -60 77.5 -97.5t118.5 -37.5q52 0 119 35l110 62q50 25 113 36q71 -48 71 -87q0 -68 -64 -112l-95 -50q-123 -65 -206 -65
q-17 0 -51.5 -3t-51.5 -3q-68 0 -109 29q-28 7 -111 75q-158 131 -150 593q33 78 96 78q-7 4 -39 17q-54 21 -54 67q0 65 52 210q45 125 86 202q55 102 101 137q61 47 173 46q31 15 70 15q26 0 69 -9q49 -10 69 -11q77 -45 123 -111q24 -34 77 -143q44 -89 44 -374zM629 765
q-7 32 -7 233q0 75 -17 126q-22 29 -34 73q-10 40 -24 55q-24 25 -92 39l-86 17q-3 -5 -75 -82q-45 -49 -59 -91l-56 -197q106 134 291 125q77 -96 77 -232q0 -25 -3 -77t-3 -78q0 -65 15 -111l9 -5q39 48 64 205zM376 580q-1 33 -14 107q-12 68 -12 106q0 13 3.5 35.5
t3.5 33.5q-82 -15 -82 -230q0 -37 70 -59l26 6zM95 735l-2 -4l1 -7z" />
    <glyph glyph-name="A" unicode="A" 
d="M773 72l-29 -60q-17 -33 -56 -33q-13 -3 -26 -3q-20 0 -102 24q-35 89 -73 281q-29 148 -68 227q-45 10 -89 10q-85 0 -119 -36q2 -31 2 -63q0 -105 -39 -374q-42 -57 -101 -57q-65 0 -87 28l-37 72q75 217 108 616q36 441 83 621l46 28q28 17 48 17q93 0 126 -64
q143 -279 199 -560q14 3 24 3q22 0 42 -12q37 -11 68 -49.5t31 -72.5q0 -3 -26 -71q-30 -22 -67 -27q53 -229 142 -445zM345 724q-2 40 -25 96q-32 81 -36 93l-34 -192q32 0 95 3z" />
    <glyph glyph-name="B" unicode="B" horiz-adv-x="861" 
d="M779 370q0 -33 -17 -57q-22 -91 -196 -199l-262 -158q-45 -33 -112 -33q-15 0 -59 3q-40 3 -69 2q-47 34 -75.5 80l-55.5 93q27 209 27 492q0 72 -2 216t-2 216q0 158 8 289q8 35 17 70q14 48 57 48q18 0 37 -10q9 1 18 1q38 0 106.5 -22.5t105.5 -22.5q10 0 20 1
l191 -109q110 -75 110 -173q0 -88 -51 -159l-108 -131q-29 -11 -58 -33q71 -26 101 -39q60 -27 90 -51q158 -125 158 -221q0 -15 10.5 -45.5t10.5 -47.5zM400 1098q-27 13 -70 40q-41 17 -126 48q-2 -44 -19 -150q-16 -95 -16 -150q0 -20 2 -38q25 23 85 61l86 86
q50 54 58 103zM557 398q0 50 -84 110q-48 34 -232 72q-27 6 -49 6q-16 0 -35 -2q-13 -54 -13 -119q0 -41 28 -263h14q29 0 85.5 7.5t85.5 7.5q50 0 125 67.5t75 113.5z" />
    <glyph glyph-name="C" unicode="C" horiz-adv-x="718" 
d="M613 163q5 -17 5 -33q0 -49 -42 -92q-31 -20 -59 -20q-21 0 -49 13.5l-54 26.5q-111 28 -207 130l-153 190l-63 131q-34 76 -34 140q-4 34 -4 69q0 208 133 425q94 124 291 207q33 4 53 4q78 0 80 -65q10 -19 18.5 -37.5t3.5 -54.5q-37 -33 -123 -72q-82 -37 -110 -65
q-131 -134 -146 -313q-7 -22 -7 -46q0 -37 20 -99q22 -69 25 -100q129 -186 231 -255q12 -10 59 -10q56 -1 80 -9q42 -16 52 -65z" />
    <glyph glyph-name="D" unicode="D" horiz-adv-x="731" 
d="M631 752q9 -34 9 -68q0 -28 -38 -194q-86 -166 -198 -317q-39 -22 -107 -89q-63 -64 -114 -87q-35 -2 -65 12q-47 23 -55 26l-41.5 54t-31.5 65q-3 338 -20 1013q-55 -2 -78 20l-48 55q-7 66 27 99q37 23 77 23q29 0 81 -16q57 -17 83 -19q56 -15 161 -59q42 -4 91 -42
q60 -45 84 -54q7 -10 44 -44q27 -23 31 -55q47 -57 72 -155zM410 806q-30 81 -88 188q-11 20 -62 46q-64 33 -74 41q-5 7 -11 9q-1 -45 -1 -93q0 -139 13 -362q16 -280 18 -358q28 28 89 77l67 94q34 55 42 105q18 37 18 94q0 27 -5.5 80.5t-5.5 78.5z" />
    <glyph glyph-name="E" unicode="E" horiz-adv-x="701" 
d="M701 107q0 -21 -16 -62q-126 -19 -318 -28q-271 -13 -335 -18q5 120 5 211q0 109 -7 327.5t-7 327.5q0 68 -25 174q-33 136 -39 173q15 53 91 109l152 -2q134 0 207 12q28 5 46 5q49 0 86.5 -39.5t37.5 -82.5t-34 -73q-13 -11 -71 -45q-26 1 -282 20l28 -317
q57 -11 88 -11q11 0 132 22q83 -5 102 -21q26 -21 26 -108q0 -23 -11 -51q-53 -50 -128 -59q-13 -2 -143 -2q-37 0 -61 -5q-1 3 -1 -193q0 -83 14 -141q31 2 63 2q33 0 98 -2t97 -2q59 0 133 6q72 -76 72 -127z" />
    <glyph glyph-name="F" unicode="F" horiz-adv-x="659" 
d="M566 720q2 -59 -4 -78q-9 -33 -50 -63q-47 -1 -134 13q-90 15 -134 15q-41 0 -78 -17v-45q0 -76 21 -217t21 -209q0 -123 -115 -123q-38 0 -70 37l-51 64q22 129 22 264q0 108 -17 323.5t-17 323.5q0 170 32 319q42 36 81 36q27 0 84 -18t89 -18t95 8.5t95 8.5
q54 0 121 -34q-11 -32 -11 -87q0 -51 -47 -79q-39 -24 -93 -24q-33 0 -93.5 19.5t-92.5 19.5q-33 0 -57 -31q1 -33 -1 -92q-3 -64 -3 -91q0 -99 23 -146q143 -1 274 15q62 -18 110 -94z" />
    <glyph glyph-name="G" unicode="G" horiz-adv-x="922" 
d="M812 749q21 -16 21 -40q0 -18 -23 -68q-57 -42 -107 -42q-13 0 -25 3q0 -7 3 -39q-12 -182 6 -288q-1 -25 37.5 -82t38.5 -97q0 -24 -11 -50q-15 -43 -63 -50q-18 -3 -86 2q-12 -1 -24 -1q-48 0 -115 23l-112 38l-149 110q-86 65 -123 134q-130 249 -130 435q0 90 22 220
q94 184 99 192q65 100 165 140q57 35 131 35q95 0 128 -70v-71q-56 -68 -159 -79l-54.5 -50t-40.5 -58q-65 -74 -85 -205v-174l44 -123q27 -75 56 -119q35 -35 112 -99q100 -53 132 -51l-10 186q-6 111 -23 184q-91 -2 -116 6q-2 4 -46 42q-25 22 -28 65l23.5 41t40.5 36
q139 8 153 10q84 8 149 30q5 -2 97 -17q56 -10 72 -59z" />
    <glyph glyph-name="H" unicode="H" horiz-adv-x="788" 
d="M702 1196q0 -64 -5 -171q-7 -132 -8 -172q-5 -240 -22 -730l-47 -82q-25 -28 -109 -24q-25 111 -28 272q-6 239 -8 272q-75 -2 -149 -3q-88 -3 -146 -20q1 -24 1 -52q0 -34 -6 -170q-5 -108 -1 -179q-17 -30 -41 -100q-25 -28 -59 -35q-7 -1 -71 -3q-39 200 -39 432
q0 84 4 251t4 251q0 13 4 37q4 29 5 38q12 153 13 158q14 87 61 146q25 6 37 6q15 0 86 -32q25 -95 25 -196q0 -54 -8.5 -165t-8.5 -167l1 -17q11 1 282 3q11 88 13 337q1 161 5 173q7 18 70 63q70 -22 96 -38q49 -31 49 -83z" />
    <glyph glyph-name="I" unicode="I" horiz-adv-x="261" 
d="M192 1177l-30 -237q-21 -174 -21 -785q0 -18 -5.5 -76.5t-5.5 -75.5q0 -52 -113 -73l-50.5 25t-33.5 48q36 187 36 429q0 97 -7.5 291.5t-7.5 292.5q0 157 6 174q21 65 98 65q36 0 73 -28z" />
    <glyph glyph-name="J" unicode="J" horiz-adv-x="631" 
d="M544 551v-11q-4 -26 -9 -79q-4 -125 -7 -146q-13 -81 -64 -131q-8 -33 -50.5 -64.5t-49.5 -59.5q-65 -43 -154 -63l-161 -35q-57 43 -60 46q-32 32 -32 64q0 12 8 34t9 36q44 25 125 25q20 0 39 15q53 10 139 87q71 63 71 230q0 33 -3 99t-3 99q0 30 -18 145l-37 216
q-20 126 -20 218q0 26 2 58q24 48 79 48q91 0 112 -87l21 -136q-1 -103 31.5 -305t31.5 -303z" />
    <glyph glyph-name="K" unicode="K" horiz-adv-x="788" 
d="M699 132l-37 -40q-25 -26 -63 -26q-88 0 -124 79q-143 187 -304 362q-3 -27 -3 -56q0 -51 12 -147.5t12 -147.5q0 -65 -14 -126q-40 -24 -143 -30q-70 22 -75 100q27 509 16 1182q9 10 84 72q86 -6 120 -57q28 -115 18 -377q18 28 108 221q62 133 142 205q40 3 91 -25
q33 -58 33 -108q0 -43 -28 -102q-45 -95 -51 -112q-25 -40 -228 -296q-1 -11 32 -45q36 -39 42 -50q52 -72 163 -181q127 -124 170 -176l20 -45q13 -30 13 -49q0 -13 -6 -25z" />
    <glyph glyph-name="L" unicode="L" horiz-adv-x="773" 
d="M672 122q-15 -66 -84 -84q-30 -4 -90 -13q-36 12 -107 24q-227 3 -352 -21q-6 8 -35 28q-39 19 -44 59q27 223 27 501q0 152 -13 499q5 23 2 65q-3 48 -1 66q10 100 108 100q18 0 39 -4q65 -34 75 -100q-14 -185 14 -396q-27 -399 -27 -430q0 -90 10 -166q35 -10 79 -10
q36 0 93 7q74 9 92 11q62 5 126 -5l57 -57q29 -33 31 -74z" />
    <glyph glyph-name="M" unicode="M" horiz-adv-x="959" 
d="M912 82q-69 -49 -119 -49q-13 0 -26 3q-97 24 -97 122q0 16 2.5 48t2.5 47q0 31 -7 52q-10 216 -65 491q-52 -182 -121 -511q-161 -7 -189 69l-36 220q-23 128 -50 218q-8 -107 -3 -359q4 -231 -11 -359l-47 -51q-25 -21 -54 -21q-24 0 -60 13q-33 0 -58 37
q-2 149 25 408q30 282 32 400q6 260 -4 407q5 43 50 80q49 10 144 0q44 -93 93 -249q62 -198 82 -252l122 462q7 26 54 53q33 9 60 9q60 0 121 -54q9 -224 75 -618q70 -426 84 -616z" />
    <glyph glyph-name="N" unicode="N" horiz-adv-x="829" 
d="M746 273q0 -58 -5 -124q-10 -12 -20 -60.5t-26 -68.5q-26 -34 -83 -34q-20 0 -47 14q-133 209 -345 683q-1 -72 -12 -232q-10 -152 -10 -236q0 -53 3 -101q-29 -48 -42 -60q-28 -28 -71 -28q-57 0 -95 74q6 112 6 228q0 156 -13 423q-17 314 -19 432q7 9 19 47
q9 25 47 45l96 -6q49 -11 68 -61.5l59 -151.5q52 -104 144 -318l36 -119q18 -60 79 -161l8 -14q-34 465 -34 545q0 136 17 263q41 46 116 45q55 -20 91 -62q0 -111 -20 -164q-2 -137 25 -399q28 -269 28 -399z" />
    <glyph glyph-name="O" unicode="O" horiz-adv-x="827" 
d="M745 690q0 -17 -7.5 -48.5t-7.5 -47.5q0 -134 -81 -277q-7 -75 -66 -138q-54 -58 -133 -87q-13 -5 -29 -5q-10 0 -29.5 5t-28.5 5q-28 -9 -60 -9q-64 0 -126 36t-94 88q-70 112 -107 330q-16 91 -16 131q0 154 0 144q14 27 26 114q10 71 47 106q34 103 185 175
q54 25 95 25q35 0 97 -14q66 -16 98 -17q54 -30 135 -99q84 -117 91 -373q11 -21 11 -44zM545 659q0 263 -124 372q-9 8 -54 13q-48 5 -66 16q-148 -44 -148 -394q0 -86 9 -118q7 -17 18 -54l25 -134q16 -43 92 -108q25 -22 55 -38q15 3 50 16q66 62 100 187q10 34 40 212
q3 19 3 30z" />
    <glyph glyph-name="P" unicode="P" horiz-adv-x="654" 
d="M567 957q0 -148 -119 -286q-103 -119 -255 -189q2 -29 2 -62q0 -43 -5 -130t-5 -131q0 -88 21 -179q-58 -41 -108 -41q-24 0 -43 8l-22 20q-34 21 -39 51q1 -6 1 62q0 200 -17.5 598t-17.5 598q0 79 49 98q56 8 113 15q17 -10 119 -46q39 -14 91 -47q80 -51 87 -55
q148 -83 148 -284zM346 967q0 45 -7 53q-2 3 -6 6l-11 11l-62 63q-25 26 -85 50q19 -420 18 -469q37 25 85 91q68 97 68 195z" />
    <glyph glyph-name="Q" unicode="Q" horiz-adv-x="907" 
d="M877 90q0 -23 -11 -65q-39 -13 -65 -13h-49q-53 21 -78 67l-39 90q-80 -104 -177 -115q-14 8 -19 8q-11 0 -37 -9t-41 -9q-44 0 -231 134q-114 244 -120 259q-50 134 -50 280q0 148 117 370q83 156 214 197q22 -7 36 -7q13 0 38.5 3t38.5 3q37 0 66 -15q41 -3 89 -30
q78 -44 82 -46q106 -123 131 -242l31 -265q3 -21 3 -38q0 -48 -31.5 -136.5t-31.5 -135.5q0 -29 67 -121t67 -164zM590 718q0 75 -54 267q-24 86 -130 114q-16 -7 -35 -7q-8 0 -22.5 2t-21.5 2q-99 -123 -113 -186q-58 -76 -58 -193q0 -118 16 -185q23 -95 73 -182
q59 -103 123 -126l30 -11q12 -4 65 50t53 78q0 -3 -25 54q-205 200 -205 245q0 39 30 66t70 27q67 0 196 -145q8 67 8 130z" />
    <glyph glyph-name="R" unicode="R" horiz-adv-x="923" 
d="M821 73q0 -56 -54 -88q-27 -4 -44 -4q-68 0 -120 71q-37 59 -119 174q-21 26 -89 86q-71 63 -97 78q-35 20 -56 36q-1 -7 -1 -14q0 -57 25 -167.5t25 -167.5q0 -37 -10 -85q-35 -34 -74 -34q-8 0 -113 32q-33 215 -50 591q-18 404 -40 574q-11 11 -37 32q-15 24 -15 43
q0 38 48 82q58 5 100 5q203 0 343 -92q86 -22 151 -107t65 -167q0 -240 -164 -345q-35 -19 -88 -61q80 -51 179 -152q154 -157 165 -167q70 -64 70 -153zM465 917q0 45 -41 79l-62 52q-40 29 -73 36q-26 6 -66 24v-7q0 -71 11.5 -209t10.5 -209q83 31 149 99q71 71 71 135z
" />
    <glyph glyph-name="S" unicode="S" horiz-adv-x="733" 
d="M651 394q0 -77 -77 -223q-24 -20 -99 -109q-57 -67 -117 -97q-77 -38 -161 -107q-55 0 -86 21q-9 7 -59 58q-6 21 -6 34q0 39 59 86q18 3 133 55q108 49 184 218q12 25 12 51q0 12 -3 24q-70 69 -220 192q-153 124 -221 191q-2 20 -16 61t-14 64q0 27 14 51q-1 29 19 63
q28 45 32 57q46 41 215 143q49 -1 122 46t121 47q53 0 115 -54l-4 -12q-4 -10 -2 -34q3 -40 -31 -66q-123 -98 -308 -149q-111 -80 -111 -115q0 -42 63 -85l273 -172q173 -126 173 -239z" />
    <glyph glyph-name="T" unicode="T" horiz-adv-x="988" 
d="M887 1214q0 -65 -60 -82q-17 -4 -41 -4h-16.5h-15.5q-14 0 -31 -14q-48 3 -82 3q-49 0 -125 -5v-49q0 -158 39.5 -471.5t39.5 -471.5q0 -62 -5 -132q-36 -41 -90 -41q-136 0 -136 137q0 16 2 47.5t2 47.5t5.5 51.5t5.5 53.5q0 34 -9 145q-8 91 -2 147q-22 75 -26 237
q-5 158 -29 237q-23 -2 -48 -2q-37 0 -280 29q1 14 -9 46q-19 30 -19 52q0 30 33 55l19 14q367 20 624 80q-17 2 112 2q142 0 142 -112z" />
    <glyph glyph-name="U" unicode="U" horiz-adv-x="829" 
d="M739 1214q-12 -373 -109 -955q-23 -141 -99 -195q-67 -48 -208 -45q-160 3 -247 220q-36 91 -85 348q-35 188 -31 615q25 44 62 54q19 5 83 1q34 -10 44 -38l2 -6l-6 -2l24 -14q19 -167 14 -591q21 -142 23 -152q18 -76 65 -139q-1 -30 22 -55q2 -2 47 -40h7q18 0 58 16
q57 65 75 200l22 216q17 102 17 225q0 53 -3.5 159t-3.5 159q0 109 90 109q64 0 93 -43q29 -17 44 -47z" />
    <glyph glyph-name="V" unicode="V" horiz-adv-x="855" 
d="M759 1281q-22 -136 -100 -402q-77 -261 -97 -397q2 -12 2 -25q0 -16 -6.5 -46.5t-6.5 -46.5q0 -14 12 -35l-16 -220q-28 -130 -159 -130q-51 0 -85 44q-45 153 -90 347q-10 52 -35 152q-28 92 -92 239q-15 27 -40 81l-18 72q-68 256 -68 343q0 28 24 49l46 35
q97 -35 109 -43q39 -27 45 -99q12 -140 77 -353l110 -348q41 229 97 490q19 110 70 320q26 82 105 92q83 -22 116 -119z" />
    <glyph glyph-name="W" unicode="W" horiz-adv-x="1196" 
d="M1100 1199q-45 -146 -90 -373q-63 -313 -76 -369q-22 -96 -107 -347l-28 -88q-23 -42 -86 -45q-70 26 -123 99q-8 151 -82 544q-27 -100 -41 -160q-9 -54 -29 -161q-48 -214 -129 -321q-19 -25 -51 -25q-14 0 -43 14q-39 18 -46 20q-30 267 -96 630l-116 624q42 38 78 38
q29 0 89 -29q90 -296 156 -698l216 693q32 9 44 9q36 0 91 -46q-1 -147 36 -354l66 -350q32 94 58 249q35 209 44 251q14 61 11 80l33 127q20 69 83 109q120 -20 138 -121z" />
    <glyph glyph-name="X" unicode="X" horiz-adv-x="848" 
d="M758 1283q2 -14 -2 -24l-33 -52q-51 -96 -169 -292q-17 -8 -30 -20l-15 -13q-4 -4 -10 -9q-80 -135 -80 -144q0 -61 162 -323q124 -201 158 -327l2 -12q0 -22 -29 -66q-47 -24 -79 -24q-22 0 -51 13q-62 96 -141 261q-98 208 -130 265q-78 -155 -139 -417l-51.5 -65.5
t-90.5 -28.5l-62 46q-33 30 -33 65q0 31 94 227q81 169 130 254q2 32 34 79t32 52q0 10 -23 24q-91 168 -132 250q-71 138 -120 258q28 76 89 76q38 0 72 -37q127 -143 161 -246q20 -63 64 -141q43 64 93 178q63 146 82 182q13 9 40 66q22 44 84 62l68 -30q37 -20 44 -56
q11 -24 11 -31z" />
    <glyph glyph-name="Y" unicode="Y" horiz-adv-x="855" 
d="M763 1297q0 -30 -14 -66l-138 -347q-42 -128 -138 -377l-44 -88q-44 -90 -85 -196q2 -19 2 -37q0 -64 -36 -198l-26 -72q-18 -40 -78 -40q-38 0 -81 26q-51 30 -64 74q23 89 122 323q85 201 104 328l-326 589q-5 61 62 103q20 4 33 4q85 0 156 -114q31 -50 85 -185
q44 -109 73 -159q65 161 189 495q12 11 15 15l4 6q21 29 69 29q47 0 81.5 -35t34.5 -78z" />
    <glyph glyph-name="Z" unicode="Z" horiz-adv-x="1060" 
d="M974 178q-33 -69 -98 -69q-8 0 -50 4q-25 3 -52 -4l-25 16q-16 -1 -33 -1q-25 0 -73 2.5t-73 2.5q-78 0 -133 -30q-80 0 -186 -33l-179 -60q-52 3 -92 66q-5 8 -28 29q181 370 312 610q43 81 134 237q17 22 49 67l34 57l-9 -2q-52 -13 -124 -13q-17 0 -50.5 -3.5
t-50.5 -3.5q-94 0 -145 74q-1 9 14 106q80 10 303 13q23 15 61 20q44 7 60 14q121 50 161 50q36 0 74 -24l64 -46q-4 -23 -4 -68q0 -41 -34 -68q-67 -53 -158 -183q-94 -135 -154 -187q-112 -207 -222 -473q103 10 310 25q29 1 100 11q64 9 100 9q165 0 197 -145z" />
    <glyph glyph-name="bracketleft" unicode="[" horiz-adv-x="511" 
d="M415 1286q-8 -72 -86 -111q-36 -1 -77 10l-72 20q13 -104 13 -236q0 -71 -5.5 -213t-5.5 -213q0 -194 34 -334l15 5q43 12 69 12q53 0 85 -38q29 -34 29 -79q0 -70 -81 -92q-41 -12 -139 -12q-50 0 -89 -14q-70 16 -127 87q1 51 18 166q15 106 13 167q-18 306 -50 942
q85 45 176 45q31 0 93 -5q66 -6 100 -7q66 -27 87 -100z" />
    <glyph glyph-name="backslash" unicode="\" horiz-adv-x="729" 
d="M628 66q-49 -52 -101 -52q-33 0 -69 22q-94 189 -239 652q-133 426 -258 644q-8 94 138 117q50 -40 76 -89l44 -105l24 -51l35 -111z" />
    <glyph glyph-name="bracketright" unicode="]" horiz-adv-x="508" 
d="M419 82q-60 -2 -192 -23q-123 -19 -191 -19q-54 76 -54 119q0 15 6 39q39 41 96 57q27 7 112 17q-19 119 -19 267q0 94 10.5 282.5t10.5 282.5q0 42 -1 80q-13 -1 -67 -12q-40 -8 -68 -8l-32 1l-45 64q-25 39 -25 72q0 44 89 82q28 -6 44 -6q33 0 98.5 16t99.5 16
q46 0 107 -28q0 -122 -6 -367q-4 -229 -4 -349q0 -313 31 -583z" />
    <glyph glyph-name="asciicircum" unicode="^" horiz-adv-x="574" 
d="M486 716q-27 -67 -95 -67q-5 0 -65 5q-81 84 -116 239q-28 -156 -99 -250q-39 -5 -54 -5q-72 0 -98 60q59 320 216 747q118 -11 176 -79q-4 -170 37 -331q9 -40 98 -319z" />
    <glyph glyph-name="underscore" unicode="_" horiz-adv-x="731" 
d="M723 -82q0 -52 -112 -64q-90 -10 -175 3q-26 4 -88 4q-105 0 -174 -8q-27 -3 -43 -3q-161 0 -161 59q0 30 68 48q94 3 221 17q102 11 216 11q99 0 202 -8q46 -50 46 -59z" />
    <glyph glyph-name="grave" unicode="`" horiz-adv-x="470" 
d="M367 1176q-44 -56 -122 -60q-60 16 -126 65q-69 52 -113 66q-44 39 -65 109q16 24 69 76q109 -3 164 -52l103 -98q13 -10 90 -106z" />
    <glyph glyph-name="a" unicode="a" horiz-adv-x="636" 
d="M595 88q0 -101 -97 -101q-88 0 -113 50q-3 -3 -20 -3q-39 0 -153 37q-142 47 -215 132q-37 129 -37 169q0 120 57 249q41 94 246 308q55 57 111 73q28 -11 58.5 -36t50.5 -32q24 -36 29 -78q5 -51 14 -71q-7 -31 -7 -56q0 -18 3 -53t3 -53q0 -45 -14 -80q8 -87 37 -217
q37 -169 45 -215q2 -12 2 -23zM345 256q0 36 -8 108.5t-8 108.5q0 23 3 44q-25 74 -31 166q-138 -148 -138 -311q0 -80 18 -109q5 -9 32 -20q18 0 54 -9.5t55 -9.5q8 0 12 3l6 3l5 3v23z" />
    <glyph glyph-name="b" unicode="b" horiz-adv-x="669" 
d="M584 656q0 -165 -117 -342q-34 -48 -102 -157q-42 -19 -90 -82q-41 -53 -94 -63q-1 -3 0 7l-33 -25q-54 -5 -66 -5q-40 0 -81 21q-27 56 -31 117q2 -24 2 120q0 18 -4 53t-4 52q0 35 11 105.5t10 107.5q-1 88 -15 382q-10 237 -9 382q34 47 82 47q2 0 20 -1h29l91 -73
q-12 -67 -12 -130q0 -157 9 -183q3 -8 4 -16v-8q143 -8 263 -88q137 -91 137 -221zM368 669q-7 12 -21 33q-35 50 -164 77q-1 -30 -7 -184q-5 -112 -5 -184q0 -26 12 -94l4 -20q159 175 181 372z" />
    <glyph glyph-name="c" unicode="c" horiz-adv-x="547" 
d="M468 72q0 -19 -14 -46q-53 -40 -110 -40q-96 0 -202 103q-96 94 -121 184q-12 29 -38 86q2 29 -10.5 74t-12.5 69q0 22 7 44q62 195 290 298q36 31 58 31q17 0 32 -9q57 -3 99 -73q-15 -49 -16 -50q-9 -22 -32 -43q-26 -11 -80 -28q-66 -31 -144 -155q-12 -19 -12 -40
q0 -35 26 -95q38 -91 39 -94l58 -72q34 -34 86 -35l62 -46q35 -28 35 -63z" />
    <glyph glyph-name="d" unicode="d" horiz-adv-x="673" 
d="M591 131q0 -18 -1 -26q-4 -64 -72 -94q-16 5 -17 5q-11 0 -37.5 -10.5t-44.5 -10.5q-64 0 -165 46q-121 54 -204 195q-70 122 -91 263q7 17 14 83q5 50 29 78q17 64 66 114q21 21 102 85q40 30 87 40q44 7 89 15q3 38 3 106v16q0 78 4 120q-9 30 -9 64q0 14 2.5 43.5
t2.5 44.5q0 12 -5 37t-5 38q0 48 87 88q14 -10 56 -24q31 -10 46 -31q38 -51 38 -111q0 -74 -2.5 -222.5t-2.5 -223.5q0 -61 -4.5 -184t-4.5 -184q0 -176 31 -307q8 -34 8 -53zM352 219q-4 84 -4 509q0 2 1.5 6.5t1.5 6.5q-82 -29 -132.5 -98t-50.5 -153q0 -53 35 -108
q54 -87 59 -96q28 -24 90 -67z" />
    <glyph glyph-name="e" unicode="e" horiz-adv-x="672" 
d="M589 544q0 -41 -28 -68.5t-74 -27.5q-19 0 -58 7t-58 7q-34 0 -97 -18.5t-96 -18.5l1 -2l9 -55q0 -12 -3 -22q29 -130 114 -130q16 0 47.5 2.5t47.5 2.5q102 0 125 -92q-12 -70 -76 -102q-131 2 -200 17q-106 22 -172 85q-35 54 -85 170q-26 108 -26 182q0 26 10.5 78
t10.5 81q0 44 49 107l78 99q56 42 145 74q13 -6 92 -17q54 -8 79 -45q40 -58 96 -158q69 -124 69 -156zM333 625l-2 5q-1 4 -5 13q-21 17 -39 69q-6 17 -4 17q-24 0 -52 -60q-13 -26 -26 -65q45 2 128 21z" />
    <glyph glyph-name="f" unicode="f" horiz-adv-x="679" 
d="M654 1326q0 -22 -16 -43q-40 -56 -87 -56q-14 0 -42 5t-42 5q-37 0 -77 -62.5t-40 -116.5q0 -8 3 -24.5t3 -23.5q0 -13 -2.5 -38.5t-2.5 -38.5q0 -19 4 -35q13 1 46 6q30 4 47 4q136 0 130 -167q-50 -30 -97 -30q-13 0 -41 2.5t-42 2.5q-13 0 -24 -2q46 -374 121 -630
q0 -65 -38 -97q-35 -7 -58 -7q-67 0 -119 53q-36 139 -64 329l-46 325l-11 -2q-37 -6 -60 -6q-60 0 -113 52q-3 10 -15 36q-11 21 -11 37q0 7 2 14q40 61 100 61q14 0 42 -4.5t42 -4.5q-3 13 -3 43q0 20 6 60.5t6 60.5q0 25 -14 57q42 128 54 156q38 82 105 129q26 4 63 24
q18 2 83 13q52 9 84 9q14 0 41 -3l53 -38q30 -23 30 -55z" />
    <glyph glyph-name="g" unicode="g" horiz-adv-x="687" 
d="M592 186q0 -318 -84 -521q-37 -92 -156 -155q-69 -37 -216 -83q-27 -8 -47 -8q-51 0 -90 41q-36 37 -39 81l20 17q-4 0 -9 1q-1 -4 -2 -7v5q-1 63 124 63q6 0 24 4q156 34 212 134q35 66 49 233q-13 -1 -24 -1q-15 0 -36 5q-137 36 -205 77q-105 63 -129 169q2 12 2 17
q0 13 -26 81q8 209 88 306q33 96 162 154q107 47 216 47q22 0 45 -19l38 -31q7 -20 40 -194q43 -221 43 -416zM378 196q-8 130 -30 390q-9 20 -15 67q-69 -22 -126.5 -96.5t-57.5 -141.5q0 -18 3 -46q3 -36 4 -45q6 -21 11 -42q8 -24 23 -35q9 -21 47 -39t69 -18q10 0 32 3
t34 3h6z" />
    <glyph glyph-name="h" unicode="h" horiz-adv-x="721" 
d="M636 351q0 -31 -5 -92t-5 -92q0 -125 -60 -204q10 -1 -59 -1q-43 0 -66 28q-18 7 -32 30q-22 36 -24 38q48 199 48 317q0 107 -26 184l-20 91q-15 47 -70 47q-50 0 -104 -61q-14 -252 -14 -308q0 -42 8 -126.5t8 -126.5q0 -61 -54 -95q-117 -1 -160 89v93q0 251 17 419
q-32 24 -32 70q0 20 10 52q19 13 19 19q0 15 -8 41q-9 31 -10 42q-32 184 -81 576q45 80 92 80q16 0 33 -6l3 -7q22 -1 36 -15q47 -37 57 -101q3 -16 3 -117q0 -42 11 -75q-3 -22 -3 -37q0 -34 13 -100.5t14 -100.5q10 -22 9 -55q39 19 90 19q22 0 52 -3q16 8 35 8
q14 0 39 -10t42 -8q92 -82 96 -87q24 -31 55 -131q43 -139 43 -284z" />
    <glyph glyph-name="i" unicode="i" horiz-adv-x="294" 
d="M138 993q-39 -42 -86 -42q-70 0 -99 55q-17 31 -27 108q-1 9 -8 36q-7 23 -7 34q0 22 16 42q13 18 27 35q32 18 57 18q87 0 113 -112q10 -41 14 -174zM201 99q0 -140 -99 -140q-66 0 -128 82q-1 32 14 122q3 14 3 28q0 34 -5.5 103t-5.5 104q0 28 4.5 87t4.5 91
q0 117 -29 211q18 24 21 32l3 8q14 34 94 34q34 0 56 -25q18 -13 29 -40l18 -46q-5 -60 -5 -117q0 -82 12 -246.5t12 -247.5v-18q1 -13 1 -22z" />
    <glyph glyph-name="j" unicode="j" horiz-adv-x="276" 
d="M160 1133q-1 -32 -23 -160q-47 -35 -93 -26q-93 17 -93 130q0 19 3 55v72q3 26 44 57q4 3 13 13q24 8 46 8q105 0 103 -149zM239 19v-11q-4 -27 -9 -80q-4 -127 -8 -148q-13 -82 -64 -133q-8 -34 -50 -65.5t-49 -59.5q-66 -43 -154 -64l-162 -36q-56 44 -59 47
q-33 32 -33 64q0 13 8 35.5t9 35.5q45 26 125 26q20 0 39 15q54 10 139 88q71 64 71 233q0 34 -3 100.5t-3 100.5q0 30 -18 146l-37 219q-20 128 -20 221q0 26 2 59q25 48 79 48q91 0 112 -87l21 -138q-1 -105 31.5 -309.5t32.5 -306.5z" />
    <glyph glyph-name="k" unicode="k" horiz-adv-x="693" 
d="M604 163q0 -31 -16 -58l-12 -10l2 1q-27 -40 -74 -40q-36 0 -71 25l-57 49q2 68 -35 119l-74 101q-22 11 -42 41q-15 -27 -33 -40q0 -13 -1 -46v-45q0 -61 14 -121q-10 -14 -12.5 -23t-1.5 -22q1 -20 1 -27q0 -93 -90 -93q-38 0 -80.5 38t-42.5 75q0 13 5 41.5t5 43.5
q0 21 -3 63.5t-3 64.5q0 53 14 94q-12 84 -15 186q-2 73 -1 186q2 169 2 186q0 193 -21 302q-7 41 -7 66q0 45 50 81q20 4 30 4q20 0 44 -12q38 -19 41 -20q56 -91 57 -285l4 -404q65 91 106 191q17 41 46 76q29 11 46 11q60 0 106 -88q5 -96 -56 -170l-116 -133
q96 -86 285 -354q6 -42 6 -54z" />
    <glyph glyph-name="l" unicode="l" horiz-adv-x="283" 
d="M180 46q-23 -25 -43 -28q-1 5 -2 9l-17 -18q9 -1 -31 -1q-43 0 -67 23q-53 32 -53 105q0 -13 6 71q10 149 10 301q0 135 -11 262q6 15 6 25t-3 31.5t-3 32.5q0 29 13 53q-4 32 -4 70q0 25 2 82q3 71 4 90q-68 1 -79 82q14 54 85 104q17 -5 53 6q71 21 102 -18
q20 -73 20 -298q0 -30 3.5 -90t3.5 -91v-208q0 34 5 -595z" />
    <glyph glyph-name="m" unicode="m" horiz-adv-x="1033" 
d="M951 472q0 -91 -29 -218q-18 -68 -55 -228q-40 -11 -57 -11q-59 0 -127 72q5 61 38 219q30 137 30 218q0 65 -9 86q-11 29 -52 43q-13 4 -26 4q-22 0 -62 -40l-58 -60l13 -200q8 -122 8 -200q0 -70 -8 -87q-16 -32 -87 -56q-30 17 -75 34q-36 13 -42 55q-1 5 -1 73
q0 184 -11 429q-2 44 -37 63q-54 -8 -95 -55t-42 -97q-1 -57 7 -163q8 -113 8 -164q0 -109 -45 -225q-41 21 -83 30q-51 12 -71 58q3 45 3 85q0 81 -13.5 242t-13.5 242q0 113 25 232q108 7 153 -63q92 51 183 51q90 0 153 -97q13 -18 15 -18q5 0 29 26q104 45 161 45
q136 0 199 -67q74 -79 74 -258z" />
    <glyph glyph-name="n" unicode="n" horiz-adv-x="704" 
d="M621 396q0 -144 -61 -374q-39 -6 -53 -6q-85 0 -132 69q2 61 17 197q14 121 14 188q0 130 -27 154q-34 -11 -101 -28l-71 -62q-40 -41 -38 -78q23 -146 49 -453q-39 -49 -83 -49q-36 0 -76 26t-52 63q6 49 6 95q0 90 -26.5 268t-26.5 268q0 55 9 116q35 30 67 30
q51 0 117 -72q1 -8 3 -26q47 18 139 62q47 10 85 10q53 0 113 -21q128 -156 128 -377z" />
    <glyph glyph-name="o" unicode="o" horiz-adv-x="736" 
d="M653 462q0 -57 -23 -178q-24 -128 -48 -174q-28 -54 -86 -89t-122 -35q-198 0 -296 111q-58 65 -91 182q-27 98 -27 193q0 201 106 299q88 81 182 81q21 0 59 -8q16 -27 17 -27q108 -11 182 -66q63 -48 92 -102q19 -36 40 -121l8 -30q6 -23 7 -36zM475 485q0 30 -37 76
t-68.5 54.5t-63.5 15.5q-35 9 -57 31l-69 -70q-24 -116 -24 -176q0 -93 54 -167q58 -80 143 -78h7q33 20 37 23q18 15 20 36q34 38 44 98q2 9 9 107q0 6 3 25q2 16 2 25z" />
    <glyph glyph-name="p" unicode="p" horiz-adv-x="658" 
d="M575 388q0 -157 -180 -315q-30 -27 -101.5 -68t-102.5 -69q-1 -63 7 -182q8 -124 8 -182q0 -53 -6 -111q-39 -40 -81 -40q-50 0 -87.5 30.5t-42.5 77.5q0 -2 0 80q0 183 -15 568q-15 372 -14 567v75q42 31 73 31t113 -49q143 -12 233 -65q83 -48 140 -154
q56 -101 56 -194zM370 414q0 91 -71 163q-45 12 -136 33q5 -55 5 -113q0 -29 -1 -79q-1 -53 -1 -79q0 -95 13 -161q191 110 191 236z" />
    <glyph glyph-name="q" unicode="q" horiz-adv-x="610" 
d="M594 -569q0 -32 -31 -52q-27 -18 -60 -18q-24 0 -59 11q-29 20 -69 74q-40 110 -57 489q-23 17 -91 47q-60 26 -88 54q-36 35 -79 96q-65 92 -72 101q2 39 -12 75q-16 40 -16 65q0 64 31 173q45 159 213 229l155 55q32 -7 65 -15q37 -12 37 -49q20 -21 45 -80
q-2 16 -2 -155q0 -382 7 -523q15 -304 72 -516q11 -38 11 -61zM314 392q0 116 -6 197q-74 -25 -103 -54q-53 -55 -53 -137q0 -78 19 -131q27 -79 142 -118z" />
    <glyph glyph-name="r" unicode="r" horiz-adv-x="569" 
d="M487 736q0 -47 -40 -89q-29 -9 -51 -9q-26 0 -71.5 15t-67.5 15q-10 0 -20 -6l-14 -9q-36 -25 -46 -40q-13 -19 -13 -58q0 -26 8 -80t8 -82q-2 -224 20 -352q-26 -37 -37 -46q-21 -16 -62 -16q-56 0 -122 88q17 85 17 168q0 81 -18 242.5t-18 242.5q0 42 5 95
q42 37 76 37q30 0 56 -21l44 -38q-7 0 74 32t134 32q23 0 58 -7l28 -30q52 -27 52 -84z" />
    <glyph glyph-name="s" unicode="s" horiz-adv-x="572" 
d="M499 216q0 -91 -63 -133q-167 -110 -376 -110q-59 0 -117 87q-5 52 37 103q143 4 193 12q136 22 136 87q0 24 -30 69q-42 61 -46 70l-194 127q-82 72 -79 216q22 47 71 76l91 50q145 27 256 29q15 -11 20 -14l12 -7q19 -12 37 -33q6 -41 6 -56q0 -56 -35 -71
q-18 -8 -82 -8t-125 -17q-21 -8 -61 -28q20 -29 90 -73q94 -58 105 -67q42 -33 77 -103t69 -98q1 -22 5 -60q3 -32 3 -48z" />
    <glyph glyph-name="t" unicode="t" horiz-adv-x="688" 
d="M603 768q-42 -66 -113 -66q-22 0 -64.5 9.5t-65.5 9.5l-6 -1v-6q1 -31 -8 -96l23 -221q16 -135 60 -211q9 -5 28 -14q81 -60 81 -111q0 -86 -107 -86q-24 0 -56 7q-53 38 -64 47q-33 29 -42 63q-44 44 -59 121q-3 14 -15 136q-24 248 -24 324q0 24 1 46l-13 -3
q-44 -10 -76 -10q-77 0 -123 67q-4 112 92 112q18 0 54 -6.5t55 -6.5q9 0 16 2q2 23 2 49q0 49 -10 146.5t-10 145.5q0 50 9 103l21 66q16 39 69 39q72 0 93 -60q12 -35 12 -179q0 -39 -3 -124q-3 -80 -2 -123v-26q56 1 186 -9l44 -59q19 -28 15 -75z" />
    <glyph glyph-name="u" unicode="u" horiz-adv-x="715" 
d="M624 809q-4 -37 -9 -284q-3 -198 -38 -279q-88 -265 -248 -265q-132 0 -206 83q-45 50 -101 187q-48 117 -57 282l-6 289q20 26 82 71q131 -8 131 -221q0 -32 -4 -95t-4 -95q0 -64 25 -156q26 -98 60 -141q19 -24 82 -36q51 50 84 163q30 101 30 188q0 44 -9.5 132.5
t-9.5 132.5q0 66 11 105q19 66 88 66q94 0 99 -127z" />
    <glyph glyph-name="v" unicode="v" horiz-adv-x="717" 
d="M628 828q-74 -179 -125 -420q-25 -130 -94 -409q-45 -28 -78 -28q-22 0 -50 15q-95 157 -181 428q-114 360 -147 441q56 45 107 45q67 0 101 -53q17 -25 40 -106l111 -335q61 236 65 247q44 139 116 231q25 33 70 33q73 0 65 -89z" />
    <glyph glyph-name="w" unicode="w" horiz-adv-x="932" 
d="M841 746q-35 -67 -68 -220q-46 -167 -133 -525q-12 -10 -88 -46l-69 35q-33 22 -33 65q0 62 -35 170q-19 -62 -29 -116q-21 -110 -124 -141q-107 21 -120 91q-15 83 -56 251l-83 263q-43 153 -43 270q0 66 70 66q92 0 112 -94q31 -70 60 -194q35 -147 52 -197
q23 80 49 230q10 57 24 80q23 37 75 37q21 0 58 -8q53 -63 79 -153q10 -34 35 -166q1 7 25 206q14 122 50 201q51 45 97 45q45 0 75 -41q26 -37 26 -79q0 -18 -6 -30z" />
    <glyph glyph-name="x" unicode="x" horiz-adv-x="643" 
d="M594 27q-55 -37 -132 -34q-81 79 -177 292q-36 -55 -68 -145l-51 -151l-45 -24q2 1 7 0q-24 -16 -41 -16q-77 0 -131 140l133 190q69 102 113 186q-3 7 -84 171q-71 143 -71 162q0 89 91 89q72 0 116 -71q13 -53 46 -156l28 109q21 74 38 96q29 38 76 38q20 0 61 -24h1
q47 -14 47 -75q0 -82 -48 -179l-86 -166q2 -6 97 -213q58 -127 80 -219z" />
    <glyph glyph-name="y" unicode="y" horiz-adv-x="712" 
d="M621 745q-13 -70 -13 -112q0 -58 -23 -160l-38 -160q-32 -159 -42 -263q-1 -39 -6 -115q-10 -102 -54 -217q-54 -140 -124 -186q-138 -93 -143 -95q-73 -38 -176 -35l-48 47q-26 30 -26 60q0 14 11 46l153 64q95 45 124 98q90 161 95 307q-23 44 -167 356
q-102 220 -187 360q20 66 21 67q18 33 65 33q12 3 22 3q33 0 66 -40q47 -76 116 -222q74 -157 112 -224q23 161 79 500q36 19 58 19q129 0 129 -90q0 -18 -4 -41z" />
    <glyph glyph-name="z" unicode="z" horiz-adv-x="731" 
d="M639 56q0 -46 -46 -88q-41 -8 -74 -8q-51 0 -120 18l-116 32q-31 8 -47 8q-99 0 -161 -30q-92 -4 -134 69q48 137 156 311l188 297q-98 -5 -75 -5q-61 0 -103 30q-49 35 -49 96q0 22 13 65q78 13 239 23q150 9 235 26q60 -49 78 -113q-98 -104 -200 -282
q-162 -287 -170 -298q43 -2 121 -16q82 -16 121 -18q34 -1 52 -5q35 -8 63.5 -44.5t28.5 -67.5z" />
    <glyph glyph-name="braceleft" unicode="{" horiz-adv-x="507" 
d="M507 47q0 -14 -6 -29q-8 -10 -19 -57q-44 -14 -70 -14q-91 0 -149 52q-74 67 -111 79q-66 69 -66 150q0 43 27 124.5t27 123.5q0 67 -54 94q-126 64 -126 125q0 35 47 104q52 -2 61 -2q62 0 73 38q6 20 6 61q0 86 -62 193.5t-62 137.5q0 53 60 145q100 55 200 55
q50 0 100 -18q37 -37 45 -74q4 -20 2 -85l-104 -28q-86 -27 -86 -47q0 -13 19 -39l28 -38q61 -98 61 -227q0 -122 -60 -204l37 -94q23 -56 23 -97q0 -83 -62 -168q-2 -12 -2 -26q0 -51 11 -71q5 -11 115 -58q97 -42 97 -106z" />
    <glyph glyph-name="bar" unicode="|" horiz-adv-x="297" 
d="M238 -5q-52 -76 -109 -76q-22 0 -112 48q2 94 2 169q0 260 -22 637l-38 648q30 33 88 70q63 -20 85 -34q40 -26 44 -75q0 8 0 -190q0 -141 9 -444q9 -278 7 -445q-2 -97 46 -308z" />
    <glyph glyph-name="braceright" unicode="}" horiz-adv-x="529" 
d="M444 655q0 -12 -4 -34q-43 -61 -112 -61q-35 0 -79 15l-5 -4q5 -11 53 -72q57 -72 71 -109q15 -40 15 -124q0 -123 -53 -194q-19 -21 -76 -90q-12 1 -61 1q-79 0 -104 54q-19 20 -19 50q0 79 1 61q123 66 123 149q0 46 -73 135t-73 150q0 82 78 135q-38 67 -38 119
q0 60 40 128l75 113q-14 40 -71 72l-96 46q-50 28 -88 75q12 71 17 81q17 39 69 51q-3 0 44 0q37 0 57 -21q163 -62 230 -148q34 -43 34 -130q0 -61 -26 -139q-93 -101 -93 -146q0 -9 3 -18l106 -50q55 -36 55 -95z" />
    <glyph glyph-name="asciitilde" unicode="~" horiz-adv-x="841" 
d="M749 827q0 -15 -5 -32q-14 -50 -7 -70q-67 -98 -98 -130q-73 -76 -148 -76q-96 0 -155 69l-87 132q-21 -23 -50 -91q-32 -73 -54 -103q-40 -10 -62 -10q-49 0 -84 24q-39 27 -39 72q0 85 160 270q15 3 59 17q37 13 61 13q14 0 42 -8q70 -18 106 -53q22 -22 46 -73.5
t47 -76.5q22 21 37.5 93.5t60.5 111.5q24 8 40 8q41 0 79 -19q51 -25 51 -68z" />
    <glyph glyph-name="Adieresis" unicode="&#xc4;" 
d="M773 72l-29 -60q-18 -33 -56 -33q-13 -3 -26 -3q-20 0 -102 24q-35 89 -73 281q-29 148 -68 226q-45 11 -89 11q-85 0 -119 -36q2 -31 2 -63q0 -105 -39 -374q-42 -57 -101 -57q-65 0 -87 28l-37 72q75 217 108 616q36 441 83 621l46 28q28 17 48 17q93 0 126 -64
q143 -279 199 -560q14 3 24 3q22 0 42 -12q37 -11 68 -49.5t31 -72.5q0 -3 -26 -71q-30 -22 -67 -27q53 -229 142 -445zM345 724q-2 40 -25 96q-32 81 -36 93l-34 -192q32 0 95 3zM478 1528q0 -39 -30 -75q-35 -41 -85 -41q-47 0 -102 44q-17 32 -17 63q0 81 90 127
q72 -5 111 -42q33 -32 33 -76zM203 1510q0 -24 -22 -52q-30 -36 -73 -36q-101 0 -145 110q23 42 29 49q14 19 46 43q13 -4 49 -9q31 -2 59 -14q57 -62 57 -91z" />
    <glyph glyph-name="Aring" unicode="&#xc5;" 
d="M773 72l-29 -60q-18 -33 -56 -33q-13 -3 -26 -3q-20 0 -102 24q-35 89 -73 281q-29 148 -68 226q-45 11 -89 11q-85 0 -119 -36q2 -31 2 -63q0 -105 -39 -374q-42 -57 -101 -57q-65 0 -87 28l-37 72q75 217 108 616q36 441 83 621l46 28q28 17 48 17q93 0 126 -64
q143 -279 199 -560q14 3 24 3q22 0 42 -12q37 -11 68 -49.5t31 -72.5q0 -3 -26 -71q-30 -22 -67 -27q53 -229 142 -445zM345 724q-2 40 -25 96q-32 81 -36 93l-34 -192q32 0 95 3zM482 1630q0 -84 -55 -144q-61 -67 -163 -67q-9 0 -96 5q-17 14 -63 32q-39 15 -62 46
q-48 66 -48 130q0 81 33 133q24 39 99 85q80 50 132 50q37 0 65 -28q29 -31 49 -34q109 -93 109 -208zM275 1649q0 16 -6 33q-11 7 -25 10q-66 -38 -64 -69q18 -35 46 -35q49 0 49 61z" />
    <glyph glyph-name="Ccedilla" unicode="&#xc7;" horiz-adv-x="643" 
d="M613 145q5 -16 5 -33q0 -49 -42 -94q-31 -20 -59 -20q-14 0 -103 41q-12 2 -25 7q1 -13 2 -24q69 -18 124.5 -73t55.5 -108q0 -85 -67 -145q-54 -138 -282 -129q-57 70 -57 105q0 12 6 36q41 47 110 54q66 8 81 29q12 18 12 31q0 26 -27 37q-26 6 -51 11q-77 21 -99 86
q29 143 26 199l-169 209l-63 133q-34 77 -34 142q-4 35 -4 69q0 212 133 432q94 126 291 210q33 4 53 4q78 0 80 -66q10 -19 18.5 -38t3.5 -55q-37 -33 -123 -73q-82 -37 -110 -66q-131 -136 -146 -318q-7 -22 -7 -46q0 -38 20 -101q22 -70 25 -101q129 -189 231 -259
q12 -11 59 -11q56 0 80 -9q42 -16 52 -66z" />
    <glyph glyph-name="Eacute" unicode="&#xc9;" horiz-adv-x="681" 
d="M701 107q0 -21 -16 -62q-126 -19 -318 -28q-271 -13 -335 -18q5 120 5 211q0 109 -7 327.5t-7 327.5q0 68 -25 174q-33 136 -39 173q15 53 91 109l152 -2q134 0 207 12q28 5 46 5q49 0 86.5 -39.5t37.5 -82.5t-34 -73q-13 -11 -71 -45q-26 1 -282 20l28 -317
q57 -11 88 -11q11 0 132 22q83 -5 102 -21q26 -21 26 -108q0 -23 -11 -51q-53 -50 -128 -59q-13 -2 -143 -2q-37 0 -61 -5q-1 3 -1 -193q0 -83 14 -141q31 2 63 2q33 0 98 -2t97 -2q59 0 133 6q72 -76 72 -127zM618 1645q-21 -70 -65 -109q-44 -14 -111.5 -64.5
t-127.5 -66.5q-77 4 -122 60q25 39 90 106l103 98q55 49 164 52q9 -7 69 -76z" />
    <glyph glyph-name="Ntilde" unicode="&#xd1;" horiz-adv-x="829" 
d="M745 273q0 -58 -4 -124q-10 -12 -20 -60.5t-26 -68.5q-26 -34 -83 -34q-20 0 -47 14q-133 209 -345 683q-1 -72 -12 -232q-10 -152 -10 -236q0 -53 3 -101q-29 -48 -42 -60q-28 -28 -71 -28q-57 0 -95 74q6 112 6 228q0 156 -13 423q-17 314 -19 432q7 9 19 47
q9 25 47 45l96 -6q49 -11 68 -62l59 -151q52 -104 144 -318l36 -119q18 -60 79 -161l8 -14q-34 465 -34 545q0 136 17 263q41 46 116 45q55 -20 91 -62q0 -111 -20 -164q-2 -137 25 -399q27 -269 27 -399zM648 1582q0 -72 -60 -136q-55 -58 -143 -91q-84 5 -136 56
q-88 87 -91 89q-11 -18 -11 -43q0 -13 3 -37q3 -29 4 -43q-30 -41 -81 -41q-13 0 -46 5q-21 11 -51 48q-11 30 -11 87q0 82 60 132q28 46 151 60q109 -61 176 -142q28 11 31 52q5 58 10 70q18 37 83 46q112 -31 112 -112z" />
    <glyph glyph-name="Odieresis" unicode="&#xd6;" horiz-adv-x="827" 
d="M745 690q0 -17 -7.5 -48.5t-7.5 -47.5q0 -134 -81 -277q-7 -75 -66 -138q-54 -58 -133 -87q-13 -5 -29 -5q-10 0 -29.5 5t-28.5 5q-28 -9 -60 -9q-64 0 -126 36t-94 88q-70 112 -107 330q-16 90 -16 131q0 154 0 144q14 27 26 114q10 71 47 106q34 103 185 175
q54 25 95 25q35 0 97 -14q66 -16 98 -17q54 -30 135 -99q84 -117 91 -373q11 -21 11 -44zM545 659q0 263 -124 372q-9 7 -54 13q-48 5 -66 16q-148 -44 -148 -394q0 -86 9 -118q7 -17 18 -54l25 -134q16 -43 92 -108q25 -22 55 -38q15 3 49 16q67 62 101 187q10 34 40 212
q3 19 3 30zM571 1434q0 -39 -31 -75q-35 -41 -85 -41q-47 0 -101 44q-17 32 -17 63q0 81 90 127q71 -4 111 -42q33 -32 33 -76zM296 1416q0 -24 -23 -52q-29 -36 -72 -36q-101 0 -145 110q23 42 28 49q14 19 47 43q13 -4 48 -9q32 -2 59 -14q58 -62 58 -91z" />
    <glyph glyph-name="Udieresis" unicode="&#xdc;" horiz-adv-x="829" 
d="M739 1214q-12 -373 -109 -955q-23 -141 -99 -195q-67 -48 -208 -45q-160 3 -247 220q-36 91 -85 348q-35 188 -31 615q25 44 62 54q19 5 83 1q34 -10 44 -38l2 -6q-3 -2 -6 -2l24 -14q19 -167 14 -591q21 -142 23 -152q18 -76 65 -139q-1 -30 22 -55q2 -2 47 -40h7
q18 0 58 16q57 65 75 200l22 216q17 102 17 225q0 53 -3.5 159t-3.5 158q0 110 90 110q64 0 93 -43q29 -17 44 -47zM571 1434q0 -39 -31 -75q-35 -41 -85 -41q-47 0 -101 44q-17 32 -17 63q0 81 90 127q71 -4 111 -42q33 -32 33 -76zM296 1416q0 -24 -23 -52
q-29 -36 -72 -36q-101 0 -145 110q23 42 28 49q14 19 47 43q13 -4 48 -9q32 -2 59 -14q58 -62 58 -91z" />
    <glyph glyph-name="aacute" unicode="&#xe1;" horiz-adv-x="643" 
d="M595 88q0 -101 -97 -101q-88 0 -113 50q-3 -3 -20 -3q-39 0 -153 37q-142 47 -215 132q-37 129 -37 168q0 121 57 250q41 94 246 308q55 57 111 73q28 -11 58.5 -36t50.5 -32q24 -36 28 -78q6 -51 15 -71q-7 -31 -7 -56q0 -18 3 -53t3 -53q0 -45 -14 -80q8 -87 37 -217
q37 -169 44 -215q3 -12 3 -23zM345 256q0 36 -8 108.5t-8 108.5q0 23 3 44q-25 74 -31 166q-138 -148 -138 -311q0 -80 18 -109q5 -9 32 -20q18 0 54 -9.5t55 -9.5q8 0 12 3l6 3l4 3q1 11 1 23zM561 1323q-20 -70 -64 -109q-44 -14 -114 -66q-66 -49 -126 -65q-77 5 -122 60
q25 39 91 106l104.5 98t161.5 52q10 -7 69 -76z" />
    <glyph glyph-name="agrave" unicode="&#xe0;" horiz-adv-x="642" 
d="M388 1161q-45 -55 -123 -60q-59 16 -127 66.5t-112 64.5q-44 39 -64 109q15 24 69 76q108 -3 163 -51l103 -99q14 -10 91 -106zM595 88q0 -101 -97 -101q-88 0 -113 50q-3 -3 -20 -3q-39 0 -153 37q-142 47 -215 132q-37 129 -37 168q0 121 57 250q41 94 246 308
q55 57 111 73q28 -11 58.5 -36t50.5 -32q24 -36 28 -78q6 -51 15 -71q-7 -31 -7 -56q0 -18 3 -53t3 -53q0 -45 -14 -80q8 -87 37 -217q37 -169 44 -215q3 -12 3 -23zM345 256q0 36 -8 108.5t-8 108.5q0 23 3 44q-25 74 -31 166q-138 -148 -138 -311q0 -80 18 -109
q5 -9 32 -20q18 0 54 -9.5t55 -9.5q8 0 12 3l6 3l4 3q1 11 1 23z" />
    <glyph glyph-name="acircumflex" unicode="&#xe2;" horiz-adv-x="637" 
d="M595 88q0 -101 -97 -101q-88 0 -113 50q-3 -3 -20 -3q-39 0 -153 37q-142 47 -215 132q-37 129 -37 168q0 121 57 250q41 94 246 308q55 57 111 73q28 -11 58.5 -36t50.5 -32q24 -36 28 -78q6 -51 15 -71q-7 -31 -7 -56q0 -18 3 -53t3 -53q0 -45 -14 -80q8 -87 37 -217
q37 -169 44 -215q3 -12 3 -23zM345 256q0 36 -8 108.5t-8 108.5q0 23 3 44q-25 74 -31 166q-138 -148 -138 -311q0 -80 18 -109q5 -9 32 -20q18 0 54 -9.5t55 -9.5q8 0 12 3l6 3l4 3q1 11 1 23zM534 1127q0 -68 -72 -68q-3 0 -20 1h-26q-66 22 -111 83q-52 70 -83 87
q-26 -30 -65 -97.5t-69 -100.5q-44 -6 -63 -6q-56 0 -94 45q18 69 115 187q66 80 66 144q0 11 -1 22q35 55 100 74q101 -7 147 -113q23 -54 77 -108q63 -62 83 -95q16 -28 16 -55z" />
    <glyph glyph-name="adieresis" unicode="&#xe4;" horiz-adv-x="644" 
d="M595 88q0 -101 -97 -101q-88 0 -113 50q-3 -3 -20 -3q-39 0 -153 37q-142 47 -215 132q-37 129 -37 168q0 121 57 250q41 94 246 308q55 57 111 73q28 -11 58.5 -36t50.5 -32q24 -36 28 -78q6 -51 15 -71q-7 -31 -7 -56q0 -18 3 -53t3 -53q0 -45 -14 -80q8 -87 37 -217
q37 -169 44 -215q3 -12 3 -23zM345 256q0 36 -8 108.5t-8 108.5q0 23 3 44q-25 74 -31 166q-138 -148 -138 -311q0 -80 18 -109q5 -9 32 -20q18 0 54 -9.5t55 -9.5q8 0 12 3l6 3l4 3q1 11 1 23zM561 1199q0 -38 -31 -74q-35 -42 -85 -42q-47 0 -101 45q-17 31 -17 62
q0 81 90 127q71 -4 111 -42q33 -32 33 -76zM286 1181q0 -23 -23 -51q-29 -36 -72 -36q-101 0 -146 109q24 42 29 49q14 19 47 44q13 -4 48 -10q32 -1 59 -13q58 -63 58 -92z" />
    <glyph glyph-name="atilde" unicode="&#xe3;" horiz-adv-x="643" 
d="M595 88q0 -101 -97 -101q-88 0 -113 50q-3 -3 -20 -3q-39 0 -153 37q-142 47 -215 132q-37 129 -37 168q0 121 57 250q41 94 246 308q55 57 111 73q28 -11 58.5 -36t50.5 -32q24 -36 28 -78q6 -51 15 -71q-7 -31 -7 -56q0 -18 3 -53t3 -53q0 -45 -14 -80q8 -87 37 -217
q37 -169 44 -215q3 -12 3 -23zM345 256q0 36 -8 108.5t-8 108.5q0 23 3 44q-25 74 -31 166q-138 -148 -138 -311q0 -80 18 -109q5 -9 32 -20q18 0 54 -9.5t55 -9.5q8 0 12 3l6 3l4 3q1 11 1 23zM576 1307q0 -73 -60 -136q-55 -58 -143 -91q-84 4 -136 56l-91 89
q-10 -18 -10 -43q0 -13 2 -37q3 -29 4 -44q-30 -40 -81 -40q-13 0 -46 5q-20 11 -50 48q-12 29 -12 87q0 82 60 132q28 46 151 59q109 -60 176 -141q29 11 32 52q4 57 9 69q18 38 83 47q112 -32 112 -112z" />
    <glyph glyph-name="aring" unicode="&#xe5;" horiz-adv-x="636" 
d="M595 88q0 -101 -97 -101q-88 0 -113 50q-3 -3 -20 -3q-39 0 -153 37q-142 47 -215 132q-37 129 -37 168q0 121 57 250q41 94 246 308q55 57 111 73q28 -11 58.5 -36t50.5 -32q24 -36 28 -78q6 -51 15 -71q-7 -31 -7 -56q0 -18 3 -53t3 -53q0 -45 -14 -80q8 -87 37 -217
q37 -169 44 -215q3 -12 3 -23zM345 256q0 36 -8 108.5t-8 108.5q0 23 3 44q-25 74 -31 166q-138 -148 -138 -311q0 -80 18 -109q5 -9 32 -20q18 0 54 -9.5t55 -9.5q8 0 12 3l6 3l4 3q1 11 1 23zM481 1235q0 -84 -54 -144q-61 -68 -164 -68q-9 0 -96 6q-16 14 -63 32
q-38 15 -61 46q-49 65 -49 129q0 81 33 133q25 39 99 86q81 50 133 50q37 0 64 -28q29 -31 49 -34q109 -93 109 -208zM274 1254q0 15 -5 32q-11 7 -26 10q-65 -37 -63 -68q18 -36 46 -36q48 0 48 62z" />
    <glyph glyph-name="ccedilla" unicode="&#xe7;" horiz-adv-x="547" 
d="M486 -201q0 -85 -67 -144q-53 -135 -282 -127q-57 69 -57 103q0 12 6 36q41 46 110 54q66 7 81 28q13 18 13 31q0 25 -28 36q-26 5 -51 11q-76 20 -99 84q12 53 27 160q-91 87 -118 185l-38 88q2 30 -10.5 76t-12.5 71q0 23 7 45q62 201 290 307q36 31 58 31q17 0 32 -8
q57 -3 99 -76q-15 -50 -16 -51q-9 -22 -32 -44q-26 -11 -80 -28q-66 -33 -144 -160q-12 -20 -12 -42q0 -35 26 -97q38 -94 39 -97l58 -74q34 -35 86 -36l62 -47q35 -29 35 -65q0 -20 -14 -47q-49 -39 -103 -42q57 -27 96 -72.5t39 -88.5z" />
    <glyph glyph-name="eacute" unicode="&#xe9;" horiz-adv-x="672" 
d="M589 544q0 -41 -28 -68.5t-74 -27.5q-19 0 -58 7t-58 7q-34 0 -97 -18.5t-96 -19.5l1 -1l9 -55q0 -12 -3 -22q29 -130 114 -130q16 0 47.5 2.5t47.5 2.5q102 0 125 -92q-12 -70 -76 -102q-131 2 -200 17q-106 22 -172 85q-35 54 -85 170q-26 108 -26 182q0 26 10.5 78
t10.5 81q0 44 49 107l78 99q56 42 145 74q13 -6 92 -17q54 -8 79 -45q40 -58 96 -158q69 -124 69 -156zM333 625l-2 5q-1 4 -5 13q-21 17 -39 69q-6 17 -4 17q-24 0 -52 -60q-13 -26 -26 -65q45 2 128 21zM561 1323q-20 -70 -64 -109q-44 -14 -114 -66q-66 -49 -126 -65
q-77 5 -122 60q25 39 91 106l104.5 98t161.5 52q10 -7 69 -76z" />
    <glyph glyph-name="egrave" unicode="&#xe8;" horiz-adv-x="676" 
d="M388 1116q-45 -56 -122 -60q-60 16 -126 65q-70 52 -113 66q-44 38 -65 108q15 24 69 77q108 -3 163 -52l103 -98q14 -10 91 -106zM589 544q0 -41 -28 -68.5t-74 -27.5q-19 0 -58 7t-58 7q-34 0 -97 -18.5t-96 -19.5l1 -1l9 -55q0 -12 -3 -22q29 -130 114 -130
q16 0 47.5 2.5t47.5 2.5q102 0 125 -92q-12 -70 -76 -102q-131 2 -200 17q-106 22 -172 85q-35 54 -85 170q-26 108 -26 182q0 26 10.5 78t10.5 81q0 44 49 107l78 99q56 42 145 74q13 -6 92 -17q54 -8 79 -45q40 -58 96 -158q69 -124 69 -156zM333 625l-2 5q-1 4 -5 13
q-21 17 -39 69q-6 17 -4 17q-24 0 -52 -60q-13 -26 -26 -65q45 2 128 21z" />
    <glyph glyph-name="ecircumflex" unicode="&#xea;" horiz-adv-x="672" 
d="M589 544q0 -41 -28 -68.5t-74 -27.5q-19 0 -58 7t-58 7q-34 0 -97 -18.5t-96 -19.5l1 -1l9 -55q0 -12 -3 -22q29 -130 114 -130q16 0 47.5 2.5t47.5 2.5q102 0 125 -92q-12 -70 -76 -102q-131 2 -200 17q-106 22 -172 85q-35 54 -85 170q-26 108 -26 182q0 26 10.5 78
t10.5 81q0 44 49 107l78 99q56 42 145 74q13 -6 92 -17q54 -8 79 -45q40 -58 96 -158q69 -124 69 -156zM333 625l-2 5q-1 4 -5 13q-21 17 -39 69q-6 17 -4 17q-24 0 -52 -60q-13 -26 -26 -65q45 2 128 21zM545 1086q0 -67 -73 -67h-20q-13 1 -25 0q-67 23 -112 84
q-51 69 -82 86q-27 -29 -66 -97t-69 -100q-44 -6 -63 -6q-56 0 -94 45q18 68 115 186q66 81 66 145q0 10 -1 21q35 56 100 75q101 -7 147 -113q23 -54 77 -108q63 -63 83 -96q17 -27 17 -55z" />
    <glyph glyph-name="edieresis" unicode="&#xeb;" horiz-adv-x="672" 
d="M589 544q0 -41 -28 -68.5t-74 -27.5q-19 0 -58 7t-58 7q-34 0 -97 -18.5t-96 -19.5l1 -1l9 -55q0 -12 -3 -22q29 -130 114 -130q16 0 47.5 2.5t47.5 2.5q102 0 125 -92q-12 -70 -76 -102q-131 2 -200 17q-106 22 -172 85q-35 54 -85 170q-26 108 -26 182q0 26 10.5 78
t10.5 81q0 44 49 107l78 99q56 42 145 74q13 -6 92 -17q54 -8 79 -45q40 -58 96 -158q69 -124 69 -156zM333 625l-2 5q-1 4 -5 13q-21 17 -39 69q-6 17 -4 17q-24 0 -52 -60q-13 -26 -26 -65q45 2 128 21zM546 1134q0 -39 -31 -75q-35 -41 -85 -41q-47 0 -101 44
q-17 32 -17 63q0 81 90 127q71 -5 111 -42q33 -32 33 -76zM271 1116q0 -24 -23 -52q-29 -36 -72 -36q-101 0 -145 110q23 42 28 49q14 19 47 43q13 -4 48 -9q32 -2 59 -14q58 -62 58 -91z" />
    <glyph glyph-name="iacute" unicode="&#xed;" horiz-adv-x="335" 
d="M378 1224q-21 -70 -65 -108q-44 -14 -111.5 -65t-127.5 -66q-77 4 -122 60q25 38 90 105l103 99q55 48 164 51q9 -7 69 -76zM201 95q0 -136 -99 -136q-66 0 -128 79q-1 32 14 119q3 14 3 27q0 34 -5.5 101t-5.5 100q0 28 4.5 85.5t4.5 88.5q0 114 -29 205q18 23 21 31
l3 7q14 34 94 34q34 0 56 -24q18 -13 28 -37.5l19 -46.5q-5 -58 -5 -113q0 -81 12 -240.5t12 -240.5v-17q1 -13 1 -22z" />
    <glyph glyph-name="igrave" unicode="&#xec;" horiz-adv-x="295" 
d="M162 1015q-45 -55 -122 -60q-60 16 -126 66q-69 52 -113 65q-44 39 -65 109q15 24 69 76q109 -3 164 -51l102 -99q14 -10 91 -106zM201 95q0 -136 -99 -136q-66 0 -128 79q-1 32 14 119q3 14 3 27q0 34 -5.5 101t-5.5 100q0 28 4.5 85.5t4.5 88.5q0 114 -29 205
q18 23 21 31l3 7q14 34 94 34q34 0 56 -24q18 -13 28 -37.5l19 -46.5q-5 -58 -5 -113q0 -81 12 -240.5t12 -240.5v-17q1 -13 1 -22z" />
    <glyph glyph-name="icircumflex" unicode="&#xee;" horiz-adv-x="352" 
d="M201 95q0 -136 -99 -136q-66 0 -128 79q-1 32 14 119q3 14 3 27q0 34 -5.5 101t-5.5 100q0 28 4.5 85.5t4.5 88.5q0 114 -29 205q18 23 21 31l3 7q14 34 94 34q34 0 56 -24q18 -13 28 -37.5l19 -46.5q-5 -58 -5 -113q0 -81 12 -240.5t12 -240.5v-17q1 -13 1 -22z
M392 1008q0 -68 -73 -68q-3 0 -20 1h-25q-67 22 -112 83q-51 70 -82 87q-27 -30 -66 -97.5t-69 -100.5q-44 -6 -63 -6q-56 0 -94 45q18 69 115 187q66 80 66 144q0 11 -1 21q35 56 101 75q100 -7 146 -113q23 -54 77 -108q63 -62 83 -96q17 -27 17 -54z" />
    <glyph glyph-name="idieresis" unicode="&#xef;" horiz-adv-x="295" 
d="M328 1074q0 -38 -31 -74q-35 -42 -85 -42q-47 0 -101 45q-17 31 -17 62q0 82 89 128q72 -5 111 -43q34 -32 34 -76zM53 1056q0 -23 -23 -51q-29 -36 -73 -36q-101 0 -145 109q24 42 29 49q14 20 47 44q13 -4 48 -9q32 -2 59 -14q58 -63 58 -92zM201 95q0 -136 -99 -136
q-66 0 -128 79q-1 32 14 119q3 14 3 27q0 34 -5.5 101t-5.5 100q0 28 4.5 85.5t4.5 88.5q0 114 -29 205q18 23 21 31l3 7q14 34 94 34q34 0 56 -24q18 -13 28 -37.5l19 -46.5q-5 -58 -5 -113q0 -81 12 -240.5t12 -240.5v-17q1 -13 1 -22z" />
    <glyph glyph-name="ntilde" unicode="&#xf1;" horiz-adv-x="704" 
d="M621 396q0 -144 -61 -374q-39 -6 -53 -6q-85 0 -132 69q2 61 17 197q14 121 14 188q0 130 -27 154q-34 -11 -101 -28l-71 -62q-40 -41 -38 -78q23 -146 49 -453q-39 -49 -83 -49q-36 0 -76 26t-52 63q6 49 6 95q0 90 -26.5 268t-26.5 268q0 55 9 116q35 30 67 30
q51 0 117 -72q1 -8 3 -26q47 18 139 62q47 10 85 10q53 0 113 -21q128 -156 128 -377zM566 1177q0 -73 -60 -136q-55 -58 -143 -91q-84 4 -137 56l-90 89q-11 -18 -11 -44q0 -12 3 -36q3 -29 4 -44q-30 -40 -81 -40q-13 0 -46 5q-21 11 -51 48q-11 29 -11 87q0 82 60 132
q27 46 151 59q109 -61 176 -141q28 11 31 52q5 57 10 69q18 37 83 47q112 -32 112 -112z" />
    <glyph glyph-name="oacute" unicode="&#xf3;" horiz-adv-x="736" 
d="M653 462q0 -57 -23 -178q-24 -128 -48 -174q-28 -54 -86 -89t-122 -35q-198 0 -296 111q-58 65 -91 182q-27 98 -27 193q0 201 106 299q88 81 182 81q21 0 59 -8q16 -27 17 -27q108 -11 182 -66q63 -48 92 -102q19 -36 40 -121l8 -30q6 -23 7 -36zM475 485q0 30 -37 76
t-68.5 54.5t-63.5 15.5q-35 9 -57 31l-69 -70q-24 -116 -24 -176q0 -93 54 -167q58 -80 143 -78h7q33 20 37 23q18 15 20 36q34 38 44 98q2 9 9 107q0 6 3 25q2 16 2 25zM566 1267q-20 -70 -65 -108q-43 -14 -113 -66q-66 -50 -126 -65q-77 4 -122 60q25 38 91 105
l104.5 98.5t161.5 52.5q10 -7 69 -77z" />
    <glyph glyph-name="ograve" unicode="&#xf2;" horiz-adv-x="736" 
d="M342 1055q-45 -56 -122 -60q-60 15 -126 65q-70 52 -113 66q-45 38 -65 108q15 24 69 76q108 -3 163 -51l103 -99q14 -9 91 -105zM653 462q0 -57 -23 -178q-24 -128 -48 -174q-28 -54 -86 -89t-122 -35q-198 0 -296 111q-58 65 -91 182q-27 98 -27 193q0 201 106 299
q88 81 182 81q21 0 59 -8q16 -27 17 -27q108 -11 182 -66q63 -48 92 -102q19 -36 40 -121l8 -30q6 -23 7 -36zM475 485q0 30 -37 76t-68.5 54.5t-63.5 15.5q-35 9 -57 31l-69 -70q-24 -116 -24 -176q0 -93 54 -167q58 -80 143 -78h7q33 20 37 23q18 15 20 36q34 38 44 98
q2 9 9 107q0 6 3 25q2 16 2 25z" />
    <glyph glyph-name="ocircumflex" unicode="&#xf4;" horiz-adv-x="736" 
d="M653 462q0 -57 -23 -178q-24 -128 -48 -174q-28 -54 -86 -89t-122 -35q-198 0 -296 111q-58 65 -91 182q-27 98 -27 193q0 201 106 299q88 81 182 81q21 0 59 -8q16 -27 17 -27q108 -11 182 -66q63 -48 92 -102q19 -36 40 -121l8 -30q6 -23 7 -36zM475 485q0 30 -37 76
t-68.5 54.5t-63.5 15.5q-35 9 -57 31l-69 -70q-24 -116 -24 -176q0 -93 54 -167q58 -80 143 -78h7q33 20 37 23q18 15 20 36q34 38 44 98q2 9 9 107q0 6 3 25q2 16 2 25zM545 979q0 -68 -72 -68q-4 0 -20 1h-26q-66 22 -112 83q-51 70 -82 87q-26 -30 -65 -97.5t-69 -100.5
q-44 -6 -63 -6q-56 0 -94 45q18 68 115 187q66 80 66 144q0 11 -1 21q35 56 100 75q101 -7 147 -113q23 -54 77 -108q63 -62 83 -96q16 -27 16 -54z" />
    <glyph glyph-name="odieresis" unicode="&#xf6;" horiz-adv-x="736" 
d="M653 462q0 -57 -23 -178q-24 -128 -48 -174q-28 -54 -86 -89t-122 -35q-198 0 -296 111q-58 65 -91 182q-27 98 -27 193q0 201 106 299q88 81 182 81q21 0 59 -8q16 -27 17 -27q108 -11 182 -66q63 -48 92 -102q19 -36 40 -121l8 -30q6 -23 7 -36zM475 485q0 30 -37 76
t-68.5 54.5t-63.5 15.5q-35 9 -57 31l-69 -70q-24 -116 -24 -176q0 -93 54 -167q58 -80 143 -78h7q33 20 37 23q18 15 20 36q34 38 44 98q2 9 9 107q0 6 3 25q2 16 2 25zM551 1103q0 -39 -31 -75q-35 -41 -85 -41q-47 0 -101 44q-17 32 -17 63q0 81 89 127q72 -4 111 -42
q34 -32 34 -76zM276 1085q0 -24 -23 -52q-29 -36 -72 -36q-102 0 -146 110q24 42 29 49q14 19 47 43q13 -4 48 -9q32 -2 59 -14q58 -62 58 -91z" />
    <glyph glyph-name="otilde" unicode="&#xf5;" horiz-adv-x="736" 
d="M653 462q0 -57 -23 -178q-24 -128 -48 -174q-28 -54 -86 -89t-122 -35q-198 0 -296 111q-58 65 -91 182q-27 98 -27 193q0 201 106 299q88 81 182 81q21 0 59 -8q16 -27 17 -27q108 -11 182 -66q63 -48 92 -102q19 -36 40 -121l8 -30q6 -23 7 -36zM475 485q0 30 -37 76
t-68.5 54.5t-63.5 15.5q-35 9 -57 31l-69 -70q-24 -116 -24 -176q0 -93 54 -167q58 -80 143 -78h7q33 20 37 23q18 15 20 36q34 38 44 98q2 9 9 107q0 6 3 25q2 16 2 25zM571 1204q0 -72 -60 -135q-55 -59 -143 -92q-84 5 -136 57q-88 86 -91 88q-10 -17 -10 -43
q0 -12 2 -36q3 -29 4 -44q-30 -41 -81 -41q-13 0 -46 5q-20 12 -50 49q-12 29 -12 87q0 82 60 132q28 46 151 59q109 -61 176 -142q29 12 32 52q4 58 9 70q18 37 83 47q112 -32 112 -113z" />
    <glyph glyph-name="uacute" unicode="&#xfa;" horiz-adv-x="715" 
d="M624 809q-4 -37 -9 -284q-3 -198 -38 -279q-88 -265 -248 -265q-132 0 -206 83q-45 50 -101 187q-48 117 -57 282l-6 289q20 26 82 71q131 -8 131 -221q0 -32 -4 -95t-4 -95q0 -64 25 -156q26 -98 60 -141q19 -24 82 -36q51 50 84 163q30 101 30 188q0 44 -9.5 132.5
t-9.5 132.5q0 66 11 105q19 66 88 66q94 0 99 -127zM617 1277q-21 -70 -65 -109q-44 -14 -111.5 -64.5t-127.5 -66.5q-77 5 -122 60q25 39 90 106l103 99q55 48 164 51q9 -7 69 -76z" />
    <glyph glyph-name="ugrave" unicode="&#xf9;" horiz-adv-x="715" 
d="M372 1100q-45 -56 -122 -60q-60 16 -126 65q-70 52 -113 66q-44 38 -65 108q15 24 69 77q109 -3 164 -52l102 -98q14 -10 91 -106zM624 809q-4 -37 -9 -284q-3 -198 -38 -279q-88 -265 -248 -265q-132 0 -206 83q-45 50 -101 187q-48 117 -57 282l-6 289q20 26 82 71
q131 -8 131 -221q0 -32 -4 -95t-4 -95q0 -64 25 -156q26 -98 60 -141q19 -24 82 -36q51 50 84 163q30 101 30 188q0 44 -9.5 132.5t-9.5 132.5q0 66 11 105q19 66 88 66q94 0 99 -127z" />
    <glyph glyph-name="ucircumflex" unicode="&#xfb;" horiz-adv-x="715" 
d="M624 809q-4 -37 -9 -284q-3 -198 -38 -279q-88 -265 -248 -265q-132 0 -206 83q-45 50 -101 187q-48 117 -57 282l-6 289q20 26 82 71q131 -8 131 -221q0 -32 -4 -95t-4 -95q0 -64 25 -156q26 -98 60 -141q19 -24 82 -36q51 50 84 163q30 101 30 188q0 44 -9.5 132.5
t-9.5 132.5q0 66 11 105q19 66 88 66q94 0 99 -127zM534 1127q0 -68 -72 -68q-3 0 -20 1h-26q-66 22 -111 83q-52 70 -83 87q-26 -30 -65 -97.5t-69 -100.5q-44 -6 -63 -6q-56 0 -94 45q18 69 115 187q66 80 66 144q0 11 -1 22q35 55 100 74q101 -7 147 -113q23 -54 77 -108
q63 -62 83 -95q16 -28 16 -55z" />
    <glyph glyph-name="udieresis" unicode="&#xfc;" horiz-adv-x="715" 
d="M624 809q-4 -37 -9 -284q-3 -198 -38 -279q-88 -265 -248 -265q-132 0 -206 83q-45 50 -101 187q-48 117 -57 282l-6 289q20 26 82 71q131 -8 131 -221q0 -32 -4 -95t-4 -95q0 -64 25 -156q26 -98 60 -141q19 -24 82 -36q51 50 84 163q30 101 30 188q0 44 -9.5 132.5
t-9.5 132.5q0 66 11 105q19 66 88 66q94 0 99 -127zM541 1138q0 -39 -31 -75q-35 -41 -85 -41q-47 0 -101 44q-17 32 -17 63q0 81 90 127q71 -4 111 -42q33 -32 33 -76zM266 1120q0 -23 -23 -52q-29 -36 -72 -36q-101 0 -146 110q24 42 29 49q14 19 47 44q13 -4 48 -10
q32 -2 59 -13q58 -63 58 -92z" />
    <glyph glyph-name="dagger" unicode="&#x2020;" horiz-adv-x="549" 
d="M549 1037q-18 -69 -26 -82q-22 -35 -82 -35q-3 0 -67 8q1 -21 1 -43q0 -94 -11.5 -281t-11.5 -281q0 -178 34 -332q-39 -56 -95 -56q-17 0 -96 17q-23 164 -19 480q3 325 -16 480q-52 4 -103 9q-57 12 -84 58q-13 23 -13 38q0 101 130 96q45 -1 42 -1h5q1 35 -5.5 102.5
t-6.5 98.5q0 47 10 103q63 33 114 53q73 -63 89 -153l20 -169q14 3 29 3q102 0 162 -113z" />
    <glyph glyph-name="degree" unicode="&#xb0;" horiz-adv-x="477" 
d="M374 1222q0 -76 -42 -122q-17 -84 -145 -142l-83.5 20.5t-67.5 45.5q-76 106 -76 191q0 75 42 146q54 91 150 106q63 -23 148 -60q35 -24 57 -92q17 -53 17 -93zM169 1259q-6 0 -13 -32q-19 -23 -19 -45q0 -21 14 -37q13 22 13 55q0 -1 8 33q6 26 -3 26z" />
    <glyph glyph-name="cent" unicode="&#xa2;" horiz-adv-x="685" 
d="M598 1093q3 -111 -71 -145q-53 13 -89 13q-81 0 -151 -35l-87 -89q-60 -67 -60 -99q0 -19 -3 -56.5t-3 -56.5q0 -64 45 -83q38 -50 145 -67q164 -28 169 -29q82 -27 82 -104q0 -50 -51 -74q-74 -6 -108 -6q-28 0 -52 3q0 -27 9 -82.5t9 -84.5q0 -60 -36 -120
q-34 -5 -49 -5q-94 0 -133 78q3 68 7 135q6 77 26 131q-170 94 -218 214q-19 46 -19 136q0 216 126 333q16 42 61 76l82 57q-8 51 -8 251q0 29 46 55q-1 -2 -4 -5l47 15q70 -25 94 -51q19 -22 19 -64q0 -10 -1 -36.5t-1 -44.5q0 -52 -6 -86q84 -6 114 -3z" />
    <glyph glyph-name="sterling" unicode="&#xa3;" horiz-adv-x="924" 
d="M842 271q0 -126 -100 -243q-105 -37 -242 -37q-52 0 -155.5 7t-155.5 7q-93 0 -121 75q2 64 39 121q41 63 46 97q15 87 15 149q0 183 -1 185q1 6 0 5q-16 0 -49.5 -9.5t-51.5 -9.5q-45 0 -75 32.5t-30 72.5q0 65 58 82l107 17q-18 93 -58 284l19 131q15 69 62 117l223 88
q49 -14 88 -42q47 -33 47 -68q0 -67 -47 -91q-21 -11 -103 -24q-40 -7 -57 -25q-26 -29 -26 -104q0 -77 49 -217q10 1 20 1q152 0 185 -117q-15 -86 -101 -86q-5 0 -58 6q5 -65 5 -144q0 -57 -4 -169q-4 -117 -4 -168q36 0 107.5 -13.5t107.5 -13.5q20 0 37 54l7 20
q-36 58 -36 99q0 48 40 76q33 24 77 24q136 0 136 -169z" />
    <glyph glyph-name="section" unicode="&#xa7;" horiz-adv-x="794" 
d="M713 340q0 -133 -76 -234q-87 -116 -231 -116q-159 0 -346 122v118q63 48 113 48q57 0 94.5 -59t135.5 -59q41 0 68 46q26 43 26 104q0 32 -10 62q-64 63 -207 167q-146 106 -209 167q-111 107 -111 306q0 401 361 425q71 0 225 11q56 -34 56 -99q0 -24 -9 -73
q-61 -27 -121 -30q27 1 -123 1q-84 0 -129 -34q-3 -15 -10 -33l-6 -18q35 -34 130 -97q88 -57 127 -101q146 -80 198 -254q12 -40 50 -318q4 -23 4 -52zM460 627q-5 48 -5 55.5t-32 38.5q-39 39 -41 42q-18 23 -67.5 60t-68.5 64q-39 11 -77 45q47 -129 291 -305z" />
    <glyph glyph-name="bullet" unicode="&#x2022;" horiz-adv-x="548" 
d="M459 738q0 -188 -147 -465q-131 -32 -146 -32q-53 0 -93 38q-79 76 -101 142q-18 51 -18 166q0 132 6 193t50 140q51 92 111 116q14 6 41 6q19 0 51.5 -8t49.5 -8q11 0 23 2q173 -85 173 -290z" />
    <glyph glyph-name="paragraph" unicode="&#xb6;" horiz-adv-x="1098" 
d="M1004 1278q0 -33 -21 -64q-59 -40 -136 -40q-21 0 -47 3q-47 -111 -47 -326q0 -62 3.5 -186.5t3.5 -186t43 -176t43 -176.5q0 -92 -87 -92q-104 0 -138 90q-15 37 -26 168q0 2 -12 63q-24 122 -24 496q0 76 4 349q-17 1 -30 1q-35 0 -59 -8q-6 -77 -6 -163
q0 -141 25 -421t25 -421q0 -93 -7 -120q-19 -71 -90 -71q-85 0 -132 79q-3 60 -3 110q0 45 2.5 136.5t2.5 136.5q0 142 -21 246q-137 20 -245 138q-65 71 -65 142q0 102 52 194q61 107 166 135q15 4 132 23q323 51 615 48q16 -15 25 -19l9 -5q45 -24 45 -83zM260 900
q-7 82 -25 246q-71 -37 -71 -142q0 -35 32 -69.5t64 -34.5z" />
    <glyph glyph-name="germandbls" unicode="&#xdf;" horiz-adv-x="885" 
d="M799 414q0 -124 -78 -220l-167 -168h-28q-17 -14 -33 -29q-23 -17 -51 -17q-21 0 -47 12l-56 48q-29 29 -29 66q0 19 12 47l164 105q86 57 109 153q2 7 2 13q0 65 -102 121q-180 100 -190 107q-102 79 -102 196q0 81 87 190t85 167q-25 40 -40 40q-21 0 -36 -13
q-69 -65 -107 -229q-31 -132 -31 -269q0 -136 62 -359q72 -258 83 -357q12 -17 12 -36q0 -20 -17 -47l-26 -45q-60 -8 -75 -8q-34 0 -83 25q-6 118 -75 363q-65 232 -65 361q0 -12 -8 45q-9 64 -9 128q0 175 83 372q103 246 258 246q68 0 142 -39q81 -43 106 -105
q33 -81 33 -117q0 -73 -187 -314q-1 -76 163 -141q241 -96 241 -292z" />
    <glyph glyph-name="registered" unicode="&#xae;" horiz-adv-x="1014" 
d="M925 732q0 -77 -32.5 -180.5t-76.5 -167.5q-33 -47 -120 -65q-70 25 -130 82l-106 105l-6 5l3 -10l27 -108q16 -64 16 -111q-30 -28 -90 -50q-67 11 -127 64q2 39 2 60q0 107 -43 305q-45 205 -48 304q14 36 78 83l156 -39q85 -22 143 -72q33 -29 40 -68l8 -77
q-14 -21 -91 -91q39 -39 141 -111q34 85 34 180q0 141 -92 318q-101 196 -212 196q-48 0 -89 -38q-11 -10 -62 -73.5t-81 -183.5q-25 -103 -25 -196q0 -195 43 -314q7 -15 19 -47q10 -51 50 -148q18 -120 111 -147q38 8 79 63l61 85q35 9 58 9q61 0 98 -41q25 -71 25 -86
q0 -18 -9 -42l-59 -48q-36 -29 -46 -57q-81 -67 -199 -67q-34 0 -79 6q-139 82 -203 212q-21 44 -91 276q-44 148 -44 399q0 145 27 286q24 35 54 102q33 74 51 103q106 169 257 169q21 0 63.5 -8.5t65.5 -8.5q193 -94 259 -194q192 -294 192 -563z" />
    <glyph glyph-name="copyright" unicode="&#xa9;" horiz-adv-x="880" 
d="M791 649q0 -34 -11 -102l-35 -214q-24 -115 -70 -207l-99 -98q-64 -60 -119 -60h-128q-137 67 -186 144q-63 102 -123 309t-60 324q0 485 172 622q36 29 101.5 54t111.5 25q66 0 142 -64q21 6 37 6q50 0 82 -39l49 -76q9 -13 36 -24q2 -6 46 -158q29 -100 29 -159
q0 -48 12.5 -142t12.5 -141zM593 624q0 172 -21 276q-14 73 -65 176q-49 100 -103 166q-156 -15 -216 -151q-33 -74 -50 -266q-8 -90 -8 -77q0 -62 24 -150l43 -147q6 -31 19 -91q30 -109 93 -176q27 -28 93 -28q44 0 79 49l51 83q17 57 27 98q-4 -3 -32 -18
q-142 -8 -246 126q-89 113 -95 233q5 12 13 99q6 60 46 91q50 83 138 156q25 -14 30 -14q4 0 13 1h13q54 0 76 -48q0 -13 10 -37t10 -38q0 -36 -73.5 -94.5t-73.5 -123.5q0 -112 100 -150q8 -3 41 3q21 -28 51 -88q13 74 13 140z" />
    <glyph glyph-name="trademark" unicode="&#x2122;" horiz-adv-x="1240" 
d="M1157 1005q0 -62 -44 -124q-30 -8 -46 -8q-42 0 -133 67q-6 18 -10 50q-23 -27 -72 -27q-50 0 -94 42q17 -48 17 -68q0 -96 -97 -96q-87 0 -140 83q19 68 19 143q0 33 -4 89q-4 66 -4 90q-10 -11 -24 -22q-23 -4 -39 -4q-17 0 -52 4.5t-52 4.5q-25 0 -28 -18q0 1 0 -38
q0 -38 21.5 -111t21.5 -111q0 -53 -38 -112q-69 -3 -107.5 12t-79.5 64q11 132 11 171q0 54 -9 99q-9 -1 -52 -13q-30 -9 -53 -9q-33 0 -60 15q-51 12 -51 66q0 47 1 46q24 49 72 63q24 7 99 9q39 1 39 18q0 10 -9 48q73 20 102 20q61 0 104 -51q102 14 100 14q10 0 31 -3
q44 -24 63 -60q31 39 86 39q67 0 108 -51l63 -95l74 129q43 65 139 89q18 -23 48 -41q46 -27 46 -66q0 -16 -10.5 -46.5t-10.5 -46.5q0 -43 27 -126.5t27 -127.5z" />
    <glyph glyph-name="acute" unicode="&#xb4;" horiz-adv-x="450" 
d="M363 1356q-21 -70 -65 -109q-44 -14 -111.5 -64.5t-127.5 -66.5q-77 4 -122 60q25 39 91 106l102 98q55 49 164 52q9 -7 69 -76z" />
    <glyph glyph-name="dieresis" unicode="&#xa8;" horiz-adv-x="567" 
d="M473 1322q0 -39 -31 -75q-35 -41 -85 -41q-47 0 -101 44q-17 32 -17 63q0 81 90 127q72 -4 111 -42q33 -32 33 -76zM198 1304q0 -23 -23 -52q-29 -36 -72 -36q-101 0 -145 110q23 42 28 49q14 19 47 43q13 -4 48 -9q32 -2 59 -14q58 -62 58 -91z" />
    <glyph glyph-name="AE" unicode="&#xc6;" horiz-adv-x="1138" 
d="M1055 794q0 -65 -70 -93q-25 2 -41 2q-63 0 -160 -15q-131 -20 -159 -22q-1 -20 -1 -43q0 -45 8 -137.5t8 -139.5q24 -32 24 -128v-17l1 -5q10 2 47 21q34 0 97 20.5t97 20.5q41 0 83 -24q31 -46 31 -92q0 -87 -107 -116q-35 14 -65 14q-40 0 -119 -19.5t-121 -19.5
q-92 0 -143 82q-1 104 -15 283q-16 194 -19 277l-12 -1q-85 -7 -96 -48q-1 -3 -84 -273q-51 -164 -67 -278q-51 -43 -105 -43q-41 0 -88 27q-27 67 -26 86v6q0 22 70 205l81 208q176 487 254 866q77 29 149 29q34 0 101 -7t101 -7q35 0 90.5 18t76.5 18q54 0 111 -72
q7 -34 7 -56q0 -95 -95 -117q-60 32 -124 32q2 0 -170 -17q1 -36 0 -99q-2 -70 -2 -99q0 -103 11 -174q68 -1 185 27q132 30 186 35q70 -44 70 -115zM426 839q2 0 2 1q-1 3 -3 11l-3 -12h4z" />
    <glyph glyph-name="Oslash" unicode="&#xd8;" horiz-adv-x="730" 
d="M642 813q0 -197 -68 -472q-44 -175 -138 -282q-21 -4 -64 -31q-39 -24 -68 -24q-26 0 -50 15q-35 3 -63 29l-1 -4q-16 -66 -85 -91q-12 -5 -25 -5q-39 0 -77 25q-45 30 -45 75q0 41 -2 51q20 26 49.5 102t29.5 96q0 40 -29.5 116t-30.5 117q-1 38 -9 132q-6 83 -6 131
q0 51 19 153q24 129 50 196q38 102 113 189l73 26q44 16 76 16q30 0 57 -13q4 2 43 65q36 58 92 58q75 0 118 -117q-34 -49 -52 -154q93 -168 93 -399zM285 1171q-31 -7 -61 -88l-36 -111q-36 -83 -36 -208q0 -36 3 -74q89 291 130 481zM423 840l-95 -320l-42 -115
q-38 -104 -38 -112q0 -16 21 -42l34 -39l5 -7q117 83 117 479q0 -8 -2 156z" />
    <glyph glyph-name="plusminus" unicode="&#xb1;" horiz-adv-x="731" 
d="M631 648q0 -16 -10 -38l-65 -54q-29 -5 -46 -5q-40 0 -111 26q-4 -1 -7 -2l-7 -1q28 -100 28 -108q0 -47 -47 -88q-28 -7 -48 -7q-86 0 -111 49q-16 32 -13 120q-39 -9 -76 -9q-125 0 -160 119q10 33 19 66q16 31 73 31q23 0 67 -9t66 -9q9 0 16 1q1 6 1 67q0 78 66 123
q41 -6 58 -4q82 -44 92 -154q34 9 65 9q45 0 97 -22l33 -48q20 -28 20 -53zM658 175q-9 -22 -32 -63q-25 -33 -66 -33q-14 0 -104 15q-51 8 -275 8q-13 0 -71 8q-41 6 -73 -2q-52 28 -91 93q7 24 13 48q7 21 30 46q41 1 149 -22q16 -4 28 -4q16 0 42 10q34 -2 61 -2
q44 0 132.5 7.5t132.5 7.5q49 0 81 -40q5 -7 43 -77z" />
    <glyph glyph-name="yen" unicode="&#xa5;" horiz-adv-x="846" 
d="M763 1297q0 -30 -14 -66l-138 -347l-86 -245q48 4 83 4q50 0 81 -42q5 -7 44 -81q-16 -30 -31 -61q-21 -33 -55 -38q15 -14 58 -97l-33 -65q-24 -34 -65 -34q-14 0 -105 15q-58 10 -147 10l-11 -27q2 -19 2 -37q0 -64 -36 -198l-26 -72q-18 -40 -78 -40q-38 0 -81 26
q-51 30 -64 74q28 106 102 280l-15 3q-30 5 -64 -4q-52 29 -91 97q7 25 13 50q7 22 30 48q41 1 149 -23q16 -4 28 -4q9 0 20 3l7 19q-32 5 -63 9q-35 5 -66 -3q-52 29 -90 97l12 50q7 22 30 48q42 1 149 -23q16 -4 28 -4q17 0 42 11l4 -1l-325 587q-5 61 62 103q20 4 33 4
q85 0 156 -114q31 -50 85 -185q44 -109 73 -159q65 161 189 495q12 11 15 15l4 6q21 29 69 29q47 0 81.5 -35t34.5 -78zM486 442q-21 2 -44 3l-4 -7z" />
    <glyph glyph-name="mu" unicode="&#xb5;" horiz-adv-x="679" 
d="M591 282q-12 -125 -88 -238l-78 -44q-46 -22 -86 -22q-39 0 -121 41q-4 -27 -4 -58q0 -41 10 -123t10 -123q0 -68 -33 -156q-28 9 -89 20q-53 10 -80 55q3 58 3 107q0 194 -40 540q-44 383 -50 549q10 14 13 22l4 9q20 44 76 44q36 0 64 -25l46 -49q31 -91 36 -298
q5 -188 59 -301q14 -30 32 -48q78 -25 69 -25q45 0 60 90q11 60 7 127q-1 16 -8 91q-41 166 -41 274q0 57 17 115q34 33 70 33q13 0 68 -16q47 -14 61 -57q8 -22 8 -82v-212q0 -23 6 -120q4 -73 -1 -120z" />
    <glyph glyph-name="mu" unicode="&#x3bc;" horiz-adv-x="679" 
d="M591 282q-12 -125 -88 -238l-78 -44q-46 -22 -86 -22q-39 0 -121 41q-4 -27 -4 -58q0 -41 10 -123t10 -123q0 -68 -33 -156q-28 9 -89 20q-53 10 -80 55q3 58 3 107q0 194 -40 540q-44 383 -50 549q10 14 13 22l4 9q20 44 76 44q36 0 64 -25l46 -49q31 -91 36 -298
q5 -188 59 -301q14 -30 32 -48q78 -25 69 -25q45 0 60 90q11 60 7 127q-1 16 -8 91q-41 166 -41 274q0 57 17 115q34 33 70 33q13 0 68 -16q47 -14 61 -57q8 -22 8 -82v-212q0 -23 6 -120q4 -73 -1 -120z" />
    <glyph glyph-name="ordfeminine" unicode="&#xaa;" horiz-adv-x="615" 
d="M496 809q0 -46 -31 -133q-68 41 -103 41q-17 0 -50.5 -3t-50.5 -3q-87 0 -172.5 61.5t-103.5 141.5q-6 32 -6 66q0 75 70 264q159 139 334 136q12 -28 39 -54q36 -36 36 -77q0 -11 -36 -78q0 -62 37 -180.5t37 -181.5zM534 385q-123 -43 -260 -48q-19 -1 -225 -1
q-50 0 -91 98q18 79 118 91q31 -7 55 -7q40 0 119 15.5t120 15.5q60 0 128 -34q0 -27 20 -70q7 -16 16 -60zM262 927q-29 152 -29 204q-10 -15 -31 -44q-1 -16 -11 -63q-9 -40 -9 -63q0 -33 -1 -28q2 -7 24 -6h21q15 1 25 1q6 0 11 -1z" />
    <glyph glyph-name="ordmasculine" unicode="&#xba;" horiz-adv-x="626" 
d="M492 1070q7 -189 -128 -373q-35 -6 -54 -6q-36 0 -91 13q-73 18 -90 20q-169 157 -169 331q0 102 59 205q70 121 173 121q81 0 73 0q21 -24 95 -70q56 -35 77 -92q16 -51 55 -149zM542 463q0 -21 -21 -68q-47 8 -65 8q-56 0 -163 -29t-164 -29q-39 0 -100 25
q-69 29 -69 60q0 50 -4 66l211 45q124 28 204 62q22 10 43 10q60 0 98 -58q30 -47 30 -92zM294 1048q0 41 -16 85q-20 56 -53 56q-57 -58 -57 -148q0 -59 3 -75q10 -47 47 -47q13 0 30 6q46 81 46 123z" />
    <glyph glyph-name="ae" unicode="&#xe6;" horiz-adv-x="1042" 
d="M960 563q0 -40 -28 -68t-74 -28q-19 0 -58 7t-58 7q-34 0 -97 -18.5t-96 -19.5l1 -2l9 -55q0 -12 -3 -22q29 -132 114 -132q16 0 47.5 3t47.5 3q102 0 125 -94q-12 -70 -76 -102q-150 2 -221 20q-11 -75 -95 -75q-88 0 -113 50q-3 -3 -20 -3q-39 0 -153 37
q-142 47 -215 132q-37 129 -37 169q0 120 57 249q41 94 246 308q55 57 111 73q28 -11 58.5 -36t50.5 -32q16 -24 23 -46q46 29 118 55q13 -5 92 -17q54 -8 79 -45q40 -59 96 -159q69 -126 69 -159zM704 646l-2 4q-2 5 -5 14q-21 17 -39 70q-6 16 -4 16q-24 0 -53 -60
q-12 -27 -25 -65q45 2 128 21zM345 256q0 35 -9 129q-8 82 -5 130q-24 73 -30 168q-138 -148 -138 -311q0 -80 18 -109q5 -9 32 -20q18 0 54 -9.5t55 -9.5q8 0 12 3l6 3l5 3v23z" />
    <glyph glyph-name="oslash" unicode="&#xf8;" horiz-adv-x="640" 
d="M548 452q0 -119 -106 -350q-19 -42 -67 -67q-10 -5 -92 -35q-22 -8 -23 -14q3 11 3 -28q0 -42 -25 -82q-29 -46 -74 -46q-26 0 -61 22q-42 28 -57 33q-14 38 -14 60q0 29 16 69q22 54 25 66q-59 46 -94 149q-29 84 -29 156q0 29 5 86t5 85q0 3 11 45q33 120 76 178
q40 54 155 136q51 34 174 125q10 -8 46 -25q40 -13 54 -57q-5 -13 -5 -15q0 -11 7 -33.5t7 -34.5q0 -18 -8 -35q71 -99 71 -388zM356 513q-42 -89 -57 -203q-3 -24 -8 -71q63 102 65 274zM175 611q-28 -75 -28 -178q0 -35 3 -75q24 109 24 226q0 13 1 27z" />
    <glyph glyph-name="questiondown" unicode="&#xbf;" horiz-adv-x="756" 
d="M430 1312q0 -44 -35 -71q-67 -24 -90 -24q-38 0 -67 25q-56 28 -56 102q0 46 36 81t91 41q71 -36 89 -55q32 -33 32 -99zM674 389q-8 -169 -115 -282q-130 -138 -297 -138q-74 0 -111 19l-83 42q-108 96 -108 242q0 149 87 244q12 13 202 165q4 26 4 55q0 67 -24 175
q-29 133 -34 175q39 48 116 55q27 -13 81 -47q71 -170 71 -348q0 -85 -9 -115q-14 -50 -71 -99l-147 -119q-70 -70 -70 -173q0 -19 2 -37q9 -14 29 -40q15 -3 31 -3q47 0 104 23.5t76 52.5q11 17 32 81q23 71 68 130q10 -1 78 -1q64 0 88 -57z" />
    <glyph glyph-name="exclamdown" unicode="&#xa1;" horiz-adv-x="282" 
d="M178 1337q0 -14 -3 -50q-3 -26 -1 -52q-36 -57 -95 -57q-125 0 -125 149q0 112 102 112q48 0 113 -43q9 -35 9 -59zM183 99q-12 -12 -11 -18v-17q1 -12 1 -16q0 -56 -47 -71q-23 -14 -49 -14q-57 0 -113 67q16 278 16 486q0 287 -31 554q41 35 77 35q22 0 129 -44
q18 -167 18 -641q0 -183 10 -321z" />
    <glyph glyph-name="logicalnot" unicode="&#xac;" horiz-adv-x="836" 
d="M741 603q-16 -47 -16 -88q0 -22 6.5 -63t6.5 -63q0 -85 -49 -151q-29 -19 -57 -19q-47 0 -97 56q-2 83 -4 249q-53 0 -219 -2q-138 -2 -201 -2q-38 0 -93 3q-7 11 -37 38q-21 19 -21 41q0 59 77 98q55 -13 103 -13q51 0 195.5 5.5t194.5 5.5q100 0 177 -42q15 -18 20 -33
z" />
    <glyph glyph-name="florin" unicode="&#x192;" horiz-adv-x="484" 
d="M461 1325q-69 -44 -186 -67q-108 -21 -124 -60q-3 -7 -3 -28q0 -31 48 -440q101 0 177 -47q22 -28 22 -54q0 -46 -65 -93h-114q11 -124 11 -216q0 -191 -51 -394q-35 -135 -82 -186q-63 -67 -202 -73q-48 -2 -59 0q-104 23 -130 109q12 61 27 86q22 37 75 58
q36 -7 69.5 -33.5t36.5 -27.5q45 -10 97 207q23 94 23 233q0 99 -12 233q-30 0 -91 3q-7 11 -37 42q-21 21 -21 46q0 66 77 110q29 -8 53 -12q-37 324 -37 402q0 51 7 77q45 190 357 237q9 1 18 1q63 0 116 -113z" />
    <glyph glyph-name="guillemotleft" unicode="&#xab;" horiz-adv-x="1142" 
d="M1053 348q0 -27 -25 -51l-44 -38q-204 44 -436 118q8 -15 8 -29q0 -27 -24 -51l-45 -38q-229 50 -527 148q0 70 30 108q92 34 237 105q173 84 245 114l53 -39q30 -25 30 -53q0 -45 -27 -68l-63 -41q-28 -19 -138 -56l12 -3q49 -13 92 -8l10 -4q0 28 53 56q87 32 230 102
q170 83 244 114l54 -39q29 -25 29 -53q0 -45 -26 -68l-64 -41q-27 -19 -137 -56l11 -3q49 -13 92 -8q40 -14 78 -45q48 -38 48 -73z" />
    <glyph glyph-name="guillemotright" unicode="&#xbb;" horiz-adv-x="1123" 
d="M1037 500q0 -47 -52 -84h-116q-35 0 -63 -18q-41 -12 -147 -81q-85 -55 -169 -55q-77 53 -77 96q0 32 32 57q-33 1 -45 1q-35 0 -63 -18q-42 -12 -147 -81q-86 -55 -170 -55q-76 53 -76 96q0 53 93 90l146 47q-116 25 -143 38q-66 31 -83 109l52 59q84 4 151 -22
q81 -30 118 -34q53 -6 159 -37q-7 15 -11 34l52 59q84 4 151 -22q81 -30 119.5 -34.5t129.5 -28.5q104 -28 128 -48q31 -25 31 -68zM653 495l-86 18q1 -7 1 -13q0 -18 -7 -34q34 10 92 29z" />
    <glyph glyph-name="ellipsis" unicode="&#x2026;" horiz-adv-x="860" 
d="M760 91q0 -25 -23 -44l-27 -11q-55 -20 -64 -20q-61 0 -107 41q-39 36 -48 79q28 56 131 90q58 0 101 -51q37 -44 37 -84zM489 91q0 -25 -22 -44l-28 -11q-54 -20 -64 -20q-61 0 -106 41q-39 36 -48 79q27 56 130 90q58 0 101 -51q37 -44 37 -84zM227 91q0 -25 -22 -44
l-28 -11q-54 -20 -63 -20q-61 0 -107 41q-39 36 -48 79q27 56 131 90q57 0 100 -51q37 -44 37 -84z" />
    <glyph glyph-name="nonbreakingspace" unicode="&#xa0;" horiz-adv-x="352" 
 />
    <glyph glyph-name="Agrave" unicode="&#xc0;" 
d="M773 72l-29 -60q-18 -33 -56 -33q-13 -3 -26 -3q-20 0 -102 24q-35 89 -73 281q-29 148 -68 226q-45 11 -89 11q-85 0 -119 -36q2 -31 2 -63q0 -105 -39 -374q-42 -57 -101 -57q-65 0 -87 28l-37 72q75 217 108 616q36 441 83 621l46 28q28 17 48 17q93 0 126 -64
q143 -279 199 -560q14 3 24 3q22 0 42 -12q37 -11 68 -49.5t31 -72.5q0 -3 -26 -71q-30 -22 -67 -27q53 -229 142 -445zM345 724q-2 40 -25 96q-32 81 -36 93l-34 -192q32 0 95 3zM301 1531q-45 -56 -123 -60q-59 15 -127 66t-112 65q-44 38 -64 108q15 24 69 77
q108 -3 163 -52l103 -99q14 -9 91 -105z" />
    <glyph glyph-name="Atilde" unicode="&#xc3;" 
d="M773 72l-29 -60q-18 -33 -56 -33q-13 -3 -26 -3q-20 0 -102 24q-35 89 -73 281q-29 148 -68 226q-45 11 -89 11q-85 0 -119 -36q2 -31 2 -63q0 -105 -39 -374q-42 -57 -101 -57q-65 0 -87 28l-37 72q75 217 108 616q36 441 83 621l46 28q28 17 48 17q93 0 126 -64
q143 -279 199 -560q14 3 24 3q22 0 42 -12q37 -11 68 -49.5t31 -72.5q0 -3 -26 -71q-30 -22 -67 -27q53 -229 142 -445zM345 724q-2 40 -25 96q-32 81 -36 93l-34 -192q32 0 95 3zM576 1681q0 -72 -60 -135q-55 -59 -143 -92q-84 5 -136 57q-88 86 -91 88q-10 -17 -10 -43
q0 -12 2 -36q3 -29 4 -44q-30 -41 -81 -41q-13 0 -46 5q-20 12 -50 49q-12 29 -12 87q0 82 60 132q28 46 151 59q109 -61 176 -142q29 12 32 52q4 58 9 70q18 37 83 47q112 -32 112 -113z" />
    <glyph glyph-name="Otilde" unicode="&#xd5;" horiz-adv-x="827" 
d="M745 690q0 -17 -7.5 -48.5t-7.5 -47.5q0 -134 -81 -277q-7 -75 -66 -138q-54 -58 -133 -87q-13 -5 -29 -5q-10 0 -29.5 5t-28.5 5q-28 -9 -60 -9q-64 0 -126 36t-94 88q-70 112 -107 330q-16 90 -16 131q0 154 0 144q14 27 26 114q10 71 47 106q34 103 185 175
q54 25 95 25q35 0 97 -14q66 -16 98 -17q54 -30 135 -99q84 -117 91 -373q11 -21 11 -44zM545 659q0 263 -124 372q-9 7 -54 13q-48 5 -66 16q-148 -44 -148 -394q0 -86 9 -118q7 -17 18 -54l25 -134q16 -43 92 -108q25 -22 55 -38q15 3 49 16q67 62 101 187q10 34 40 212
q3 19 3 30zM643 1577q0 -72 -60 -135q-56 -59 -143 -92q-85 5 -137 57q-87 86 -91 88q-10 -18 -10 -43q0 -13 3 -36q3 -29 4 -44q-31 -41 -81 -41q-13 0 -46 5q-21 12 -51 49q-11 29 -11 87q0 82 60 131q27 47 151 60q109 -61 175 -142q29 12 32 52q4 58 10 70q18 37 83 47
q112 -32 112 -113z" />
    <glyph glyph-name="OE" unicode="&#x152;" horiz-adv-x="1366" 
d="M1268 1306q6 -93 -81 -150q-85 13 -233 21q-156 8 -222 17q10 -296 9 -366q100 0 251 56q97 -59 116 -172l-39 -44q-22 -23 -56 -28q-39 11 -70 11q-37 0 -101 -12q-73 -13 -102 -15q-2 -115 43 -388q79 12 200 50q13 5 32 5q51 0 94.5 -37.5t43.5 -88.5q0 -64 -79 -113
q-51 8 -92 8q-70 0 -207 -22.5t-207 -22.5q-126 0 -264 62q-142 64 -212 157l-41 60q-41 59 -68 174q-24 104 -23 184q1 120 87 334q46 116 148 222q117 120 235 143q100 19 258 20q214 0 259 3q114 7 213 43q72 -52 108 -111zM560 259q0 57 -11 170.5t-11 170.5
q0 62 2.5 186t2.5 185q0 128 -10 215l-12 -5q-35 -14 -61 -14q-137 -61 -226 -248q-81 -167 -81 -329q0 -60 5 -80q8 -32 49.5 -104t67.5 -98q38 -19 107 -60q15 -3 86 -20q53 -13 87 -13q0 6 2.5 21t2.5 23z" />
    <glyph glyph-name="oe" unicode="&#x153;" horiz-adv-x="1184" 
d="M1098 496q0 -41 -27.5 -68.5t-73.5 -27.5q-19 0 -58 7t-59 7q-33 0 -96 -18.5t-96 -19.5v-1l9 -55q0 -12 -3 -22q30 -130 115 -130q16 0 47.5 2.5t47.5 2.5q102 0 124 -92q-11 -70 -75 -102q-132 2 -201 17q-106 22 -172 85l-6 14q-71 -109 -200 -109q-198 0 -296 111
q-58 65 -91 182q-27 98 -27 193q0 202 106 300q88 81 182 81q21 0 59 -7q16 -28 17 -28q136 -14 227 -105q24 27 67 85q56 42 145 74q13 -6 91 -17q54 -8 80 -45q40 -58 95 -158q69 -124 69 -156zM843 577l-2 5q-2 4 -6 13q-20 17 -38 69q-6 16 -5 16q-23 0 -52 -59
q-13 -26 -26 -65q46 2 129 21zM475 488q-2 31 -38 75.5t-67.5 52.5l-63.5 16q-35 9 -57 31l-69 -70q-24 -117 -24 -176q0 -94 54 -168q58 -81 143 -79l7 1q33 20 37 23q18 15 20 36q40 45 48 124z" />
    <glyph glyph-name="endash" unicode="&#x2013;" horiz-adv-x="573" 
d="M485 633q0 -29 -65 -60q-68 0 -155 -1q-106 -1 -154 -1q-38 0 -93 2q-7 7 -37 27q-21 14 -21 29q0 42 77 71q55 -10 103 -10q25 0 73 4t73 4q101 0 177 -30q22 -18 22 -35z" />
    <glyph glyph-name="emdash" unicode="&#x2014;" 
d="M729 633q0 -29 -65 -60q-144 0 -277 -1q-194 -1 -276 -1q-38 0 -93 2q-7 7 -37 27q-21 14 -21 29q0 42 77 71q55 -10 103 -10q51 0 195.5 4t194.5 4q100 0 177 -30q22 -18 22 -35z" />
    <glyph glyph-name="quotedblleft" unicode="&#x201c;" horiz-adv-x="552" 
d="M461 1431q0 -48 -20 -73q-3 -5 -55 -53q67 -42 67 -96q0 -22 -43 -73q-63 -13 -73 -13q-68 0 -121 71q-6 -18 -41 -58q-62 -13 -73 -13q-55 0 -104 51q-45 47 -45 87q0 67 46 107q34 31 118 61q30 10 54 10q12 0 55 -8q0 -48 -19 -73q-4 -5 -56 -53q21 -13 37 -29
q7 97 164 153q30 10 53 10q13 0 56 -8z" />
    <glyph glyph-name="quotedblright" unicode="&#x201d;" horiz-adv-x="558" 
d="M461 1301q0 -67 -46 -107q-35 -31 -119 -61q-30 -10 -53 -10q-13 0 -56 8q0 48 20 73q3 5 55 53q-21 13 -36 29q-8 -97 -164 -153q-30 -10 -54 -10q-12 0 -55 8q0 48 19 73q3 5 56 53q-68 42 -68 96q0 22 43 73q63 13 74 13q67 0 121 -71q6 18 40 58q63 13 73 13
q55 0 105 -51q45 -47 45 -87z" />
    <glyph glyph-name="quoteleft" unicode="&#x2018;" horiz-adv-x="320" 
d="M226 1425q0 -48 -19 -74q-4 -4 -56 -52q68 -42 68 -97q0 -21 -44 -73q-62 -13 -73 -13q-55 0 -104 52q-45 47 -45 86q0 68 46 108q34 31 118 60q30 11 54 11q12 0 55 -8z" />
    <glyph glyph-name="quoteright" unicode="&#x2019;" horiz-adv-x="319" 
d="M226 1295q0 -67 -46 -108q-35 -30 -118 -60q-30 -11 -54 -11q-12 0 -55 9q0 47 19 73q3 4 56 52q-68 43 -68 97q0 21 43 73q63 13 74 13q55 0 104 -52q45 -47 45 -86z" />
    <glyph glyph-name="divide" unicode="&#xf7;" horiz-adv-x="655" 
d="M566 633q0 -43 -65 -87q-69 0 -197 -2q39 -22 65 -72q23 -45 23 -81q0 -31 -22 -55l-28 -13q-54 -25 -63 -25q-61 0 -107 51q-39 44 -48 97q23 60 98 97q-64 -1 -111 -1q-37 0 -93 3q-7 11 -37 39q-21 20 -21 43q0 62 77 103q55 -14 103 -14q49 0 102 5q-49 12 -85 58
q-31 41 -38 86q27 70 131 111q57 0 100 -62q37 -54 37 -104q0 -31 -22 -55l-28 -13q-10 -6 -29 -16q28 1 60 1q100 0 176 -44q22 -26 22 -50z" />
    <glyph glyph-name="ydieresis" unicode="&#xff;" horiz-adv-x="712" 
d="M621 745q-13 -70 -13 -112q0 -58 -24 -160l-37 -160q-32 -159 -42 -263q-1 -39 -6 -115q-10 -102 -54 -217q-54 -140 -124 -186q-138 -93 -143 -95q-73 -38 -176 -35l-48 47q-26 30 -26 60q0 14 11 46l153 64q95 45 124 98q90 161 95 307q-23 44 -167 356
q-102 220 -187 360q20 66 21 67q18 33 65 33q12 3 22 3q33 0 66 -40q47 -76 116 -222q74 -158 112 -224q23 161 79 499q36 20 58 20q129 0 129 -90q0 -18 -4 -41zM547 1127q0 -39 -31 -75q-35 -41 -85 -41q-47 0 -102 44q-17 32 -17 63q0 81 90 127q72 -4 111 -42
q34 -32 34 -76zM272 1109q0 -23 -23 -52q-29 -36 -73 -36q-101 0 -145 110q24 42 29 49q14 19 46 43q13 -4 49 -9q31 -2 59 -14q58 -62 58 -91z" />
    <glyph glyph-name="Ydieresis" unicode="&#x178;" horiz-adv-x="855" 
d="M763 1297q0 -30 -14 -66l-138 -347q-42 -128 -138 -377l-44 -88q-44 -90 -85 -196q2 -19 2 -37q0 -64 -36 -198l-26 -72q-18 -40 -78 -40q-38 0 -81 26q-51 30 -64 74q23 89 122 323q85 201 104 328l-326 588q-5 62 62 104q20 4 33 4q85 0 156 -114q31 -50 85 -185
q44 -109 73 -159q65 161 189 495q12 11 15 15l4 6q21 29 69 29q47 0 81.5 -35t34.5 -78zM597 1530q0 -38 -30 -74q-35 -41 -85 -41q-47 0 -102 44q-17 32 -17 63q0 81 90 127q72 -5 111 -42q33 -33 33 -77zM322 1513q0 -24 -23 -52q-29 -36 -72 -36q-101 0 -145 109
q23 43 29 50q14 19 46 43q13 -4 49 -9q31 -2 59 -14q57 -62 57 -91z" />
    <glyph glyph-name="currency" unicode="&#xa4;" horiz-adv-x="772" 
d="M682 973q0 -12 -9 -34q-41 -30 -92.5 -46l-101.5 -31q-58 -20 -73 -53q31 7 49 7q46 0 74 -35q47 -27 47 -84q0 -52 2 -65q-44 -38 -98 -39q24 -11 40 -32q46 -36 46 -90q0 -38 -27 -65.5t-71 -27.5q-20 0 -53 12.5t-48 13.5q9 -71 96 -142l149 -108q-8 -23 -8 -25
q0 -55 -14 -73q-20 -25 -82 -25q-79 0 -182 89q-54 48 -88 123l-51 140q-18 -1 -55 -13.5t-59 -12.5q-47 0 -82 38q-32 34 -32 74q0 47 55 90h153v4q10 63 10 57q-7 0 -44 -14t-62 -14q-17 0 -45 8l-46 44q-18 21 -21 66q49 53 125 53q11 0 29.5 -1t26.5 -1q53 0 67 46
q64 227 221 246q14 2 60 28q43 23 80 23q61 0 98 -71l-1 -15q17 -29 17 -45zM404 597q-18 2 -31 2h-17q0 -5 2 -12l2 1z" />
    <glyph glyph-name="guilsinglleft" unicode="&#x2039;" horiz-adv-x="646" 
d="M556 348q0 -27 -24 -51l-45 -38q-229 50 -538 152q7 15 17 52q3 26 24 52q92 34 237 105q173 84 245 114l53 -39q30 -25 30 -53q0 -45 -27 -68l-63 -41q-28 -19 -138 -56l12 -3q49 -13 92 -8q39 -14 78 -45q47 -38 47 -73z" />
    <glyph glyph-name="guilsinglright" unicode="&#x203a;" horiz-adv-x="653" 
d="M568 500q0 -47 -52 -84h-116q-35 0 -63 -18q-42 -12 -147 -81q-86 -55 -170 -55q-76 53 -76 96q0 53 93 90l146 47q-116 25 -143 38q-66 31 -83 109l52 59q84 4 151 -22q81 -30 119.5 -34.5t128.5 -28.5q104 -28 129 -48q31 -25 31 -68z" />
    <glyph glyph-name="daggerdbl" unicode="&#x2021;" horiz-adv-x="687" 
d="M622 364q0 -28 -23 -60q-44 -25 -96 -25q-19 0 -56.5 4t-56.5 4q-8 0 -14 -1q-2 -14 -2 -31q0 -30 6 -90.5t6 -91.5q0 -53 -16 -113q-44 -22 -74 -22q-32 0 -105 33q-31 59 -31 125q0 27 7 79.5t7 80.5q-14 -1 -43.5 -8t-45.5 -7q-49 0 -89 45q-36 41 -36 84q0 98 222 93
q5 179 5 281q0 144 -8 262q-11 0 -46 -14.5t-60 -14.5q-40 0 -90 40q-53 42 -53 85q0 23 40 87q39 11 67 11q16 0 47 -3.5t47 -3.5q15 0 27 3v17q0 31 -3.5 91t-3.5 88q0 84 34 99q45 10 91 19q107 -32 107 -146q0 -17 -2.5 -51t-2.5 -51q0 -10 1 -19q200 -21 200 -125
q0 -10 -2 -21q-1 -55 -61 -70q-29 -7 -106 -5h-8q-29 -353 -29 -403q0 -79 10 -147q91 34 105 34q29 0 61 -18l48 -56q25 -35 25 -68z" />
    <glyph glyph-name="periodcentered" unicode="&#xb7;" horiz-adv-x="359" 
d="M271 734q0 -78 -23 -134q-33 -83 -199 -83q-96 43 -96 142q0 19 3.5 57.5t3.5 58.5q0 62 128 123q183 -8 183 -164z" />
    <glyph glyph-name="periodcentered" unicode="&#x2219;" horiz-adv-x="359" 
d="M271 734q0 -78 -23 -134q-33 -83 -199 -83q-96 43 -96 142q0 19 3.5 57.5t3.5 58.5q0 62 128 123q183 -8 183 -164z" />
    <glyph glyph-name="quotesinglbase" unicode="&#x201a;" horiz-adv-x="223" 
d="M223 30q0 -68 -46 -108q-34 -31 -118 -60q-30 -11 -54 -11q-12 0 -55 8q0 48 19 74q3 4 56 52q-68 42 -68 97q0 21 44 73q62 13 73 13q55 0 104 -52q45 -47 45 -86z" />
    <glyph glyph-name="quotedblbase" unicode="&#x201e;" horiz-adv-x="545" 
d="M458 30q0 -68 -46 -108q-35 -31 -119 -60q-29 -11 -53 -11q-12 0 -56 8q0 48 20 74q3 4 56 52q-22 13 -37 30q-8 -98 -164 -153q-30 -11 -54 -11q-12 0 -55 8q0 48 19 74q3 4 56 52q-68 42 -68 97q0 21 44 73q62 13 73 13q67 0 121 -71q6 17 40 58q63 13 74 13
q54 0 104 -52q45 -47 45 -86z" />
    <glyph glyph-name="perthousand" unicode="&#x2030;" horiz-adv-x="1528" 
d="M1446 380q0 -88 -106 -206q-85 -95 -178 -154q-37 -7 -68 -7q-187 0 -195 181q-86 -97 -182 -157q-37 -8 -67 -8q-196 0 -196 200q0 105 72.5 230t171.5 186q17 1 49 14.5t52 13.5q42 0 105 -68q54 -57 75 -104q6 -13 11 -29q68 104 153 157q17 1 48.5 14.5t52.5 13.5
q41 0 105 -68q54 -58 75 -104q22 -50 22 -105zM925 1300q-194 -374 -468 -845l-241 -411q-29 -52 -96 -52q-33 0 -62 27t-34 64l556 1043q-78 -12 -125 -13q4 -25 4 -51q0 -125 -70 -242q-84 -139 -213 -135q-35 1 -30 1q-95 0 -131 42q-55 64 -55 179q0 68 48 185t97 166
q41 25 117 82q106 4 170 -29q23 -1 47 -1q190 0 389 88q40 -14 60 -40zM1240 417q0 39 -14 39q-44 0 -86 -83q-37 -73 -45 -139q114 63 142 141q3 9 3 42zM266 1046q0 33 -48 101q0 -9 -2 -22q-19 -27 -52 -92q-45 -90 -45 -130q0 -17 10 -28q10 -2 18 -2q18 0 38 18
q81 35 81 155zM795 434q0 39 -14 39q-43 0 -86 -84q-37 -73 -45 -139q114 64 142 142q3 9 3 42z" />
    <glyph glyph-name="Acircumflex" unicode="&#xc2;" 
d="M773 72l-29 -60q-18 -33 -56 -33q-13 -3 -26 -3q-20 0 -102 24q-35 89 -73 281q-29 148 -68 226q-45 11 -89 11q-85 0 -119 -36q2 -31 2 -63q0 -105 -39 -374q-42 -57 -101 -57q-65 0 -87 28l-37 72q75 217 108 616q36 441 83 621l46 28q28 17 48 17q93 0 126 -64
q143 -279 199 -560q14 3 24 3q22 0 42 -12q37 -11 68 -49.5t31 -72.5q0 -3 -26 -71q-30 -22 -67 -27q53 -229 142 -445zM345 724q-2 40 -25 96q-32 81 -36 93l-34 -192q32 0 95 3zM544 1463q0 -68 -72 -68q-4 0 -20 1q-14 1 -26 0q-67 23 -112 84q-51 69 -82 86
q-26 -29 -65 -97t-69 -100q-44 -6 -63 -6q-56 0 -94 45q18 68 115 186q66 81 66 145q0 10 -2 21q36 56 101 75q101 -7 147 -114q23 -53 77 -107q63 -63 83 -96q16 -28 16 -55z" />
    <glyph glyph-name="Ecircumflex" unicode="&#xca;" horiz-adv-x="681" 
d="M701 107q0 -21 -16 -62q-126 -19 -318 -28q-271 -13 -335 -18q5 120 5 211q0 109 -7 327.5t-7 327.5q0 68 -25 174q-33 136 -39 173q15 53 91 109l152 -2q134 0 207 12q28 5 46 5q49 0 86.5 -39.5t37.5 -82.5t-34 -73q-13 -11 -71 -45q-26 1 -282 20l28 -317
q57 -11 88 -11q11 0 132 22q83 -5 102 -21q26 -21 26 -108q0 -23 -11 -51q-53 -50 -128 -59q-13 -2 -143 -2q-37 0 -61 -5q-1 3 -1 -193q0 -83 14 -141q31 2 63 2q33 0 98 -2t97 -2q59 0 133 6q72 -76 72 -127zM544 1469q0 -68 -73 -68q-3 0 -19 1h-26q-67 22 -112 84
q-51 69 -82 86q-27 -30 -66 -97.5t-68 -100.5q-45 -5 -63 -5q-57 0 -94 44q18 69 114 187q66 81 66 145q0 10 -1 21q36 55 101 74q100 -7 146 -113q23 -54 78 -108q62 -62 82 -95q17 -28 17 -55z" />
    <glyph glyph-name="Aacute" unicode="&#xc1;" 
d="M773 72l-29 -60q-18 -33 -56 -33q-13 -3 -26 -3q-20 0 -102 24q-35 89 -73 281q-29 148 -68 226q-45 11 -89 11q-85 0 -119 -36q2 -31 2 -63q0 -105 -39 -374q-42 -57 -101 -57q-65 0 -87 28l-37 72q75 217 108 616q36 441 83 621l46 28q28 17 48 17q93 0 126 -64
q143 -279 199 -560q14 3 24 3q22 0 42 -12q37 -11 68 -49.5t31 -72.5q0 -3 -26 -71q-30 -22 -67 -27q53 -229 142 -445zM345 724q-2 40 -25 96q-32 81 -36 93l-34 -192q32 0 95 3zM581 1759q-20 -69 -65 -108q-43 -14 -113 -66q-66 -49 -126 -65q-77 4 -122 60q25 39 91 106
l104.5 98t161.5 52q10 -7 69 -77z" />
    <glyph glyph-name="Edieresis" unicode="&#xcb;" horiz-adv-x="681" 
d="M701 107q0 -21 -16 -62q-126 -19 -318 -28q-271 -13 -335 -18q5 120 5 211q0 109 -7 327.5t-7 327.5q0 68 -25 174q-33 136 -39 173q15 53 91 109l152 -2q134 0 207 12q28 5 46 5q49 0 86.5 -39.5t37.5 -82.5t-34 -73q-13 -11 -71 -45q-26 1 -282 20l28 -317
q57 -11 88 -11q11 0 132 22q83 -5 102 -21q26 -21 26 -108q0 -23 -11 -51q-53 -50 -128 -59q-13 -2 -143 -2q-37 0 -61 -5q-1 3 -1 -193q0 -83 14 -141q31 2 63 2q33 0 98 -2t97 -2q59 0 133 6q72 -76 72 -127zM520 1507q0 -39 -30 -75q-35 -41 -85 -41q-47 0 -102 44
q-17 32 -17 63q0 81 90 127q72 -4 111 -42q33 -32 33 -76zM246 1489q0 -23 -23 -52q-29 -36 -73 -36q-101 0 -145 110q23 42 29 49q14 19 46 43q13 -4 49 -9q31 -2 59 -14q58 -62 58 -91z" />
    <glyph glyph-name="Egrave" unicode="&#xc8;" horiz-adv-x="681" 
d="M701 107q0 -21 -16 -62q-126 -19 -318 -28q-271 -13 -335 -18q5 120 5 211q0 109 -7 327.5t-7 327.5q0 68 -25 174q-33 136 -39 173q15 53 91 109l152 -2q134 0 207 12q28 5 46 5q49 0 86.5 -39.5t37.5 -82.5t-34 -73q-13 -11 -71 -45q-26 1 -282 20l28 -317
q57 -11 88 -11q11 0 132 22q83 -5 102 -21q26 -21 26 -108q0 -23 -11 -51q-53 -50 -128 -59q-13 -2 -143 -2q-37 0 -61 -5q-1 3 -1 -193q0 -83 14 -141q31 2 63 2q33 0 98 -2t97 -2q59 0 133 6q72 -76 72 -127zM392 1474q-44 -56 -122 -60q-59 16 -127 66.5t-112 64.5
q-44 38 -64 108q15 24 69 77q108 -3 163 -52l103 -99q14 -9 90 -105z" />
    <glyph glyph-name="Iacute" unicode="&#xcd;" horiz-adv-x="342" 
d="M192 1177l-30 -237q-21 -174 -21 -785q0 -18 -5.5 -76.5t-5.5 -75.5q0 -52 -113 -73l-50.5 25t-33.5 48q36 187 36 429q0 97 -7.5 291.5t-7.5 292.5q0 157 6 174q21 65 98 65q36 0 73 -28zM385 1697q-21 -70 -65 -109q-44 -14 -111.5 -64.5t-127.5 -66.5q-77 5 -122 60
q25 39 91 106l102 99q55 48 164 51q9 -7 69 -76z" />
    <glyph glyph-name="Icircumflex" unicode="&#xce;" horiz-adv-x="348" 
d="M192 1177l-30 -237q-21 -174 -21 -785q0 -18 -5.5 -76.5t-5.5 -75.5q0 -52 -113 -73l-50.5 25t-33.5 48q36 187 36 429q0 97 -7.5 291.5t-7.5 292.5q0 157 6 174q21 65 98 65q36 0 73 -28zM388 1427q0 -68 -72 -68q-4 0 -20 1h-26q-66 22 -112 83q-51 70 -82 87
q-26 -30 -65 -97.5t-69 -100.5q-44 -6 -63 -6q-56 0 -94 45q18 69 115 187q66 80 66 144q0 11 -1 21q35 56 100 75q101 -7 147 -113q23 -54 77 -108q63 -62 83 -96q16 -27 16 -54z" />
    <glyph glyph-name="Idieresis" unicode="&#xcf;" horiz-adv-x="261" 
d="M192 1177l-30 -237q-21 -174 -21 -785q0 -18 -5.5 -76.5t-5.5 -75.5q0 -52 -113 -73l-50.5 25t-33.5 48q36 187 36 429q0 97 -7.5 291.5t-7.5 292.5q0 157 6 174q21 65 98 65q36 0 73 -28z" />
    <glyph glyph-name="Igrave" unicode="&#xcc;" horiz-adv-x="261" 
d="M192 1177l-30 -237q-21 -174 -21 -785q0 -18 -5.5 -76.5t-5.5 -75.5q0 -52 -113 -73l-50.5 25t-33.5 48q36 187 36 429q0 97 -7.5 291.5t-7.5 292.5q0 157 6 174q21 65 98 65q36 0 73 -28zM139 1442q-44 -56 -122 -60q-59 15 -127 66t-112 65q-44 38 -65 108q16 24 69 76
q109 -3 164 -51l103 -99q14 -9 90 -105z" />
    <glyph glyph-name="Oacute" unicode="&#xd3;" horiz-adv-x="827" 
d="M745 690q0 -17 -7.5 -48.5t-7.5 -47.5q0 -134 -81 -277q-7 -75 -66 -138q-54 -58 -133 -87q-13 -5 -29 -5q-10 0 -29.5 5t-28.5 5q-28 -9 -60 -9q-64 0 -126 36t-94 88q-70 112 -107 330q-16 90 -16 131q0 154 0 144q14 27 26 114q10 71 47 106q34 103 185 175
q54 25 95 25q35 0 97 -14q66 -16 98 -17q54 -30 135 -99q84 -117 91 -373q11 -21 11 -44zM545 659q0 263 -124 372q-9 7 -54 13q-48 5 -66 16q-148 -44 -148 -394q0 -86 9 -118q7 -17 18 -54l25 -134q16 -43 92 -108q25 -22 55 -38q15 3 49 16q67 62 101 187q10 34 40 212
q3 19 3 30zM645 1595q-20 -69 -64 -108q-44 -14 -114 -66q-66 -49 -126 -65q-77 4 -122 60q25 39 91 106l104.5 98t161.5 52q10 -7 69 -77z" />
    <glyph glyph-name="Ocircumflex" unicode="&#xd4;" horiz-adv-x="827" 
d="M745 690q0 -17 -7.5 -48.5t-7.5 -47.5q0 -134 -81 -277q-7 -75 -66 -138q-54 -58 -133 -87q-13 -5 -29 -5q-10 0 -29.5 5t-28.5 5q-28 -9 -60 -9q-64 0 -126 36t-94 88q-70 112 -107 330q-16 90 -16 131q0 154 0 144q14 27 26 114q10 71 47 106q34 103 185 175
q54 25 95 25q35 0 97 -14q66 -16 98 -17q54 -30 135 -99q84 -117 91 -373q11 -21 11 -44zM545 659q0 263 -124 372q-9 7 -54 13q-48 5 -66 16q-148 -44 -148 -394q0 -86 9 -118q7 -17 18 -54l25 -134q16 -43 92 -108q25 -22 55 -38q15 3 49 16q67 62 101 187q10 34 40 212
q3 19 3 30zM616 1453q0 -68 -73 -68q-3 0 -20 1q-13 1 -25 0q-67 23 -112 84q-51 69 -82 86q-27 -29 -66 -97t-69 -100q-44 -6 -63 -6q-56 0 -94 45q18 68 115 186q66 81 66 145q0 10 -1 21q35 56 100 75q101 -7 147 -114q23 -53 77 -107q63 -63 83 -96q17 -28 17 -55z" />
    <glyph glyph-name="Ograve" unicode="&#xd2;" horiz-adv-x="827" 
d="M745 690q0 -17 -7.5 -48.5t-7.5 -47.5q0 -134 -81 -277q-7 -75 -66 -138q-54 -58 -133 -87q-13 -5 -29 -5q-10 0 -29.5 5t-28.5 5q-28 -9 -60 -9q-64 0 -126 36t-94 88q-70 112 -107 330q-16 90 -16 131q0 154 0 144q14 27 26 114q10 71 47 106q34 103 185 175
q54 25 95 25q35 0 97 -14q66 -16 98 -17q54 -30 135 -99q84 -117 91 -373q11 -21 11 -44zM545 659q0 263 -124 372q-9 7 -54 13q-48 5 -66 16q-148 -44 -148 -394q0 -86 9 -118q7 -17 18 -54l25 -134q16 -43 92 -108q25 -22 55 -38q15 3 49 16q67 62 101 187q10 34 40 212
q3 19 3 30zM417 1418q-44 -55 -122 -60q-59 16 -127 66.5t-112 64.5q-44 39 -65 109q16 24 69 76q109 -3 164 -52l103 -98q14 -10 90 -106z" />
    <glyph glyph-name="Uacute" unicode="&#xda;" horiz-adv-x="829" 
d="M739 1214q-12 -373 -109 -955q-23 -141 -99 -195q-67 -48 -208 -45q-160 3 -247 220q-36 91 -85 348q-35 188 -31 615q25 44 62 54q19 5 83 1q34 -10 44 -38l2 -6q-3 -2 -6 -2l24 -14q19 -167 14 -591q21 -142 23 -152q18 -76 65 -139q-1 -30 22 -55q2 -2 47 -40h7
q18 0 58 16q57 65 75 200l22 216q17 102 17 225q0 53 -3.5 159t-3.5 158q0 110 90 110q64 0 93 -43q29 -17 44 -47zM661 1665q-21 -70 -65 -108q-44 -14 -111.5 -65t-127.5 -66q-77 4 -122 60q25 38 91 105l102 99q55 49 164 52q9 -7 69 -77z" />
    <glyph glyph-name="Ucircumflex" unicode="&#xdb;" horiz-adv-x="829" 
d="M739 1214q-12 -373 -109 -955q-23 -141 -99 -195q-67 -48 -208 -45q-160 3 -247 220q-36 91 -85 348q-35 188 -31 615q25 44 62 54q19 5 83 1q34 -10 44 -38l2 -6q-3 -2 -6 -2l24 -14q19 -167 14 -591q21 -142 23 -152q18 -76 65 -139q-1 -30 22 -55q2 -2 47 -40h7
q18 0 58 16q57 65 75 200l22 216q17 102 17 225q0 53 -3.5 159t-3.5 158q0 110 90 110q64 0 93 -43q29 -17 44 -47zM616 1453q0 -68 -73 -68q-3 0 -20 1q-13 1 -25 0q-67 23 -112 84q-51 69 -82 86q-27 -29 -66 -97t-69 -100q-44 -6 -63 -6q-56 0 -94 45q18 68 115 186
q66 81 66 145q0 10 -1 21q35 56 100 75q101 -7 147 -114q23 -53 77 -107q63 -63 83 -96q17 -28 17 -55z" />
    <glyph glyph-name="Ugrave" unicode="&#xd9;" horiz-adv-x="829" 
d="M739 1214q-12 -373 -109 -955q-23 -141 -99 -195q-67 -48 -208 -45q-160 3 -247 220q-36 91 -85 348q-35 188 -31 615q25 44 62 54q19 5 83 1q34 -10 44 -38l2 -6q-3 -2 -6 -2l24 -14q19 -167 14 -591q21 -142 23 -152q18 -76 65 -139q-1 -30 22 -55q2 -2 47 -40h7
q18 0 58 16q57 65 75 200l22 216q17 102 17 225q0 53 -3.5 159t-3.5 158q0 110 90 110q64 0 93 -43q29 -17 44 -47zM418 1444q-45 -56 -122 -60q-60 15 -126 65q-70 52 -113 66q-44 38 -65 108q15 24 69 77q109 -4 164 -52l102 -99q14 -9 91 -105z" />
    <glyph glyph-name="circumflex" unicode="&#x2c6;" horiz-adv-x="658" 
d="M565 1060q0 -68 -73 -68q-3 0 -19 1q-14 1 -26 0q-67 22 -112 84q-51 69 -82 86q-27 -29 -66 -97t-68 -101q-45 -5 -63 -5q-57 0 -94 45q18 68 114 186q66 81 66 145q0 10 -1 21q36 56 101 75q100 -7 146 -114q23 -53 78 -107q62 -63 82 -96q17 -28 17 -55z" />
    <glyph glyph-name="tilde" unicode="&#x2dc;" horiz-adv-x="690" 
d="M597 1342q0 -72 -60 -135q-56 -59 -143 -92q-85 5 -137 57q-87 86 -91 88q-10 -17 -10 -43q0 -13 3 -36q3 -29 4 -44q-31 -41 -81 -41q-13 0 -47 5q-20 12 -50 49q-11 29 -11 87q0 82 60 131q27 47 151 60q109 -61 175 -142q29 12 32 52q4 58 10 70q17 37 83 47
q112 -32 112 -113z" />
    <glyph glyph-name="macron" unicode="&#xaf;" horiz-adv-x="585" 
d="M585 1388q0 -9 -4 -19q-1 -3 -12 -23q-43 -14 -178 -31q-123 -15 -165 -15q-20 0 -65 5q-40 5 -65 4l-78 21q-33 10 -67 41l16.5 39.5t35.5 33.5q44 5 76 5q27 0 76.5 -6.5t75.5 -6.5q9 0 46 2q76 5 106 18q66 4 75 4q127 0 127 -72z" />
    <glyph glyph-name="macron" unicode="&#x2c9;" horiz-adv-x="585" 
d="M585 1388q0 -9 -4 -19q-1 -3 -12 -23q-43 -14 -178 -31q-123 -15 -165 -15q-20 0 -65 5q-40 5 -65 4l-78 21q-33 10 -67 41l16.5 39.5t35.5 33.5q44 5 76 5q27 0 76.5 -6.5t75.5 -6.5q9 0 46 2q76 5 106 18q66 4 75 4q127 0 127 -72z" />
    <glyph glyph-name="cedilla" unicode="&#xb8;" horiz-adv-x="486" 
d="M486 -218q0 -80 -67 -135q-53 -127 -282 -119q-57 64 -57 97q0 11 6 33q41 43 110 50q66 7 81 27q13 17 13 29q0 24 -28 33q-26 6 -51 11q-76 19 -99 79q30 138 25 198q40 55 83 55q12 0 53 -8q15 -61 33 -184q69 -16 124.5 -67t55.5 -99z" />
    <glyph glyph-name="Scaron" unicode="&#x160;" horiz-adv-x="733" 
d="M651 394q0 -77 -77 -223q-24 -20 -99 -109q-57 -67 -117 -97q-77 -38 -161 -107q-55 0 -86 21q-9 7 -59 58q-6 21 -6 34q0 39 59 86q18 3 133 55q108 49 184 218q12 25 12 51q0 12 -3 24q-70 69 -220 192q-153 124 -221 191q-2 20 -17 62q-13 39 -13 63q0 27 14 51
q-1 29 19 63q28 45 32 57q46 41 215 143q49 -1 122 46t121 47q53 0 115 -54l-4 -12q-4 -10 -2 -34q3 -40 -31 -66q-123 -98 -308 -149q-111 -80 -111 -115q0 -42 63 -85l273 -172q173 -126 173 -239zM582 1658q0 -28 -17 -55q-20 -34 -82 -97q-55 -54 -78 -107
q-46 -107 -147 -114q-66 19 -102 76q2 10 2 20q0 58 -45 119l-86 107q-35 48 -50 106q37 46 95 46q19 0 63 -6q30 -33 69 -100.5t65 -96.5q32 17 83 86q44 61 111 83q12 0 26 1h20q73 0 73 -68z" />
    <glyph glyph-name="scaron" unicode="&#x161;" horiz-adv-x="597" 
d="M499 216q0 -91 -63 -133q-167 -110 -376 -110q-59 0 -117 87q-5 52 37 103q143 4 193 12q136 22 136 87q0 24 -31 69q-41 61 -45 70l-194 127q-82 72 -79 216q22 47 71 76l91 50q145 27 256 29l19 -14l13 -7q19 -12 37 -33q6 -41 6 -56q0 -56 -35 -71q-18 -8 -82 -8
t-125 -17q-21 -8 -61 -28q20 -29 90 -73q94 -58 105 -67q42 -33 77 -103t69 -98q1 -22 5 -60q3 -32 3 -48zM508 1326q0 -27 -16 -55q-20 -33 -83 -96q-55 -55 -77 -108q-47 -107 -148 -114q-66 20 -101 76q1 11 1 21q0 57 -45 119l-86 106q-35 49 -50 107q38 45 95 45
q19 0 64 -6q29 -32 68 -100t65 -97q32 17 83 87q44 61 111 83q12 -1 26 0q16 1 20 1q73 0 73 -69z" />
    <glyph glyph-name="brokenbar" unicode="&#xa6;" horiz-adv-x="267" 
d="M180 930q0 -36 -4 -89q-12 -6 -44 -34q-22 -20 -48 -20q-68 0 -114 73q15 52 15 98q0 47 -15.5 141t-15.5 142q0 95 50 167q29 21 56 21q48 0 97 -61q0 -75 11 -219q12 -148 12 -219zM167 150q0 -35 -4 -88q-12 -6 -43 -35q-23 -20 -49 -20q-68 0 -114 73q15 52 15 98
q0 48 -15.5 142t-15.5 141q0 95 50 167q29 21 56 21q48 0 97 -61q0 -75 11 -219q12 -148 12 -219z" />
    <glyph glyph-name="Eth" unicode="&#xd0;" horiz-adv-x="731" 
d="M631 752q9 -34 9 -68q0 -28 -38 -194q-86 -166 -198 -317q-39 -22 -107 -89q-63 -64 -114 -87q-35 -2 -65 12q-47 23 -55 26l-41.5 54t-31.5 65q-1 50 -7 445q-27 1 -76 3q-6 12 -37 42q-21 21 -21 45q0 65 77 108q30 -8 55 -11q-4 215 -11 381q-55 -2 -78 20l-48 55
q-7 66 27 99q37 23 77 23q29 0 81 -16q57 -17 83 -19q56 -15 161 -59q42 -4 91 -42q60 -45 84 -54q7 -10 44 -44q27 -23 31 -55q47 -57 72 -155zM410 806q-30 81 -88 188q-11 20 -62 46q-64 33 -74 41q-5 7 -11 9q-3 -125 4 -287q102 8 191 -46q22 -28 22 -53q0 -45 -65 -92
q-90 0 -139 -3q7 -112 17 -332q28 28 89 77l67 94q34 55 42 105q18 37 18 94q0 27 -5.5 80.5t-5.5 78.5z" />
    <glyph glyph-name="eth" unicode="&#xf0;" horiz-adv-x="741" 
d="M647 1093q0 -45 -64 -92l-44 1q18 -69 74 -200q27 -102 27 -234q0 -156 -37 -268q-10 -28 -30 -94q-9 -9 -64 -84q-38 -52 -74 -77q-57 -40 -204 -28l-135 65q-68 40 -97 109q-37 89 -37 181q0 61 17 144q14 73 81 151l120 128l79 37q44 19 77 19q32 0 66 -15
q-26 62 -77 154q-32 -1 -70 -1q-37 0 -93 3q-6 11 -36 42q-22 21 -22 45q0 65 77 108l15 -3q-32 41 -66 74q-4 14 -4 29q0 40 26.5 70.5t68.5 30.5q22 0 45 -10q84 -79 157 -187q18 3 37 3q88 0 165 -47q22 -28 22 -54zM440 670q-18 -17 -39 -29q-11 2 -21 2q-42 0 -86 -34
q-69 -52 -79 -57q-76 -82 -76 -190q0 -29 6 -58q19 -52 65 -81l92 -50q32 3 71 39q5 7 45 121q30 130 22 337z" />
    <glyph glyph-name="Yacute" unicode="&#xdd;" horiz-adv-x="855" 
d="M763 1297q0 -30 -14 -66l-138 -347q-42 -128 -138 -377l-44 -88q-44 -90 -85 -196q2 -19 2 -37q0 -64 -36 -198l-26 -72q-18 -40 -78 -40q-38 0 -81 26q-51 30 -64 74q23 89 122 323q85 201 104 328l-326 588q-5 62 62 104q20 4 33 4q85 0 156 -114q31 -50 85 -185
q44 -109 73 -159q65 161 189 495q12 11 15 15l4 6q21 29 69 29q47 0 81.5 -35t34.5 -78zM700 1654q-21 -70 -65 -108q-44 -14 -111.5 -65t-127.5 -66q-77 4 -122 60q25 38 91 105l102 99q55 48 164 51q9 -7 69 -76z" />
    <glyph glyph-name="yacute" unicode="&#xfd;" horiz-adv-x="717" 
d="M621 745q-13 -70 -13 -112q0 -58 -24 -160l-37 -160q-32 -159 -42 -263q-1 -39 -6 -115q-10 -102 -54 -217q-54 -140 -124 -186q-138 -93 -143 -95q-73 -38 -176 -35l-48 47q-26 30 -26 60q0 14 11 46l153 64q95 45 124 98q90 161 95 307q-23 44 -167 356
q-102 220 -187 360q20 66 21 67q18 33 65 33q12 3 22 3q33 0 66 -40q47 -76 116 -222q74 -158 112 -224q23 161 79 499q36 20 58 20q129 0 129 -90q0 -18 -4 -41zM623 1234q-21 -70 -65 -109q-44 -14 -111.5 -64.5t-127.5 -66.5q-77 5 -122 60q25 39 90 106l103 99
q55 48 164 51q9 -7 69 -76z" />
    <glyph glyph-name="Thorn" unicode="&#xde;" horiz-adv-x="653" 
d="M567 719q0 -180 -133 -293q-75 -63 -241 -133q1 -55 6 -167q-3 -50 7 -155q-58 -41 -108 -41q-24 0 -43 8l-22 20q-34 21 -39 51q1 -6 1 63q0 200 -17.5 483.5t-17.5 483.5q0 4 -7.5 96t-7.5 128q0 95 49 167q29 21 57 21q47 0 97 -61q-1 -95 13 -259q27 -8 80 -25
q39 -14 91 -48q80 -50 87 -54q148 -83 148 -285zM346 729q0 45 -7 54q-2 2 -6 5l-11 11l-62 64q-25 25 -85 50q19 -393 18 -425q51 24 119 122q34 49 34 119z" />
    <glyph glyph-name="thorn" unicode="&#xfe;" horiz-adv-x="649" 
d="M567 403q0 -180 -133 -293q-75 -63 -241 -132q1 -56 6 -168q-3 -50 7 -155q-58 -40 -108 -40q-24 0 -43 7l-22 21q-34 20 -39 50q1 -6 1 63q0 200 -17.5 483.5t-17.5 483.5q0 4 -7.5 96t-7.5 128q0 95 49 167q29 21 57 21q47 0 97 -61q-1 -95 13 -259q27 -8 80 -25
q39 -14 91 -47q80 -51 87 -55q148 -83 148 -285zM346 413q0 45 -7 54q-2 3 -6 6l-11 10l-62 64q-25 25 -85 50q19 -392 18 -425q51 24 119 122q34 49 34 119z" />
    <glyph glyph-name="minus" unicode="&#xad;" horiz-adv-x="729" 
d="M638 648q0 -31 -64 -63q-85 0 -232 -7q-156 -7 -231 -7q-37 0 -93 2q-7 8 -37 28q-21 15 -21 31q0 45 77 74q55 -10 103 -10q51 0 150 10t150 10q100 0 176 -32q22 -18 22 -36z" />
    <glyph glyph-name="minus" unicode="&#x2212;" horiz-adv-x="729" 
d="M638 648q0 -31 -64 -63q-85 0 -232 -7q-156 -7 -231 -7q-37 0 -93 2q-7 8 -37 28q-21 15 -21 31q0 45 77 74q55 -10 103 -10q51 0 150 10t150 10q100 0 176 -32q22 -18 22 -36z" />
    <glyph glyph-name="multiply" unicode="&#xd7;" horiz-adv-x="721" 
d="M639 510q0 -26 -26 -57q-27 -34 -63 -47q-70 24 -144 80q-89 68 -126 87q-28 -11 -90 -106q-53 -81 -138 -81q-12 0 -37 3q-37 27 -62 85q5 71 69 117l119 77l-75 32q-35 21 -42 64q-11 20 -11 41q0 44 49 83q26 5 42 5q53 0 100 -36l76 -69q3 -1 6 -1q29 0 102 65.5
t134 65.5q49 0 67 -23.5l35 -46.5q7 -21 7 -33q0 -39 -60 -81q-13 -9 -99 -57l-9 -5l79 -33q44 -20 66 -53q31 -45 31 -76z" />
    <glyph glyph-name="onesuperior" unicode="&#xb9;" horiz-adv-x="262" 
d="M162 1270q0 -48 -15 -143.5t-15 -143.5q0 -56 23 -123q-53 -48 -97 -48q-20 0 -58 12q-40 90 -40 196q0 65 16 186q18 137 22 207q42 9 55 9q109 0 109 -152z" />
    <glyph glyph-name="twosuperior" unicode="&#xb2;" horiz-adv-x="601" 
d="M510 908q0 -50 -31 -65q-21 -10 -76.5 -10t-165.5 -15t-165 -15q-21 0 -54 2q-48 39 -48 92q0 19 7 45q152 185 227 318q-101 -69 -146 -69q-99 0 -98 149q102 93 294 101q23 -7 53 -32q86 -56 86 -127q0 -80 -49 -147l-96 -120h13q19 0 55.5 9.5t56.5 9.5
q63 0 100 -35.5t37 -90.5z" />
    <glyph glyph-name="threesuperior" unicode="&#xb3;" horiz-adv-x="580" 
d="M493 1042q0 -25 -16 -47q-12 -66 -76 -108l-126 -63q-24 6 -31 6q-15 0 -54 -13.5t-63 -13.5q-42 0 -79 38q-36 35 -40 75l26 51q15 20 55 34q31 -12 55 -12q19 0 51 4q37 4 51 5q25 18 29 54q-15 9 -36 9t-62.5 -7t-63.5 -7q-72 0 -87 46q-6 44 -11 89q19 24 38 38
q-95 8 -93 85l1 44l223 60q133 36 228 37q56 -61 51 -162q-43 -19 -126 -60q66 -17 94 -44q20 -21 48 -84q14 -32 14 -54z" />
    <glyph glyph-name="onehalf" unicode="&#xbd;" horiz-adv-x="659" 
d="M610 1394l-350 -1027q-10 -38 -35 -111q-9 -16 -24 -50l-44 -105q-26 -50 -76 -90q-146 24 -138 117q125 219 261 654q-23 -12 -47 -12q-20 0 -58 13q-40 97 -40 210q0 69 16 199q19 147 22 221q42 10 56 10q109 0 109 -162q0 -52 -15 -154t-15 -154q0 -33 5 -64
q109 347 203 536q36 21 69 21q52 0 101 -52z" />
    <glyph glyph-name="onequarter" unicode="&#xbc;" horiz-adv-x="883" 
d="M796 436q0 -229 -36 -424q-42 -18 -66 -18q-49 0 -93 41.5t-44 88.5q0 21 11 59.5t11 58.5q0 6 -2 10q-30 -2 -103 -18q-66 -14 -105 -14q-101 0 -131 71l-13 -36q-9 -16 -24 -50l-44 -105q-26 -50 -76 -90q-146 24 -138 117q125 219 261 655q-23 -13 -47 -13
q-20 0 -58 13q-40 97 -40 210q0 70 16 200q19 147 22 221q42 10 56 10q109 0 109 -162q0 -52 -15 -154t-15 -154q0 -33 5 -65q109 348 203 537q36 21 69 21q52 0 101 -52l-327 -957q21 26 77 122q46 78 94 123q76 -7 109 -53q18 -71 18 -73q0 -35 -29 -69q-41 -49 -46 -59
q37 0 88 9q6 15 6 35q0 19 -5.5 57.5t-5.5 57.5q0 47 28 96q37 12 61 12q121 0 121 -163q0 -18 -1.5 -50.5t-1.5 -45.5z" />
    <glyph glyph-name="threequarters" unicode="&#xbe;" horiz-adv-x="1073" 
d="M986 436q0 -229 -36 -424q-43 -18 -66 -18q-50 0 -94 41.5t-44 88.5q0 21 11.5 59.5t11.5 58.5q0 6 -2 10q-31 -2 -104 -18q-65 -14 -104 -14q-102 0 -132 71q-6 -20 -12 -36q-9 -16 -25 -50l-43 -105q-26 -50 -76 -90q-146 24 -139 117q126 219 287 737q-9 -8 -144 -81
q-24 7 -31 7q-15 0 -54 -14.5t-63 -14.5q-42 0 -78.5 39t-40.5 81l26 54q15 22 55 36q31 -12 55 -12q19 0 51 4q37 4 51 5q25 20 29 58q-15 9 -36 9t-62.5 -7t-63.5 -7q-72 0 -87 48q-6 48 -11 96q19 25 38 40q-95 9 -93 91l1 47l223 64q133 38 228 39q37 -42 46 -80
q8 -30 5 -92q-43 -20 -126 -65q67 -17 94 -47q22 -22 48 -89l4 -10q72 211 146 362q36 21 69 21q53 0 101 -52l-326 -957q20 26 76 122q46 78 94 123q77 -7 109 -53q18 -71 18 -73q0 -35 -28 -69q-41 -49 -46 -59q37 0 87 9q7 15 7 35q0 19 -5.5 57.5t-5.5 57.5q0 47 27 96
q37 12 61 12q122 0 122 -163q0 -18 -1.5 -50.5t-1.5 -45.5z" />
    <glyph glyph-name="Lslash" unicode="&#x141;" horiz-adv-x="773" 
d="M672 122q-13 -60 -68 -79l-106 -18q-36 12 -107 24q-227 3 -352 -21q-6 8 -35 28q-39 19 -44 59q22 194 26 395h-1q-11 6 -54 15q-30 6 -45 26q-18 26 -18 60q0 33 18 70q55 17 94 43l6 3q-2 114 -12 388q5 23 2 65q-3 48 -1 66q10 100 108 100q18 0 39 -4
q65 -34 75 -100q-13 -175 11 -369q33 8 70 9q64 -21 64 -79q0 -27 -13 -64q-83 -52 -133 -90q-20 -259 -2 -399q35 -10 79 -10q36 0 93 7q74 9 92 11q62 5 126 -5l57 -57q29 -33 31 -74z" />
    <glyph glyph-name="lslash" unicode="&#x142;" horiz-adv-x="399" 
d="M297 778q-79 -50 -122 -82v-55q0 34 5 -595q-23 -25 -43 -28q-1 5 -2 9l-17 -18q9 -1 -31 -1q-43 0 -67 23q-53 32 -53 105q0 -13 6 71q10 149 10 301v57l-29 -17q-12 6 -55 15q-30 7 -44 27q-19 26 -19 60q0 33 18 70q66 21 122 61q2 7 2 14q0 10 -3 31.5t-3 32.5
q0 29 13 53q-4 32 -4 70q0 25 2 82q3 71 4 90q-68 1 -79 82q14 54 85 104q17 -5 53 6q71 21 102 -18q20 -73 20 -298q0 -22 5 -118q33 8 74 9q63 -20 63 -79q0 -27 -13 -64z" />
    <glyph glyph-name="HT" horiz-adv-x="352" 
 />
    <glyph glyph-name="Zcaron" unicode="&#x17d;" horiz-adv-x="1059" 
d="M974 178q-33 -69 -98 -69q-8 0 -50 4q-25 3 -52 -4l-25 16q-16 -1 -33 -1q-25 0 -73 2.5t-73 2.5q-78 0 -133 -30q-80 0 -186 -33l-179 -60q-52 3 -92 66q-5 8 -28 29q181 370 312 610q43 81 134 237q17 22 49 67l34 57l-9 -2q-52 -13 -124 -13q-17 0 -50.5 -3.5
t-50.5 -3.5q-94 0 -145 74q-1 8 14 106q80 10 303 13q23 15 61 20q44 7 60 14q121 50 161 50q36 0 74 -24l64 -46q-4 -23 -4 -68q0 -41 -34 -68q-67 -53 -158 -183q-94 -135 -154 -187q-112 -207 -222 -473q103 10 310 25q29 1 100 11q64 9 100 9q165 0 197 -145zM767 1675
q0 -27 -17 -55q-20 -33 -83 -96q-54 -55 -77 -108q-46 -107 -148 -114q-65 20 -101 76q1 10 1 21q0 57 -45 119l-86 106q-35 48 -50 107q38 45 95 45q19 0 64 -6q30 -32 68.5 -100t65.5 -97q31 17 82 87q45 61 111 83q13 -1 26 0q17 1 20 1q74 0 74 -69z" />
    <glyph glyph-name="zcaron" unicode="&#x17e;" horiz-adv-x="711" 
d="M639 56q0 -46 -46 -88q-41 -8 -74 -8q-51 0 -120 18l-116 32q-31 8 -47 8q-99 0 -161 -30q-92 -4 -134 69q48 137 156 311l188 297q-98 -5 -75 -5q-61 0 -103 30q-49 35 -49 96q0 22 13 65q78 13 239 23q150 9 235 26q60 -49 78 -113q-98 -104 -200 -282
q-162 -287 -170 -298q43 -2 121 -16q82 -16 121 -18q34 -1 52 -5q35 -8 63.5 -44.5t28.5 -67.5zM599 1307q0 -27 -16 -55q-21 -33 -83 -96q-55 -55 -78 -107q-46 -108 -147 -114q-66 19 -102 75q2 11 2 21q0 57 -45 119l-86 106q-35 49 -50 107q38 45 95 45q19 0 63 -5
q30 -33 69 -100.5t65 -97.5q32 18 83 87q44 61 111 83h26q16 1 20 1q73 0 73 -69z" />
    <glyph glyph-name="notequal" unicode="&#x2260;" horiz-adv-x="741" 
d="M638 755q0 -39 -64 -81q-79 1 -232 -8q-156 -10 -231 -10q-38 0 -93 3q-7 10 -37 36q-21 19 -21 40q0 57 77 95q55 -13 103 -13q51 0 150 12.5t150 12.5q100 0 176 -40q22 -24 22 -47zM658 545q-9 -20 -33 -57q-24 -30 -65 -30q-14 0 -104 13q-51 8 -275 8q-13 0 -71 7
q-41 5 -73 -2q-52 25 -91 84l13.5 43t29.5 43q41 1 149 -20q16 -3 28 -3q16 0 42 9q34 -3 61 -3q44 0 132.5 7t132.5 7q49 0 81 -36q5 -6 43 -70z" />
    <glyph glyph-name="infinity" unicode="&#x221e;" horiz-adv-x="1162" 
d="M1075 597q0 -9 -3 -23q-45 -197 -315 -197q-150 0 -239 51q-76 -48 -218 -48q-119 0 -212 39q-128 52 -128 158q0 28 18 66l12 6q79 146 301 146q74 0 225 -62q79 59 232 59q31 0 127 -29q93 -28 121 -43q79 -46 79 -123zM880 585l-1 2q-3 5 -5 8q-26 19 -80.5 35.5
t-84.5 16.5q-35 0 -56 -26l-33 -48l1 -1l11 -10l5 -4q84 -26 125 -26q102 0 118 53zM418 598l-1 1q-26 19 -80.5 35t-82.5 16q-36 0 -57 -25l-34 -49l17 -15q85 -26 126 -26q80 0 110 37q-1 12 2 26z" />
    <glyph glyph-name="lessequal" unicode="&#x2264;" horiz-adv-x="822" 
d="M750 868q-275 -198 -429 -262l12 -5l151 -70q84 -37 163 -48q65 -94 65 -117q0 -44 -64 -83q-135 12 -326.5 123.5t-326.5 119.5q-3 12 -19 43q-20 26 -20 47q0 31 34 51q47 28 301 155q184 91 285 178q11 -2 46 -2t51 -22q28 -12 51 -67q3 -9 26 -41zM658 175
q-9 -22 -33 -63q-24 -33 -65 -33q-14 0 -104 15q-51 8 -275 8q-13 0 -71 8q-41 6 -73 -2q-52 28 -91 94q7 24 13 49q7 21 30 46q41 1 149 -23q16 -3 28 -3q16 0 42 10q34 -3 61 -3q44 0 132.5 8t132.5 8q49 0 81 -41q5 -6 43 -78z" />
    <glyph glyph-name="greaterequal" unicode="&#x2265;" horiz-adv-x="737" 
d="M658 175q-9 -22 -33 -63q-24 -33 -65 -33q-14 0 -104 15q-51 8 -275 8q-13 0 -71 8q-41 6 -73 -2q-52 28 -91 94q7 24 13 49q7 21 30 46q31 1 56 -2q-5 7 -42 36q-27 21 -27 50q0 48 189 205q50 40 147 125q-88 40 -272 106l-53 52q-32 31 -32 65q0 17 13 50q3 2 43 25
q24 14 49 14q38 0 79.5 -32.5t66.5 -31.5q140 -73 291 -82l82 -37q43 -23 60 -64q15 -19 15 -46q0 -28 -10 -49q-21 -43 -86 -63q-83 -26 -96 -36q-52 -40 -148 -140q-92 -96 -151 -140q-25 -17 -47 -22q35 -9 50 -9q16 0 42 10q34 -2 61 -2q44 0 132.5 7.5t132.5 7.5
q49 0 81 -40q5 -7 43 -79z" />
    <glyph glyph-name="partialdiff" unicode="&#x2202;" horiz-adv-x="728" 
d="M613 802q27 -102 27 -234q0 -156 -37 -268q-10 -28 -30 -94q-9 -9 -64 -84q-38 -52 -74 -77q-57 -40 -204 -28l-135 65q-68 40 -97 109q-37 89 -37 181q0 61 17 144q14 73 81 151l120 128l79 37q44 19 77 19q32 0 66 -15q-27 63 -117 226q-47 68 -155 196q-4 14 -4 29
q0 40 26.5 70.5t68.5 30.5q22 0 45 -10q127 -119 238 -322q35 -41 60 -125q28 -95 49 -129zM440 670q-18 -17 -39 -29q-11 2 -21 2q-42 0 -86 -34q-69 -52 -79 -57q-76 -82 -76 -190q0 -29 6 -58q19 -52 65 -81l92 -50q32 3 71 39q5 7 45 121q30 130 22 337z" />
    <glyph glyph-name="summation" unicode="&#x2211;" horiz-adv-x="877" 
d="M778 106q-4 -17 -12 -45q-32 -78 -203 -78q-38 0 -113.5 8t-113.5 8q-56 0 -110 -16l-154 14q-82 17 -112 96q68 155 195 351l224 336q-60 115 -153 215q-46 49 -191 182q-73 67 -73 136q0 31 27 76q65 7 304 7q195 0 323 57q114 -27 114 -107q0 -81 -115 -110
q-52 -13 -181 -19q-52 -2 -157 -10q116 -125 219 -263q130 -173 130 -229q0 -89 -102 -90q-6 0 -11 -8q-44 -81 -270 -444q27 -4 57 -4q59 0 180 22q117 20 180 18l45 -1q35 -32 45 -45q18 -23 28 -57z" />
    <glyph glyph-name="product" unicode="&#x220f;" horiz-adv-x="973" 
d="M881 841q-1 15 -1 -68q0 -284 -36 -497q-16 -96 -104 -173q-78 -68 -184 -98q-21 -6 -96 -22q-58 8 -110 41q-11 7 -92 71q-100 78 -162 209q-29 61 -89 248q4 10 -8 46q-16 47 -16 48q-23 111 -23 164q0 261 68 385q89 164 203 216q44 19 156 52q33 -5 91 -35
q74 -1 161 -62q137 -95 210 -356q15 -54 32 -169zM455 842q0 7 -4 38q-8 6 -15 10v-9q0 -18 4 -60q15 8 15 21zM684 778q0 3 -1 5v-3q-17 72 -54 211q-22 76 -52 128l-35 53q-19 32 -70 47q-66 18 -83 29q-99 -24 -195 -176q46 23 103 23q69 0 121 -24q66 -29 94 -33
q122 -76 122 -167q0 -7 -1.5 -21t-1.5 -21q0 -80 -85 -148t-85 -93q0 -24 23 -80.5t23 -91.5q0 -51 -45 -97q-27 -8 -44 -8q-27 0 -65 19q-54 28 -64 31q-5 43 -5 65q0 17 2 51t2 50q0 59 -55 151h31q-7 63 -37 211l-12 6q-44 22 -60 36q-2 -30 -2 -58q0 -130 9 -215
q12 -109 87 -242q78 -140 165 -195q51 -33 77 -33q4 0 14 6q134 11 166 286q12 100 12 300zM684 778l-1 2v3q1 -2 1 -5z" />
    <glyph glyph-name="pi" unicode="&#x3c0;" horiz-adv-x="1144" 
d="M993 95q-13 -4 -39 -28q-115 -54 -192 -54q-29 0 -57 6q-113 53 -149 147q-20 322 -42 635q-12 0 -69 6q-43 4 -69 0q3 -28 37 -292q22 -172 22 -286q0 -118 -20 -225q-29 -15 -62 -15q-59 0 -133 53q1 56 5 205q4 127 4 192q0 208 -24 356q-15 5 -36 5q-14 0 -46.5 -3.5
t-49.5 -3.5q-62 0 -103 41q-19 19 -19 46q0 32 29 86q65 -5 137 -5q102 0 303.5 15t302.5 15q99 0 185 -10q31 -36 31 -82q0 -69 -65 -88q-31 -15 -70 -11q-35 6 -70 11q3 -37 3 -83q0 -44 -4.5 -133.5t-4.5 -134.5q0 -144 40 -240l4 -1q3 -1 18 -8q13 10 62 63q35 37 78 58
q60 -12 97.5 -53t37.5 -88q0 -66 -72 -96z" />
    <glyph glyph-name="integral" unicode="&#x222b;" horiz-adv-x="506" 
d="M425 409q0 -94 -39 -280q-26 -124 -202 -172q-47 -12 -58 -12q-106 0 -152 78q-1 31 -1 41q0 74 67 120q37 1 75.5 -18t41.5 -19q46 0 46 221q0 167 -95 404q-124 309 -143 391q-5 19 -5 45q0 113 93 209q95 100 215 100q76 0 142 -82q-58 -57 -166 -105q-77 -33 -99 -71
q-4 -3 -7 -8q0 -102 74 -253l138 -274q75 -170 75 -315z" />
    <glyph glyph-name="Omega" unicode="&#x3a9;" horiz-adv-x="1248" 
d="M1148 116q0 -45 -40 -71q-39 -6 -74 -6q-32 0 -94 6t-93 6q-70 0 -131 -32q-74 8 -137 79q9 80 59 183q59 122 72 172q37 138 37 321q0 105 -12 225l-56 112q-40 68 -92 82q-26 -2 -77 -11q-113 -111 -160 -212q-50 -108 -50 -256q0 -207 111 -459q49 -112 49 -150
q0 -21 -8 -35q-35 -61 -138 -61q-16 0 -47 1.5t-45 1.5q-129 0 -245 38q-17 30 -17 51q0 28 28 77q66 18 231 21q-17 65 -56 197q-60 189 -60 307q0 202 81 369q98 201 285 277q176 3 265.5 -46t163.5 -194q53 -103 53 -338q0 -277 -96 -531q17 1 60 5q39 3 61 3
q110 0 164 -77q8 -39 8 -55z" />
    <glyph glyph-name="Omega" unicode="&#x2126;" horiz-adv-x="1248" 
d="M1148 116q0 -45 -40 -71q-39 -6 -74 -6q-32 0 -94 6t-93 6q-70 0 -131 -32q-74 8 -137 79q9 80 59 183q59 122 72 172q37 138 37 321q0 105 -12 225l-56 112q-40 68 -92 82q-26 -2 -77 -11q-113 -111 -160 -212q-50 -108 -50 -256q0 -207 111 -459q49 -112 49 -150
q0 -21 -8 -35q-35 -61 -138 -61q-16 0 -47 1.5t-45 1.5q-129 0 -245 38q-17 30 -17 51q0 28 28 77q66 18 231 21q-17 65 -56 197q-60 189 -60 307q0 202 81 369q98 201 285 277q176 3 265.5 -46t163.5 -194q53 -103 53 -338q0 -277 -96 -531q17 1 60 5q39 3 61 3
q110 0 164 -77q8 -39 8 -55z" />
    <glyph glyph-name="radical" unicode="&#x221a;" horiz-adv-x="902" 
d="M853 1394l-349 -1027q-11 -38 -35 -111q-9 -16 -25 -50q-15 -47 -60 -134q-4 -9 -13 -18q-11 -15 -46 -43q-146 24 -139 117l5 9q-30 64 -96 170q-75 123 -99 168q-38 71 -38 141q0 15 1 30q26 51 78 51q32 0 79 -21l179 -328q64 149 186 541q108 346 202 536
q37 21 69 21q53 0 101 -52z" />
    <glyph glyph-name="approxequal" unicode="&#x2248;" horiz-adv-x="841" 
d="M749 501q0 -15 -5 -35q-14 -53 -7 -75q-67 -106 -98 -142q-73 -82 -148 -82q-96 0 -155 75l-87 143q-21 -25 -50 -98q-32 -80 -54 -112q-40 -11 -62 -11q-49 0 -84 26q-39 29 -39 78q0 73 101 216q-101 14 -101 102q0 93 160 293q15 3 59 19q37 13 61 13q14 0 42 -7
q70 -20 106 -59q22 -24 46 -78q24 -57 47 -84q22 22 37.5 101t60.5 121q24 9 40 9q41 0 79 -21q51 -27 51 -74q0 -15 -5 -35q-14 -53 -7 -75q-24 -39 -79 -119q91 -22 91 -89zM523 489q-16 -4 -32 -4q-47 0 -84 17q18 -46 74 -137q19 20 27 55t15 69zM329 569l-80 134
q-20 -24 -59 -119q29 9 50 9q14 0 41 -7.5t48 -16.5z" />
    <glyph glyph-name="approxequal" unicode="&#x22f2;" horiz-adv-x="841" 
d="M749 501q0 -15 -5 -35q-14 -53 -7 -75q-67 -106 -98 -142q-73 -82 -148 -82q-96 0 -155 75l-87 143q-21 -25 -50 -98q-32 -80 -54 -112q-40 -11 -62 -11q-49 0 -84 26q-39 29 -39 78q0 73 101 216q-101 14 -101 102q0 93 160 293q15 3 59 19q37 13 61 13q14 0 42 -7
q70 -20 106 -59q22 -24 46 -78q24 -57 47 -84q22 22 37.5 101t60.5 121q24 9 40 9q41 0 79 -21q51 -27 51 -74q0 -15 -5 -35q-14 -53 -7 -75q-24 -39 -79 -119q91 -22 91 -89zM523 489q-16 -4 -32 -4q-47 0 -84 17q18 -46 74 -137q19 20 27 55t15 69zM329 569l-80 134
q-20 -24 -59 -119q29 9 50 9q14 0 41 -7.5t48 -16.5z" />
    <glyph glyph-name="Delta" unicode="&#x394;" horiz-adv-x="877" 
d="M785 139q-8 -85 -63 -128q-355 -40 -524 -40q-126 0 -260 23l158 731q91 420 168 718q42 8 58 8q92 0 139 -86q12 -23 54 -158q52 -170 133 -532q79 -353 137 -536zM526 182q-5 159 -58 387l-91 382q-11 16 -18 36q-102 -417 -170 -823q66 -6 125 -6q116 0 212 24z" />
    <glyph glyph-name="Delta" unicode="&#x2206;" horiz-adv-x="877" 
d="M785 139q-8 -85 -63 -128q-355 -40 -524 -40q-126 0 -260 23l158 731q91 420 168 718q42 8 58 8q92 0 139 -86q12 -23 54 -158q52 -170 133 -532q79 -353 137 -536zM526 182q-5 159 -58 387l-91 382q-11 16 -18 36q-102 -417 -170 -823q66 -6 125 -6q116 0 212 24z" />
    <glyph glyph-name="lozenge" unicode="&#x25ca;" horiz-adv-x="1796" 
d="M1499 1174q-17 -13 -17 -14l-4 2l14 27q7 -10 7 -13v-2zM1284 1331q-3 -7 -14 -7q-23 0 -19 2q-11 9 -11 15t4 13zM1155 1380h-3q-13 0 -37 11t-34 11q-14 0 -24 -15l-6 7l6 36h8q29 0 90 -50zM1691 775l-5 2q1 0 5 -2zM1552 631q-5 -6 -60 -6q-32 0 -34 -29h-9
q-9 1 -26 -2q-21 -4 -28 -4q-14 0 -27 6q4 1 15 22q10 15 18 15t17 -9l7 -2q11 0 11 40q0 11 26 28.5t37 17.5t20 -9l-13 -17v-3l19 -22l15 22l12 -13q-12 -23 -12 -16v-7zM1335 624l-23 -28q-3 1 -9 1q-5 0 -31 -19l-8 5q9 2 32 24q19 18 35 17h4zM1686 777q-12 -3 -27 -9
q-21 -11 -29 -14l5 -33l-9 -2q-34 -2 -69 35q-5 5 -51 64q0 46 -30 111q-41 89 -46 107q-23 8 -60 61q-32 47 -63 55q-11 10 -63 19q-41 6 -48 31q-12 10 -54.5 16t-56.5 25q-18 2 -39 2q-48 0 -101 -6q-89 -9 -100 -9l-13 13q-2 -7 -30.5 -9t-28.5 -10q0 -7 16 -22
q-4 -10 -36 -11q-28 0 -30 -24l-43 -15q6 37 -38 37h-16q-7 -11 -7 -22q0 -41 -7 -48l53 -54q29 -29 71 -29q7 20 24 20q9 0 28 -6.5t29 -6.5q22 0 35 20l139 10q90 -37 144.5 -124.5t54.5 -186.5q-35 -41 -35 -114q0 -33 7 -65q6 -8 23 -13l2 -1q-5 -1 -41 -1q-30 0 -39 22
q-42 7 -59 7q-28 0 -52 -14q-15 42 -29 42q-8 0 -17 -7q-10 2 -28 -15q5 -7 6 -13q-1 -2 -6 -2q-19 0 -22 -5q0 5 7.5 13.5t7.5 12.5q0 15 -22 15h-26q-7 -5 -8 -9q0 -6 11.5 -17t11.5 -15q0 -7 -9 -15q-29 38 -41 38t-23.5 -12.5t-17.5 -12.5q-4 0 -8 2v41l-49 2
q-28 7 -34 31l-7 2q-32 0 -33 -39q-1 -49 -20 -58q3 -27 25 -27q8 0 23 3.5t23 3.5q19 0 19 -24q0 -7 -2 -18l37 -56q20 -30 24 -60l-13 -14q-12 5 -24.5 41.5l-12.5 36.5q-9 0 -31 -24q-6 22 -22 22q-48 0 -41 -2q-29 -42 -70 -42q-6 0 -13 1q31 4 64 41q-42 42 -55 42
l-15 -27l-20 8l11 5q11 7 11 13q0 4 -2 10q-9 5 -27 5q-36 0 -44 4q-18 7 -18 37q5 7 6 10v4q-7 7 -15 7q-10 0 -26 -13t-20 -14l28 -28q-15 -12 -15 -40v-56q-5 -26 -41 -27v-21l-40 12q5 10 40 25q30 13 30 31q0 6 -15.5 15.5t-14.5 20.5h-9q-11 1 -11 -8q0 6 6 -26
q0 -7 -6 -9q-24 11 -35 20v7q0 27 34 53t34 40q0 13 -13 34l-47 5q-8 7 -8 14q0 25 27 34l-12 12l-35 -32q1 7 -8 13h-3q-18 0 -30 -41l-7 7q12 6 12 19q0 31 -42 31q-57 0 -53 -2q-19 5 -19 41q28 20 28 28l-16 20q-19 -11 -27 -20q-42 47 -83 47q20 10 27 21
q-19 0 -33.5 26t-28.5 29q34 41 50 41q5 -15 28 -33q37 4 40 26q-28 54 -50 75l50 8q-5 4 -7.5 24.5t-14.5 23.5q22 10 31 66q9 46 41 46q9 0 19 -1q-3 34 46.5 65t49.5 59l28 27l-28 28q5 16 34 25t34 16q15 -15 30 -15q12 0 40.5 17t40.5 19q8 14 50 32t51 35q27 -5 51 -5
q36 0 105.5 21t102.5 21q19 0 37 -3q17 13 37 13l62 -13q-1 -4 -1 -8q0 -18 28 -18q13 0 21 8q3 -15 19 -36q-7 -3 -7 -12v-16l35 -25q-22 0 -22 -13q3 -2 15 -15q9 -3 15 -3q11 0 26.5 18.5t23.5 18.5q9 0 18 -6q7 -40 63 -70q64 -35 82 -56q9 2 16 2q20 0 59 -29
q36 -26 64 -26h7q5 -11 5 -21q0 -5 -4 -16t-4 -18q0 -10 15 -21q119 -8 165 -97q-4 -9 -4 -14q0 -14 12 -34.5t12 -22.5q0 -14 -28 -19q-22 -43 -22 -48q0 -7 2 -13q23 0 48 -26q32 -31 43 -35zM1190 568l-5 2q2 0 5 -2zM1726 58q0 -43 -59 -43q-55 0 -68 32q41 61 68 61
q28 0 31 -28q-1 -9 -12 -13q-16 -5 -19 -7h-13q-10 1 -14 1q-16 0 -21 -10q2 -17 28 -25q36 4 42 6q25 6 30 26l-3 26q10 -7 10 -26zM1593 117q0 -9 -13.5 -32t-13.5 -33q-9 -7 -28 -42q-12 -21 -43 -37q20 39 46 85q0 4 -18.5 26t-18.5 33q0 8 4 13q13 -22 50 -50
q4 6 10 23.5t16 21.5l9 -4v-4zM1486 24q-17 10 -33 10q-19 0 -60 -17q-8 13 -10 78l-2 22q8 7 42 16q29 8 37 27q-3 9 -12 12l-5 -3q3 3 8 5q13 -5 13 -21q0 -14 -6 -19q-7 -8 -34 -18q-27 -5 -27 -18q0 -9 7 -21l28 7l6 -2q-17 -3 -39 -28q3 -11 10 -16h5q7 -2 22 2.5
t21 4.5q19 0 29 -21zM776 550l-33 -15q0 28 -27 35l-49 13q24 7 41 7q40 0 68 -40zM1281 58q0 -43 -57 -43q-56 0 -69 32q39 61 69 61q25 0 31 -28q-2 -10 -13 -13q-18 -6 -18 -7h-16q-8 1 -12 1q-15 0 -23 -10q5 -17 30 -25q36 4 43 6q25 6 29 26l-3 26q9 -7 9 -26z
M1148 51q0 -15 -7 -30h-7q3 5 3 15q0 18 -10 33q-9 6 -20 8l-11 -4q-6 -8 -6 -19q0 -6 3 -18.5t3 -18.5h-8q-14 52 -14 67q0 14 5 28l6 -6v-6l3 -5l6 -2q10 4 28 9h5q21 -25 21 -51zM867 291q0 -11 -17 -11h-5q0 20 -23 20q-11 0 -18 8q2 12 13 12q17 0 28 -20l7 8
q15 -20 15 -17zM1067 98q0 -25 -16 -74q-14 -12 -33 -12q-53 0 -53 72q0 22 14 50q16 33 35 33q23 0 51 -53zM109 1003l-39 -14q-10 0 -17 14l28 27zM736 273h-28v7q-39 -7 -80 -7q-53 0 -85 14q6 11 15 11q6 0 24 -7.5t28 -7.5q7 0 16 4q14 35 37 35q19 0 39 -20
q26 -26 34 -29zM495 451q-5 -7 -12 -7q-21 0 -23 23h28v-2q0 -7 7 -14zM571 335l-15 -13q-7 6 -7 11q0 12 13 17q9 -5 9 -13v-2zM865 47q-20 -33 -41 -33q-29 0 -29 44q0 26 4 32.5t27 17.5q17 -8 39 -29l-2 -10l-7 -6v4q0 6 -8 13q-12 2 -14 2l-23 -2q-9 -5 -9 -20
q0 -30 28 -30q15 0 26 15zM776 102q-2 -4 -5 -7l-2 -2l-4 5l2 8l6 4l3 -4v-4zM467 389l-27 7h20zM789 30l-4 -13q-12 43 -14 52q0 10 3 17q16 -42 15 -56zM760 108q-7 -4 -37 -17q-23 -9 -23 -31v-48h-9q-1 9 -5 59q-3 33 -37 37l-2 8q15 -6 35 -8l-2 15q-3 28 19 44
q5 -5 5 -18q0 -14 -4 -23l-1 -18l44 2zM261 531q0 -9 -7 -9q-9 0 -14 5q18 12 18 15l3 -1v-10zM42 714l-1 -7l-8 -8q-1 6 -14.5 13t-13.5 9q0 6 8 14q29 -15 29 -21zM642 63q0 -31 -10 -48q-2 9 -9 13h-4q-7 -5 -28 -9q-5 5 -5 13q0 5 1.5 13t1.5 13q14 9 37 7v6l-3 11l-9 7
h-9q-16 2 -19 -7v-3l-6 7v2q25 22 37 22q8 0 25 -33v-14zM573 54q0 -14 -7 -31h-8q4 7 4 17q0 18 -11 35q-13 7 -20 7l-9 -3q7 -12 7 -21q0 -19 -19 -43q-1 7 -4 37q-2 25 -18 32h-5q-10 0 -16 -7v-17q2 -12 2 -17q0 -9 -7 -13h-7l-9 76h5q6 -4 11 -11q11 3 35 11l11 -4
l9 -18v14l28 10h6q22 -26 22 -54zM440 104q-2 -60 -4 -70q-7 -40 -37 -54h-7q-8 0 -22.5 -2.5t-22.5 -2.5q-10 0 -22 5q-2 6 -2 14q0 40 43 40q11 0 20 -6l4 -5l-2 -8q-16 -14 -28 -14h-4l-5 7h17q11 2 11 13q-7 5 -19 5q-9 0 -16 -3q-13 -17 -13 -24v-4q22 -11 35 -11
q17 0 39 14.5t22 29.5v21h-6q-6 0 -17.5 -3t-17.5 -3q-12 0 -18 9q-2 -9 -2 37q0 41 31 41q26 0 43 -26zM305 102q-2 -7 -7 -9l-4 5l2 8l5 4l4 -4v-4zM319 30l-5 -13l-13 52q0 10 2 17q9 -6 11 -26q3 -26 5 -30zM288 108q-6 -4 -36 -17q-23 -9 -23 -31v-48h-7q-2 3 -7 59
q-3 33 -35 37l-2 8q12 -6 32 -8v15q0 30 17 44q8 -5 8 -18q0 -14 -6 -23l-2 -18l46 2zM170 98l-2 -18q-9 13 -25 13q-6 0 -21 -4l-7 -9q46 -29 46 -44q0 -6 -2 -13q-13 -8 -26 -8q-18 0 -34 16.5t-29 15.5l2 5q7 4 13 4t22.5 -10t21.5 -12q8 2 12 8q-2 6 -26.5 21t-24.5 23
q0 11 16 24h18q35 0 46 -12zM61 77q-8 -10 -8 -53v-12q-14 29 -14 46q-5 5 -9 5q-6 0 -14 -2q-7 -7 -7 -35q-9 16 -9 34q0 9 11 72q10 9 19 35q12 -5 23 -42q-2 -21 -2 -27q0 -12 9 -21h1zM1096 791q0 17 -22 30q-33 20 -35 25q-5 -5 -32 -21q-18 -11 -23 -30v-23
q-3 -19 -3 -27q0 -38 56 -38q26 0 35 20v8q2 9 -5 12q29 34 29 44zM1667 77v12l-4 4h-9q-20 -11 -20 -16l1 -2l19 -2q6 0 13 4zM700 1017l-7 2q-4 0 -14 -4t-14 -5q-7 0 -12 13q-2 10 -16 21q-17 1 -32 1q5 -7 5 -15q0 -6 -12 -23.5t-12 -26.5q0 -5 3 -13q19 15 36 15
q15 0 20 -15q-5 -5 -5 -10v-3q5 6 13 6q5 0 13.5 -3t13.5 -3q8 0 15 8v2q0 5 -13 12t-15 13zM483 1112l-16 27h-12zM455 1106h-14q-31 20 -29 20q-5 -42 -13 -42q-9 0 -18 7q0 -11 14 -11q8 0 24.5 12.5t21.5 13.5q4 -1 8 -1q3 0 6 1zM605 934l-16 13l-18 -20l-9 7l-6 -35
q5 -1 12 -2q6 0 16 18.5t21 18.5zM379 1115q0 19 -30 19q-2 -9 -2 -11q0 -7 14.5 -10.5t15.5 -6.5zM612 871h-35l12 -25zM460 1051l-5 7q-7 -1 -29 -10.5t-34 -9.5q-18 0 -36 20q-5 -2 -16 2t-17 5q-11 0 -14 -14l40 -21q8 -1 27 -2.5t29 -1.5q36 0 55 25zM660 657v22h-7
v-22h7zM1224 77v12l-6 4h-8q-20 -11 -20 -16v-2q17 -2 20 -2q7 0 14 4zM632 631v7l-15 14zM366 950q0 10 -11 19l-11 11l5 9q0 6 -19 20.5t-21 20.5q-15 10 -34 10q-20 0 -59 -18t-57 -19q0 -17 -9 -23q15 -5 35 -35q8 -39 20 -39q10 0 28 14q9 -10 16 -10q6 0 19.5 15.5
t22.5 15.5l3 -2l16 -16l-1 -3q35 21 55 27q2 2 2 3zM515 699v18q-1 9 -5 10h-2l-25 -28h32zM677 511q0 8 -20.5 14t-24.5 16q0 -41 40 -41q3 4 5 11zM384 738v2q-3 -5 -12 -5h-8q-15 9 -15 27v6h-12q-2 7 -18 25.5t-16 29.5q0 7 6 15q-8 4 -15 4q-21 0 -21 -26q0 -34 21 -34
q34 0 41 -26q13 -46 14 -49q4 5 19.5 14.5t15.5 16.5zM1048 114q0 11 -15 21l-1 -31q-6 10 -18 24q-28 -11 -28 -46q0 -48 27 -48h7q28 18 28 80zM233 851q-7 20 -13 20l-7 -20h20zM240 803q0 13 -14 13q-25 0 -27 14v-35h21q13 0 20 8zM275 707q-33 0 -42 5v-9
q-4 -32 22 -37q6 4 12 19q1 16 8 22zM623 45q0 9 -13 13l-9 -6l-4 -9v-3l8 -4q18 2 18 9zM423 84q0 20 -26 20q-20 -11 -20 -33l2 -10l18 -1q26 5 26 24zM33 82q-1 5 -5 22l-5 4q-5 -8 -9 -24l2 -7q7 0 12 2z" />
    <glyph glyph-name="fraction" unicode="&#x2044;" horiz-adv-x="677" 
d="M628 1394l-350 -1027q-10 -38 -35 -111q-9 -16 -24 -50l-44 -105q-26 -50 -76 -90q-146 24 -138 117q125 218 258 645q145 463 239 652q36 21 69 21q52 0 101 -52z" />
    <glyph glyph-name="fi" unicode="&#xf001;" horiz-adv-x="882" 
d="M788 108q0 -141 -98 -141q-67 0 -128 82q-1 33 14 123q2 15 2 28q0 35 -5.5 104.5t-5.5 103.5q0 29 4.5 88t4.5 92q0 82 -12 145q-41 -22 -83 -22q-13 0 -41 2.5t-42 2.5q-13 0 -24 -2q46 -374 121 -631q0 -65 -38 -96q-35 -7 -58 -7q-67 0 -119 52q-36 139 -64 329
l-46 326l-11 -2q-37 -7 -60 -7q-60 0 -113 53q-3 10 -15 35q-11 22 -11 38q0 6 2 14q40 60 100 60q14 0 42 -4t42 -4q-3 12 -3 43q0 20 6 60t6 61q0 25 -14 57q42 128 54 156q38 82 105 129q26 4 63 24q18 2 83 13q52 9 84 9q14 0 41 -3l53 -38q30 -23 30 -55q0 -20 -14 -40
q59 -24 76 -127q6 -32 9 -152q-39 -42 -85 -42q-70 0 -100 54q-17 32 -26 109q-1 9 -9 36q-6 24 -6 35q0 18 9 33q-27 5 -41 5q-37 0 -77 -62.5t-40 -116.5q0 -9 3 -25t3 -23q0 -13 -2.5 -38.5t-2.5 -38.5q0 -19 4 -35q13 1 46 6q30 4 47 4q93 0 120 -78l1 2l3 8
q14 34 94 34q33 0 55 -25q18 -13 30 -40q9 -23 17 -46q-4 -60 -4 -118q0 -83 11.5 -248t11.5 -248q0 -5 1 -19v-22z" />
    <glyph glyph-name="fl" unicode="&#xf002;" horiz-adv-x="880" 
d="M778 3q-23 -25 -43 -29q-1 5 -1 10l-17 -19q9 0 -31 0q-43 0 -67 22q-53 33 -53 106q0 -13 6 71q10 150 10 303q0 136 -11 263q2 5 3 9q-47 -28 -93 -28q-13 0 -41 2.5t-42 2.5q-13 0 -24 -2q46 -374 121 -631q0 -65 -38 -96q-35 -7 -58 -7q-67 0 -119 52
q-36 139 -64 329l-46 326l-11 -2q-37 -7 -60 -7q-60 0 -113 52q-3 11 -15 36q-11 22 -11 37q0 7 2 15q40 60 100 60q14 0 42 -4t42 -4q-3 12 -3 43q0 20 6 60t6 61q0 25 -14 57q42 128 54 156q38 82 105 129q26 4 63 24q18 2 83 13q52 9 84 9q14 0 41 -3l53 -38
q30 -23 30 -55q0 -8 -2 -16q66 17 94 -20q21 -73 21 -299q0 -30 3.5 -90.5t3.5 -90.5v-209q0 33 4 -598zM585 1115q-67 2 -78 83q4 19 11 32q-39 7 -51 7q-37 0 -77 -62.5t-40 -116.5q0 -9 3 -25t3 -23q0 -13 -2.5 -38.5t-2.5 -38.5q0 -20 4 -35q13 1 46 6q30 4 47 4
q99 0 123 -89q0 30 13 53q-4 32 -4 71q0 25 2 82q3 72 3 90z" />
    <glyph glyph-name="apple" unicode="&#xf000;" horiz-adv-x="352" 
 />
    <glyph glyph-name="dotlessi" unicode="&#x131;" horiz-adv-x="295" 
d="M201 95q0 -136 -99 -136q-66 0 -128 79q-1 32 14 119q3 14 3 27q0 34 -5.5 101t-5.5 100q0 28 4.5 85.5t4.5 88.5q0 114 -29 205q18 23 21 31l3 7q14 34 94 34q34 0 56 -24q18 -13 28 -37.5l19 -46.5q-5 -58 -5 -113q0 -81 12 -240.5t12 -240.5v-17q1 -13 1 -22z" />
    <glyph glyph-name="breve" unicode="&#x2d8;" horiz-adv-x="614" 
d="M518 1315q0 -70 -129 -128q-110 -50 -190 -50q-77 0 -126 33q-34 23 -78 84q-35 48 -35 83q0 21 15 52q6 2 37 20q22 13 40 13q66 0 101.5 -66.5t76.5 -66.5q28 0 44 31l19 51q16 34 55 58q11 1 32 3.5t32 2.5q35 0 72 -47q34 -43 34 -73z" />
    <glyph glyph-name="dotaccent" unicode="&#x2d9;" horiz-adv-x="227" 
d="M227 1351q0 -39 -29 -71q-36 -38 -99 -38q-82 0 -125 72q-5 69 122 132q71 -4 116 -36q15 -33 15 -59z" />
    <glyph glyph-name="ring" unicode="&#x2da;" horiz-adv-x="529" 
d="M435 1174q0 -84 -54 -144q-61 -68 -164 -68q-8 0 -95 6q-17 14 -64 32q-38 15 -61 46q-49 65 -49 129q0 81 33 133q25 39 100 86q80 50 132 50q37 0 64 -28q30 -31 49 -34q109 -93 109 -208zM228 1193q0 16 -5 32q-11 7 -25 10q-66 -37 -64 -68q18 -36 46 -36q48 0 48 62
z" />
    <glyph glyph-name="hungarumlaut" unicode="&#x2dd;" horiz-adv-x="694" 
d="M606 1356q-20 -70 -64 -109q-44 -14 -112 -64.5t-127 -66.5q-78 4 -122 60l3 5q-65 -49 -125 -65q-77 4 -122 60q25 39 91 106l102 98q55 49 164 52q18 -13 62 -69q63 66 182 69q9 -7 68 -76z" />
    <glyph glyph-name="ogonek" unicode="&#x2db;" horiz-adv-x="408" 
d="M379 -349q0 -53 -59 -72q-22 -8 -82 -11q-245 96 -245 227q0 30 35 150q9 6 88 94q57 63 108 63q37 0 68.5 -28t31.5 -60q0 -46 -104 -127q-28 -61 -28 -75q0 -27 27 -38q28 -7 55 -13q39 -11 68 -34l24 -35q13 -21 13 -41z" />
    <glyph glyph-name="caron" unicode="&#x2c7;" horiz-adv-x="659" 
d="M566 1331q0 -27 -17 -55q-20 -33 -83 -96q-54 -55 -77 -108q-46 -107 -147 -114q-66 19 -102 76q1 10 1 21q0 57 -45 119l-85 106q-35 48 -50 107q37 45 95 45q18 0 63 -6q30 -32 69 -100t65 -97q31 17 82 87q45 60 112 83q12 -1 26 0q16 1 19 1q74 0 74 -69z" />
    </font>
</defs>
</svg>
